<mxfile host="65bd71144e" pages="2">
    <diagram name="UI" id="6d1zvk1mp6xo4aCD9DQc">
        <mxGraphModel dx="2366" dy="1625" grid="1" gridSize="10" guides="1" tooltips="1" connect="1" arrows="1" fold="1" page="0" pageScale="1" pageWidth="850" pageHeight="1100" math="0" shadow="0">
            <root>
                <mxCell id="0"/>
                <mxCell id="1" parent="0"/>
                <mxCell id="134" value="" style="group" parent="1" vertex="1" connectable="0">
                    <mxGeometry x="400" y="40" width="660" height="270" as="geometry"/>
                </mxCell>
                <mxCell id="90" value="" style="rounded=1;whiteSpace=wrap;html=1;strokeColor=#B3B3B3;fontSize=12;fontColor=#ff9999;fillColor=none;dashed=1;strokeWidth=2;absoluteArcSize=1;" parent="134" vertex="1">
                    <mxGeometry width="660" height="270" as="geometry"/>
                </mxCell>
                <mxCell id="qFLIeKoxBp-B1Lmsnolc-3" value="" style="group" parent="134" vertex="1" connectable="0">
                    <mxGeometry x="20" width="280" height="254" as="geometry"/>
                </mxCell>
                <mxCell id="cEr3Aab3lT-EOtOOjDV5-4" value="" style="rounded=1;whiteSpace=wrap;html=1;absoluteArcSize=1;arcSize=9;strokeColor=none;fillColor=#CFCFCF;container=0;" parent="qFLIeKoxBp-B1Lmsnolc-3" vertex="1">
                    <mxGeometry y="20" width="280" height="230" as="geometry"/>
                </mxCell>
                <mxCell id="cEr3Aab3lT-EOtOOjDV5-3" value="" style="rounded=1;whiteSpace=wrap;html=1;absoluteArcSize=1;arcSize=9;strokeColor=none;fillColor=#ffffff;shadow=0;glass=0;container=0;" parent="qFLIeKoxBp-B1Lmsnolc-3" vertex="1">
                    <mxGeometry y="54" width="280" height="200" as="geometry"/>
                </mxCell>
                <mxCell id="qFLIeKoxBp-B1Lmsnolc-2" value="BaseWindow" style="text;html=1;strokeColor=none;fillColor=none;align=center;verticalAlign=middle;whiteSpace=wrap;rounded=0;container=0;" parent="qFLIeKoxBp-B1Lmsnolc-3" vertex="1">
                    <mxGeometry width="80" height="30" as="geometry"/>
                </mxCell>
                <mxCell id="3" value="&lt;h1&gt;BaseWindow&lt;/h1&gt;&lt;div&gt;&lt;ul&gt;&lt;li&gt;Responsible for itself&lt;/li&gt;&lt;li&gt;Base widndow will manage GroupNodes.&lt;/li&gt;&lt;li&gt;and looks for a signals from GroupNodes. GroupNode will emit the signal with a TaskNode as a parameter. BaseNode should check the if that TaskNode moved on to another GroupNode. and change the Group of the TaskNode.&lt;/li&gt;&lt;/ul&gt;&lt;/div&gt;" style="text;html=1;strokeColor=none;fillColor=none;spacing=5;spacingTop=-20;whiteSpace=wrap;overflow=hidden;rounded=0;" parent="134" vertex="1">
                    <mxGeometry x="340" y="37.81999999999999" width="300" height="194.37" as="geometry"/>
                </mxCell>
                <mxCell id="5" style="edgeStyle=orthogonalEdgeStyle;html=1;exitX=1;exitY=0.5;exitDx=0;exitDy=0;entryX=0;entryY=0.5;entryDx=0;entryDy=0;" parent="134" source="cEr3Aab3lT-EOtOOjDV5-4" target="3" edge="1">
                    <mxGeometry relative="1" as="geometry"/>
                </mxCell>
                <mxCell id="cEr3Aab3lT-EOtOOjDV5-1" value="" style="shape=image;verticalLabelPosition=bottom;labelBackgroundColor=default;verticalAlign=top;aspect=fixed;imageAspect=0;image=https://cdn.discordapp.com/attachments/1102741721378476032/1105724057585983508/margins.jpg;" parent="1" vertex="1">
                    <mxGeometry x="20" y="-550" width="439" height="520" as="geometry"/>
                </mxCell>
                <mxCell id="cEr3Aab3lT-EOtOOjDV5-2" value="" style="shape=image;verticalLabelPosition=bottom;labelBackgroundColor=default;verticalAlign=top;aspect=fixed;imageAspect=0;image=https://cdn.discordapp.com/attachments/1102741721378476032/1105724273160638464/standard.jpg;" parent="1" vertex="1">
                    <mxGeometry x="459" y="-550" width="338" height="520" as="geometry"/>
                </mxCell>
                <mxCell id="ELAMhrjHO2k3OKQUeLda-1" value="" style="shape=image;verticalLabelPosition=bottom;labelBackgroundColor=default;verticalAlign=top;aspect=fixed;imageAspect=0;image=data:image/png,iVBORw0KGgoAAAANSUhEUgAAAeYAAAIdCAYAAADoLt6IAAAAAXNSR0IArs4c6QAAAARnQU1BAACxjwv8YQUAAAAJcEhZcwAADsMAAA7DAcdvqGQAAP+lSURBVHhe7J0HgB5F+cafr1zvLb130ui9Sq+i0gQbYkVBQf0jKCAKVkRFQYpSFARBpffeIZAE0vtdckkuyfVev/J/n3d3vtv78l1Jcndp8/tubndnZ2dmy8wz7+zsrm/c6MnRRUvnw0s0GnXnOknkR7rz3xUwefP5fDodLJhuT2lmHlMBX8hdEKIBoPHtInepf+ktLzuDnXFetiXNgT5mO2P/+8LOuFb6eiwG45jtiudlZ+Up/lpgNs4/JwVvvCaVVR+Jyo88+FAQTz0Rxn8edXxPPc2Hc87z4xuXhHU9GT0G+Oa3Arjn72GsLQHOPd+P637mxxcvDGHhQtl/DbVjx+CYY8J4+L9tSE52PbYBcyzM+TB4jxHn48+Xd308NTU1CAQCCAaD8Pv96sx8F2E2kcYnThL5ke78CdfFZ6yn8HsL2cdVbSXM9W8WuEsWi8Wy63HBOal44/Wgu9QXojjoYOCmXwdwyonhmKxSmK/9WQCnntSBhgbH78CDfPjiF/345U0RhEM+3Pk3H958I4pJk3246kdhhMSPv+2FjQQV5v+0IinJ9eyGnsQ0kaZ5l7vb1vh713uFmf5eYfaHQ6FexdKs94bjvNc/0bJ3PpHrbn13/nuKS0SicP3p+ppGd+G68493fQ0X77Z3u93Zbcs+dxe2O/9419dw8W57t9ud3bbsc3dhu/PfXV0kIlPdq75DATz7M37cdw8t486tOZeSAlz6XRHn0/w4/XQ/LvqCH6+9FhVhAm6/k9tEcdedEZSVAT++2o+0VGfbHSXRvnldT2EikUiX9Qbvspn3rie9rY/H7067bGimXsdMJVruzr875yV+2eD170uYvsDwXtdX4sN74zD+3c33J32Jt6cwxr+3eHrbnvQUh7l4+4KJh25btiPx6XvjMuvi5/tKf4ftLozXn/M9xdXXOBLRW9zxmPB023M+Dd54vOu8UzPfF/ozbE9pe/37Ek8ijD+nvYXpKyaunuJMRHx4bxzGv7v5HUEMP7V6n31GrEzXz7BoYRQfvBfFiBE+jBztw6MPR/Hi81GkimD/55EoXn4pinDYhztui2DdOp9Ylokt0W3F7FZ3+2j8E7me1ve0jq43jCVtwvtGDx8fXbz8E/U0mIjiC2WiBDQSibSndV5MOLNN/Lbx4RPhjaMn4tPvKT2vH/GGM/PeuHrCG9YbhyH3+JqturJrXsvtcRsS799duHi84XqL2+ANS3pLgzD8tuSFeJfj0/Muk/htDL2lSRKl690ufj1JtA2JT68vcSXCG663uM36eLYljZ4w6RgSpWvWx+fF6+/dxhtfd3jDJtquO7+elkn8dmaZxIeNxxtfb3Gb9dsSP/HG0RPx6feUntePeMOZeW9cPeEN68Thw4XnpYnQ9tIP7EEkRv9zW2+qp5zmw2fEkr70W2FJg0LkrnCRlN05B8m5/nfc9sG8HH1MCP/6d4tY8t0fh74cI3MszbzB+Mf7meX4aW1t7Vb3mI3rIswmMU51jlNxraEWVDdvwZzS1/Bh6esorlqGLY0b0RFu1/CefFgsFovF0gVXWpQDxxyFg8ccizvf+aXrsxtriOxXalIGRuaMw7Qh++PIcSdj5rBDkJWSg6RAcreiTCjMFGU6CjQF2UxVmBct+1gDqjDrn1jKUR/qWquxaPOHeHnl/zBn3auob6vVcPFYYbZYLBZLd3iFORG7q4bE7xf7BkZkj8ExE8/EcRPPwtSifbsINEXX4BVmYylTmOliwqxWspsKu7BLqpfjkU/uwJvFz6KhG0E2WGG2WCwWS3fsLcLsZXTuBJwy9XycPeNi5KcXqTh7LefuhFnnGYiRmwQozivKF+DGV76D51f8u1dRtlgsFoulJ6hH3WnvnmTXefdlfW0x/jn3j/jDm1dhS8NGRCNdB0d7MctmnSvMXIjoRqsql+D/nv08VlQsRDjCm/PuQe3BWSwWi8XSIwm0Q/WDbjcl0b7E5oX2cBteX/MU/vzOT9DU3hATXq8j3nvPnHeF2RHlkqrl+MVL30R1c8Ue1YqxWCwWi2Vn8caaZ3Dr29egsa0+JsaGRAKt95g/XvQRaluqcdu71+Gllf9BRITa4BFyi8XSj0wqmomxeRO1kPHJh4UbPkR9a42um1A4Vdw+Ou8tgsu2LMCGmhJ3yVnXtZhvP7asWyz9R5z+wu/z49uHX4/P7/cdBPwB1NXVISkpqftR2fMWfoC31jyHm9/4AeraamwBtVgGgXP3/zpOmvo5JCelIj0pAz9//jtYUjYPwUASLj3qWhw35SxUN5W7oR3+9dFteGPVM+5S/2LLvcUyMBiRnliwD6478U6ZTkdDQ0NMmI0odxHmt+e+ij+8dZVYy//VjW0BtVgGASmsLK8jcsbi6pP/gL+991ss2vghUpPS8X8n/g7zSt/Cc0v0zf8JCfiDCEecN9UEZd4nLfJQuEPi7GyqB3wBROjj6QUjjr8zEMVgy73FMjCYYpbkT8Ylh1yFz+/7XTQ3NcdGZRur2Qiz3mOuaCzDnNJXdUOLxTI4GEk0emimqcE0ZKXmoKqpwvXpxIRJT87E+ft/Qx/DOHriKbjk8B/h0qOvxXkHfAMTCqdJwZaiLQnsN/oIHDPpNK0QDGPyJuKMmRciTdKxWCyDR0ekHXPXv4mq5i2uj4O5z2ycCjMD1rn3tiwWyyDjsVRptaYkpYhFG0RrR7Pr24kR86yUbHz5sCtw6THX4dQZF6C6uRKrK5ZifOFUXHXizdh31GEab0eoTbvMZ4861NlOBP/zB12KYTmj0S7WtcViGXhYro1bUblAGt1GmJ0S7e25IirMc9a/rgsWi2XnkxJMxXARzlvP+x9evmwNnvr2Ivzq0/di+rD93RBESrgwbei++M2LV+B/n9yD55b8G39+7Tp8VPoWzj/wm3rfesmmuXhl+eP4xhE/FsFPx4nTPouizOF47OP7EIpYYbZYBhuOzF5TtbSLGHM0tlmOPS61rmalelgslp0Ly+bm+o247ulv4LuPnI0fPnYh/vT6tVqYb7vgCZw56yI3JKXZh7+9+1s0eB7BaAk1473ilzE2fxIyxKoORyN4cel/9GUHvzzr7zhv/2/ggQ9vRWXTZg1vsVgGn/W1q10x7uzGJmZehTm+v9tisew82kNtWFO5TKzdeVhY9iFeW/EkfvPSlXjoo9vx/eNuQnIgxQ0pBbxmtTvXSX1Ljb4cKDUpTTvK+CjWW6ufw7GTTkd5QxmWb+78mpzpXqOzWCyDQ3n9JncuMSrMfDuJxWLZubiN5oREZOXSTfORn1GEtOQM9ZO2NSYUTNN5L9lpebrO3KMuzBiGT8/6Ev769o361ZtjJ5+p1rbFYtk5tIdbY9axcYQjsnWq/y0Wy07HSCVHVU8qmu4udXLExJNQVrcOdS3VukxxvfSY65GZmq3LJOhPwhETTsKmuvVoamtAkix/dv+LtSucFjfF+YIDv4VxBVPdLSwWy2Bj2uDszjbOiwqz6coyzmKxDB5uYzlWWA8Z9yn87PQ7cNVJN+Oz+16Mc/f/Gm444w4cOu4EXPvU1zUMLWIq+Scb3sdNZ96jYU6bcQF+fPItOHLCySLCt6GlowmHjz8BB446Cg9++Ge0hVqxqOwjfLj2dXzxkMuQkZKpaavTWC0Wy2BhrOR4KNKBnKy8G5IPtl+Qslh2FiyIoUgIqyoWi5Vbj+WbF2Bl+SLkpOWLZTtFu6/L6krxzzl/1PvOJCMlS0T7K/jja9dgfe0asbBnYGTuWLWoH5p7O5ZvWaBiu9+ow/Bu8UtYvGmubscXkpTWrEGexLmhuhhN7Y3qr+1x2yi3WAaFMTmTcfTY052Xibgu9tYvqQ/0zV+Zl3a+e9disQwO3TSYu8CPrDMgH23yBh+SNQL/+PIbuPzRz+jzy3wPLws0B31tL7a3zGIZeFjujxpzOq4++s/6xi++lpOibN4AxnJs7zFbLLsA3WliR7gdHeZ5YzdQZ9iozDtL/PCMfqZVlywWy+4ARdg7jQ0C0/8Wi2XQYVk0jorqXY53ul63ohwDLe1NeGLBP1DbUuV4CrFw2+ksFsvgoFax6bb2FL6YMOcX5uqMxWLZfWhoq8Nd7/wKFY32RSEWy+6IV5CJV6QDyYG0ARv81Zd7aBaLZWviymwXuK6n9RaLpX8YqHI2NncKjh53euyLUnQU5UEZ/GWEmd+XtVgsfSMa8SHU0fcaISml6ycdLRbLjsEu5UjU+aRqf0NdPGbcGfjJsbfHBnzRmdHZgyLMmek5uO7b9zsetpVvsfTKsvfycN3JR7hLPRFFdmEb7i1xP9lqy5fFsmO4xmTxhiV4+Llb0NDU/19djBdmjsqmIHut5kEb/MUuAdYb1llnXe+ubzih47e1zjrrtt8R7/zA0NltbTADv1ScdW6gcdNmFWJ/9md/vf+2B+/29md/9rftP1qQTulzTecBgml4RTke+7iUxWKxWCw7Ab2f7Aq0d94Ks2WXgV05Wzn+vPPeZXE7E28+enK7EpKjzl98Xj1+Fotl4GBZIxTi+PJGPyvMll0GXp5bOfnXZd5d3lXw5kXzmMDtcsRlLJZX+efxtlgsA0Ssw9wVZWMpE/pZYbbsWnR/22XXQ/LqKU8x6OV4G8nbhXDFV3Pl5n2rXUiwTxaLpX/xirHB+A3416WSk1Jx7MGfga9L/SSJ70jhd1sZika1I5FZEtHldOmC14fHu0sI93x6z0PX9fEtRFU0zrtRReRfeySEunAL1ndUoaStCmvay7GmrUKWq1EeqkNTuE039ctGftneSdKTpue6SHTRby+m2wlRN7OCPxpBINSBtNZ6DK1bjxGVqzG6YgXGiBtRuQYF9WXIbKlDIBpGyH2OP+rzO1t3RpMwn5Xr0/DaA6PdpZ5JSQ/jM1cU67yJa6uuaPH2RaSwt4WR1NSOvNXVGPbxFox4fwOGf1iGYfM2o2BZBbI2NiDYGkIkKO11vw9Rurjs2bJm2RuoqS/H4lXvo62j1fXpX8blTsWxE87UMmsek+riBuU55kvvj1VEBia+3bgVD/8zlh2Ky5KQLqdLjnfc6dsa9xSYirtTgN1zlMCf8+3REKpCTdgswlseqkcDxdcJ6sKFztS5lOFLwbBgDoYmZSM/mIkUf1CDeDfrz2uCjQZFJgFpPGQ1VyO/fhOKRHyzZd7vHh8nSfln9tGlPZiMqqzhqMgZiZrMIrSlZLlrEueTzzH/9OTD3aWe4XPM95W8ovMmLh7XWA4iUaRXNSO3uBb5K6uQu1YaCyLQsVRN+p5twil+1I/OQeU+Bagfk4PmIRmIBpxGBRtEFsueipYBKQvFGxbj4ef+gPoBeo752HFn4trj71BRNi8X4fzgvmCEwqweQEdrB5a9vQztLe2O3w7AHRgxdQRGirP0LyP/9x4KPlzlLgly7lh1b/z0wchbuA4Za8v1Iq4+ZDI6stIw9LWFUtl3VtoqwGJxLfj1l7Xujwmz+S9/WzrqxSquQGW4UQSaX1CSUBpMN4htw8CiL51LKiJRpPiCGBLMwsSUISgMZHrCS9h+FBAKs0/SzBALeHTFShSKKKe3Od8xZoY5VIP7RefNs+OITGX7UCCI+vQ8bCyYiC15YxGRZW+eDf0lzLR+h8/ZiKKllcjc0gR/SMxmzW/P6LmTQBEJ2zQ0HRUzirDp4JEIZST163G1WHY1tMTK9T9YwkxRNoJspirOg20xN1Q24K5v/w115XWOx3bAqFg9+KUVf8LXj8dxXzxG/S39x+yr/4kxj7yj8zFbSibz//Q1tIwqwIxfPILafcdh5eVnYsx/3sG03z8hAVjpm4pbthJhfnr1XdSCmD8r/ZBI3crWzVjVvkUEWaw3fktY1mlL0a34daLJ6sa6XcxL5lV8eIEJcjljn9ThmJoyTJdJfwoI9z+vbhP22TAX6S0NOjDD5wvwv3ZP+9jf2yU9k1NuKVP58yEsExHGaAQhsfA354/B6hH7oSM5XbfwssPCLL+08mZMfXw5MssaERBB1mPLdTLtyeo1x1SPMSfMdVAs6GGZWH7+dLTnpznrLZY9EL365dofDGG+7oQ7VYy9wsxyqstu2AGHdQFdNBJBe2u7WsxdXLPr4v0TueY2tIlj+HDH9n8YfleGFeRasUzff2wO3nvsA7z3vw/wvrjGuiY3xOCh4wO0wo5in98+Bp8c83f/dzUW//wiFHywAuPve42r4mDlz5PurKLVGZE4WqMhLGzZgGVtmxGSiE0L0e8PICguIPM6FWvYz9akiAL99AJ21/tE8P28iMXRKg/7IljUugEft6xToe+PN0czr3QIhzCsai0OWPMmMlsbJTmmnyT7JdauTP0+sSID4mTeccni2DUlU1nn9yXLvBOWy5BpUMrAqMpizFj3AZLam/XYODK4Y2hjReLOKanFjIeXIHd9A5LCnmOsx9Acb/eYepzxM2F1KvsbCEnDZH09DrhjLnLWVCMajjjHxmKx7DAUY5Y1M092+qhsFm/j+opjl7HS37Mrh8VvLMFjv3kCj/3qcTz26yfwP3G1mwduoF53eI9y69AcBKVRlLaxGsGmVqRtqkE4VURI1jmXVDdIJCERzWWtZVjbUSVCxYuPIixOFjil5UzxpUjzQg2KVRoQPy4HZF6n4oIidCrWukzxkKtBpus6qrG8rQwdkk5/wPvJoypXY+a692We+ycCK0LrCC6F1pl3piLAvhQVYh+SJXDX9YAjzOpEnCnsRfWbJO4PkN7asE3Xf7fICcgprcOkZ1cjs6JZ0nKOiwpsN07DuK6Lv3e9TGUBKS1hTHpmNfKKa+DjvQWLxbJDsHyRWE+Vy04XZpKWmYrRM0dj/P7j++YOGKdu3H7jkTdsD/2etKtyvv6psvsJH0ovOBpRsWJnXf8gZl73L5R/ahbKzjxIR+/2ltPlbZtUlLlvtMR4K6JTDIzV5lpqMSci7IZ1rL1OgaZ/QK1TCSOXckTiLW6vQkl7hZvi9uOLRlBUtxHjtyyDP0phCoonhdkVWtciVqeCTceuKDPvCHAsDLdx5zunQRTWb8aUDR8jtb3FTXn7Sa1qweSnVyNrc5PEb8TWFV5O2dMgxzC2rOu9x9pZp/MMw3k97j63AeRHRmUzxr9cgrTqZjdVi8WyLUixcv85gmxEmeXNMGj3mE2SdVvqcNsld+jUMOHA8fjMVZ9GztBcCdeZue7hjjjhkpKDCIpLhI6mddWCod1ZZ97jYVLkYnf33+K77sxBdHy7ruNifCxxIWIwGrPPGkb+RX3O/dRn//w83nrwbe2eVH/xu+Lh72Hk5M7BbrqNRGLSM1MnrrgOUk1LcD27rBO4zjwes+/VD2Csuccc2/coNp1yAPLnrkJydaMeg4aJw9A8ughDX1+oIWL7IsImBxNPr7lblzd31OGDlmKNnxU/RZX5ZoWvW3EfnIOhcbjZiBHLq7tP5oKmi8jx0amkqenK/DEZU5EfyHDjc+LsCY2/8x9S25qwX/HbyG6pk3xRlEV0RYApphQoLsueuLE6+0L4P5ZXzrlxRiFWPPPHq5IWfTTk+oXAuZKh+6Bk+HRpXASw7P2+fl2K95hbcV/Jq/CHwpj54BLkr6l1BNg9nnQ83kSPr2dq4HLnOZYsucfVO2+c08UfQdXUAiz64kwNY2Lr7RhbLLs6TnEd+HvMx40/S+8xs2wmGpXtlNidDFvlKekpajn3zaXF5rsTZeJUE1GE2jrQIEJSXVaNytJKbFlXgcp1lajZXIPmumaEwirhfYKjyjmArb68znX1iHRE3PuwQLg9jMZaSWtTNSokrXJJi1OG5X1xnpUu1ZcnYQpwS0MLmmub0SSuQ/LN8NyCjr/WhlY01ct61zH/rY2tWml2hds5sCJtbWrVvFaur0KF5In5qlwvx2BTDRqqGtDW1OY0PrhRXFSd9bgP+R+tRMnFJ+DNl3+ON5+7DlWHT0PBnBWazy7byTZG5FsiHVjcVqYRGWuX3aM6pTUs8zHnLnO9dqeae5+cN34Sj1nWdeZ+qAqSX9Od28r7zaGE+5MQPc5OQB5Ljr7OUVF2LFt2XdMy96s17Dg/xVqsYr2HLDa7OvU3y46g06mf2V4tbLGaNXwSgpLhETWlyGrmbYq466NHmF8e6CiGzd+CnPV1crw6RdkcHzMfP0203szzmCYMJ46NqsLlVRj+0Sb3uFkslm1Bq0v5Z8pcPLuExTzpkIk477pzkDc8T8L1vVrqjRYRo5KPS8StxcblZajaUCnC14qwWBfBpCAy8zMxZHwRxswcg/H7j8OofUZJ64WW0NYY4Vvx/kq8+cBbIrLmca8oLvjFBSgYmYf1SzZizdw1WLdoHSrWVqC5vkUHpyWlJiFvRB5GTBmOCQdOwD5HTUNqRqpsy5OiVavSLEL70t2vonaLWD2yvHn1FhFPb7esD5MOnohUaZAYmKuisYU47bunMjaNT/3dCpP5WDOvWPK2HltKylFXUY82Ef9IJIqklCSkZachpygHhWMKMHTiUIyePgrDxAo+5KZHYxazpqL778Oqb58qwnw88uetFgH0ofrAidjn5icw+n/vabDOiyyij9s8teYufVEIB3tF/VGp2ClSnspeQsYuTndb40eYquIef8I53b84R8uZjZBIJCzLPsxMGYZJyUO7xNcdJk6S1VKLQ1a+hiQ5Ro617Agqx39rdzW7tRXm39xs4JwXx1cHokm8TiieE8dijtJi1nvhMpWGC6driyZjxaj9xGLOx7Xb8D3mh+c9g2mPr0Reab0KpxHRRM7gnSdm3714j61xsd4JmTYVpOGTi2ehLSdV9z0+Totld0NLgVzfAz8q+yxcf2LiUdk6P2hv/nKXaZl9+ORcnRryR+ZjxrHTkZaVtlX1ti04VYvzf9OqzXj6D8/gg/9+oGJavaFahTLUHlKxpDXaWNOIchGr4vnF4kpQL5bwkPFDkJKRIjHE5cRdKF28XvL/Eao3VqNeRI7ugDMPwNyn5uPVv7+KJW8sEYtUGgBMq03SkkZAR2s76sRa3bh8I4rnFmPD0g0YKQKYkZuuqZh0mL9X7n5F88J8tYg1TGgBmnFu1RtrUC5ia1zF2nJN49DPHOIEIHJyuZ/zn/8YL9z2gk43LN2oFjOt65Dsv+ZL8keLmwPK2HBZ/eFqTZtW+yEVtciX/Cpu2ox3xZWfRt78NZh546P67HKNCHM0KYCid5fBJ5W11s288jgRi3jhZaditQiz2P+uGDsXobkAOY052cZYe8S7zrscm3enBmde0pYJcxAWkeZzzkm0zGNHuTvMTgJTyxYgt1kajhRkHbQlU7XuHZF2Hu/ijx1OdJoTZ1nzQOeso5+TRRNGpu6yzntIa2/Apvyx2FSWhdf79OYvH1LTO3DxmfMxcu5msbzFRxLzHldzPJ1j46w3816Mv9clwvhzGpDrqD0zGQ2js2N+FsuewIC/+SvPefOXUyc65bXLvBtuz4CCIH/L3lmBe753Hxa/tkSF0xEKt+LVMO68C4WaluWb/3wT/7nxfypUtAq2gvVOgrrnmVueUVGuLK1AOMznVbtuy6h4sPmjYC97ezn++4v/onaTNIi6pBO/ZSf0d9Z1DeEsddpjJBKOYP4LC/DMH57FemkEsBFiLJ4uOBnjjDpuxy74VGmY8N59V3gfEkipqNP7mRyRnew2HJLqmuATPwdvGhE0R9tRG2mRC845Bt5uVj0mriPeZeNn8Pp5w9A5FzSn7jwtcslvU7QNteG+D6pi7GkdTRhSVyZzRog5ZS+KO68xM6QryJ58cN74dXEqzm4Y3c6N08StYh9ASiiEoTWlGntf8XVEUbCmFkkdapvH0omlZ6YJ1nXnvHA5/lyZZT5GlbuuHsEWWvwWi6XPeKpJU64MWsbc+T0D2dnV84rx9B+f0ReYqFDxAIgLBIPILspG4dgiFIlVXDCqwLFYpTI3ULhWvrcCj//2SbUs+wKjL/lknYqaHFLtjsjMy9Ru+fyRecgqzNJu865EUbqoFO//533nPrILK7ycIdnIHyHbikvJTNXuYudmrTiZz5J9yBue2+mG5SFb0nBwBJoNhLf/9TaaG0Q4uanufwC5Q3MxfPJwjNt3rNt1PxJDxhVpHgOSR+5/blEO9j/9AI0rBrOgMUeRuqUG6885HB/c+z289+hVeo+58rBpmH/r11F56BQVbyeks2FluAFhH0WbXdgiRCqiTsWeqNu1N7zhdF6mEoPrx6kbn5zXtmgIddIoSNjISgAPc15DJfwS3LGKGZcjnupYXCRu7Zjm1E2z0yVGw8q2eveYedMcG1H2Tv0YVbXWPXZ9IxCmOPJeuHMs44+nd7mveLc328XHY+YzqlqQVjMwVoXFsjcQXz9xeed3ZUue8kexK3sG0rKc+6694+6I2R9uIvMtjS0iymIlLl7vVBzOWhXhQ889FEd9/khxR+CgTx+EWcfPwJjpoxFMTlILmYO2tNIRxwFi7Arm/VxfoGt+Nq3ejOXvrtD1intQuS3F9MAzD8QR5x+BQz57MPY/ZT9MPWyK+jfWNKFJHNFN5B8HeE0+dLIIeYb6B5ICep+beZt90mw9RkyPOdCsyfRz13wGR5x7GPaV9XQMt8+R06SRkeGEE7fw1cWY+/Q8mXd+HCA347jpOP3y0/Cpi4/DEecdgYPlGNDNPH4mxu83FgUj8xEJRXDo5w7Re/7DXlmI3CWlEltXavaXYyL5V6npCCF9Q5W+6jGSkow8aWxkrCt3Qwoiji9cephYriGt2J17KKzkWalTnJzjRsy0r/S+nWYSqWLpsjtbR4H3hHMaMbJ6HfKaKHTMK59XdruvVZQZBwXKmTKBbcy1ON63dmZ1Wx5MTZv/IkgKt+Hj1hl4+V/j6akkJ0cRNh0SLmnpEjriQ7q/DT+c/UaskRMvzPHHp/vj1T3ebeIrEZ776gk5aC6URu52xG2x7IoMdle2KbdEl2lJ7mzYldxU24SGqkYdIdy7a9QuYcJqwrhFry/B6jmrVfgcPx+GTBiCM39wBk76+gmYcthkbQTkiNU5ZNwQzDphFs6SdSd+4wS1sGgVmrjmPP4hVs9d4yzzXy9kFWTis9d8FqdcejJmigiOmjZSrdNJh0zC8V87Hp/+4ZkoEuvUVGycVJZWqfDqsjhatcMnDcNoaTCMFoFmnPF13dAJ7nrXsXHBfTEnlfFsWLZB5w3cXzZKxu83TgeOMSjD05LPGZIjjYMp+NRXP4XzbzgPB55xgBy1rStYJ3ofxj/4Bva95gF9nCrmuCyOj1EZTAwNkXbd2PRMaD657M4btz3EtnWd936qiqdMW6Ideq+5L/ijYaS3tag9G7OQXQHmVHz1x2Xnf9/QsN58uXE5cTv5dOYDuiazpV7mHbjqa9/wYVynTiO/IIorf+jDyJFckpjkpOtxcDFpGTrT7vTrC95tzDRe+IMdEaQ0tMfGQFgslt7xlkSWI6MLsXKm/3cmkg+Omr7tK7fjptN/jV+e0Tf3yM//qyKkuDOv/O0VHdRk/FPSkkWQjsL0Y/aB34y29lYgknZ6TjqOvvBI7Hfqvl3WccDWxy8s6Bo+ETyO4miNTjlsko7Ajt+EosRntQ84/QB9nMXAka0blmzoNYlthY90eWH3sT5W5lamieAja+xZSE5PkX3eOkeOTxTJ0oBK21KT0AX4OJjBTaYNHUzWOUyavhGl/kPj1plOwdBF+bVzdLgu9YJsEoyE9G1fRiQdC5mxUIzcQP0C4zFxMQ1H7JxE/Ejt6LwvzgK7aiXwy98EMGWKXK9iKf/md0FUVwFbNjtnJba/MjXzxDu/vXgtZG86zoz+IakpJMLc31exxbJ34S2v/nDI7ZLdmUiZjoQ5+Cis3am9ubA4vq/XCx8HqtlUqztH44y7WDimEPufvp8sSOXn7rPZ9c66RRKXhdMuOw0pGWJNcpF1jLjy4i29f2xDwuUPy8N+p+znHFj+uU4TU6+oduPSGs7M77SCGb5W4ncXdxhmm+QOy9UKVStV+eOzyq/d+7r2AFSVVeuo67A+u613PbfCxGPQZddTexU0bndJps68sz/quMb14wcr1Fh2/Q1OWHdhO2ESdHrcPTjJOddBmI8maaje8UtDSb8TpXl1f7G49UrpY0zd03nEnanmlT9zr1nmg+GuZfKVl6O4644I/nJHAC+9FsDrr0Vw951RtLczPidHzvHsdAbv/PaQaPtYOsy9TGk17/CBsVj2IrwNXjPv9dv5FjNxaqc+w6CxCkn/R7fqviW8R5ycmsw91nCxEcFupcIpKxbCQVdjZ47uzIv4tzS26vPWToju8GHiIRPFIncOpWMPuvG7jlYiBxZlFWa6zy8zeidWfpSD9JxG3zC7w+5z77POHJi2+I2lePDH/8Ij1z+KJ295Gi/d/TLefeR9LHxtkT4v7R2EtlVm3OuFX4uqmzlWX8HJzz9WHjIZ4bQkJwAvKg3HTLAh5AgZ998cFfrFKnQlPqFtg1vHYnLjdhccY1fWOue6b7hXCbfSOJzYGZFMuezu1w6jcTG/jJtxcioTTU+Om7tsyMkFpkwG5s2N4o3Xohg5yodRo518mP2O7btL/PKO4E3DxBubxv5ZLJY+I+XHCLG3XBm/rjXATmZHyjefE45n+ETnM4Aar7O/W+PxLxhd4M453uwS1tHZ7kFLBFcVjJTtNEjPexBIDrhd6p3hvK2kHYUxMbrR00di/1P303vWrq+kGNX78nzhyryn5+PVe17Ds39+Do//5gk8eM2/8NBP/40FLy/UZ5x1kzj46b8VV3wa82/9Bhb94gv6ZamPf/81LLrhQrQVZm+1ie6heCZx8BSXPRdfwgT6ic40OPVp+pKy49UjPkT8AX0lptlWo3LdAOa4i+OvPciPXjhwf75zmR+pacAfb4ngVzdFULouih/+nx/DhnObrnTuf9f5gcDEH0oNaMPTYrHsGKZM7QLCHMW4fcfgO3//Nq5+6sfiruqTO+/6c7UqI6zMvC8sMfhTnN3rsVJ1I+GE94djqAUodjm7fHsRz2CSpKPBuw/H7nHHemT3b9dwPcfed8zxSM1Kw2mXn4aDzz4YvoD7mI671vnvpEgrmSPF+ZKSpW8uxUPXPIS/f/fvaKxu1PUGXiubTzkAxV87EenryjHrpw9i3/+7D8NeXYCysw/F+nOdt1TF7we3S9cPObgeA02X4yp7Lekm84UmfcmAbBoKJKGDoqjB2ScjM6I4ztZ9iGOHcOOXvLYle97sJvv0zJMR3PbnKCrKgZYW4JF/R/GvB8NobXX21yvA/dnQ6xUmJWm3Z6bIxT3Qx8di2YPooZiyDO8CwuxDMCUJOUOd53cLRuT3yWXnZzkVklsfsCs6vu5sKG/oc3XK48Q3Y3nRL+tI3nqD1oJmpbfEJBG1iTwBY3Pi5/XfHhg3RYgNgLSMFH206rL7v4tjv3g0Jh44AcMmDUPu8Dx9wxrveWvq3HG9SJwrhQPxnrz5KTTFffe5cfII+MWaPujbd2DE8/P0caqZNzyE/I9WoWVkASI6uMwN7EJhy/bvrA/rO5nJQLKOde4VaTnxCDSlZGq+HRNQT1i/4o1Oj3hc/GFpSDSk5rhLDsXFwKmn+fDT6/z4+U1+fPUSH8o2AnXuU45hz4DCHb2GtglJqiM9iLasZGdfLBZLn+itmO4CwrzjsFIoGlu0VR26Zl5J3ywI2ZBv7Iq/T80XfOjLOwaxrutvRu8zEmd8/zRc/Icv44u/vgjnXX8Ozv7x2Tj1slNw5PmHY8ysMeCobUX2k/LEd2uXLlrv+BE5hCnltYgGg1h34TH6fuyafceh7IyD0DyqEEm1TfBxMJ7nUPO4s/s8zxXmwbHknBOl/yU5NlCy/Kl9E2aX2vRcRPQer0TQJcuDkX+gKqNAxbkTH0482Y8TTvJhwYIoXnkpisIiH77yVR9yRL8jIsqNQ53n4HcGLbkpaMkRi3k3LiMWy2DD2oSNaG9D2tSR9NsjhJmM229cbACWgUJbtnKTU2d0V3HwWIhb9OpifQ+1l+xC5y1bg1Qn9zPuDnMiQpMsFjSfo+bAMN5/PuYLR+O0y07FhTd9Hsd/7VPgV5zcy0K7t/m8uIH+w178GPlzV2PFjz6D+X/6Bub/5ZtYdOMX9XWco56c4whzHD6xOrN9qUjz9d7r0D90nijudoqkmy3C3N2p3woJWJOZj45gZ35ZWAaqUaH50rg74y8tGNPlcmO5PeJI4P57I3jmqSjefDOK2/8cQUaGD0OHOff+q8Z3WtiD0wDqpLEwXcW5S6YtFkufMPVLfLndY4SZb76afeK+Ws+ZHaW4vPXgW/p5xGhEv+vjfk+2c54/fs3pPzf+V79MxMNDx1bLjGP3QRJHde8UpDXlWrLek8cuZrMPXI7tj/GTH6ehUEhHYzOM/HN2SiNzJty/5LRkvX0wWcRa3xzGdbHwZgNHQFLlWB568Z+w/w/uxZA3F6PwveWY+scncfhFf0DW6k1OQA/OCz6iyPAlI8+XLj7Mb5+eKN5OuOfMtuy/u5NZvhTk9rUrXTbh/of8QawtHOvG5q7gEdBF47f9ODHwv5sCD64e6wiaktNRmVVE305kfYYYxGUbGd7phWhuAZoa5ZyIHkYCIswTctCauXXjR899PxKLTyacDycHUDk5TxsHFoul77DY61TqYa8z7P4lSusKp8I4/qvH6SNJMUQHFr22BC/d8bJazh2el+3zEDTXNmHFeyvx0DUPe9YxriiGTRqir7vcaYhKZBZkxn1v2odPXvgEbU2tmn/NqVSQDZX12vBQZMIGyX9v/J++nrR4Xol+dzrcEYpdDF74+Uq+t7uZ95QZQC4OvjebLob4twzPQ/VBk9VCHvnUhxj1+PvIWlmGuplj0DSm0A3oxZGRZF8QQ/yZOtWI3MrdzW2/0UWDZJ6dQaP9efJ/2y/x0vxRaE5Jk2jYPc+IHUF0cu1NqD9w4gxLPtcWibVsbisYZPXaEmD/A/gedj1BGC6WcrK0F2v0HrOc/6HpqBnbOcaC18TAibLTQCB1wzJQMTlX5y0Wy7ZjyqopX2a6B3320afb8zvDfNkIX0RCaDXyc4slC9Zi8+rNKtDrl2zA8neWY+4z8/H+fz/QTywS02DhfeXzrz9PPwFpMOu2ele2MPmwSRi37zid7yn/HO286LXF+t5sQ+HoAux/2v7aWuqypZyfVjlGy99Z0eVNXluKt6C+okFfYcr9Wfr2Mn1DGV9eQquXrPpgFV6//3UdyLXs3eVYv3gDNq4oQ/m6CtSU1aByQxU2yXEonleMj56aK8dhngi0OR8+5I8qwFkZSRgrgq9IXjacfQiW/OwCbDz7UGw68yC9v1x2+oEoO/MQBORYFMxxXsfZ2eqTi03mV37vLO3Kboi2oTHa7qx399XbQtw+zMUs/zQqmeFFLnPDfJkYHyxwjiuT7Hp0E+LEJteMP6CW85DGavc5aH8sDo1nB/OtPROaV+23UVedkY3ionHajV61Pg2veT77ePAhPlz0BT/GjPVhv/19+PLFIs4jfNqdfcBBkAZkHRqTO1C0phaBDn56U3Lpcf2JOUYhsZYXnzUBzfmdtwr6Oy2LZWcx0O/KHps3BcdOOCv2nmzvq2512Q23+6L1pFaXCAYDOFQEZPaJs+G8m9mpRmhNUsQ+kgbBq39/DS/d+TJeu/8NLHp1kfMVKreVQtIyU3Hqd0/F+H3Ha5zGDT4+jJs9VhoHbtemmxE2OCiktIafuuUZvHbP6/oN6JUfrNRgIbGMX7vvdbWECT+UserDVXjv0ffxwu0v4onfPon//fIx/YLW8395AfOenqcir4dKXCDg13d9j5ymL2KOwY9UhNJTMOu6hzDzuodlKu76f8v0Qb3/TLXpWi/znDgeQV8AUwNFOj46GmGDyT0v/dC1HTtzbv55LjOQhBlJw/TDFU4eumSsWzSk/KMrzynCppxCidKIpyP4nVPH9YUu4fVa6+KD9kBArPSRaE32NkyddZyuWhnFs89GUFUp57MZmDMHePlFsZSl3dTe7oSvFot57UFDdd5s6m2J9yeMc/VRI1A3OsvJLf+ZbFsslj7QfYFh+drthdmp/uWnNSqQkZeGz159Ng475xAE0zqfSTWteb5LW79PLGJt/AhbKbnD8mTbz+IAWrAB2VTWGzf4RPUe8BnfO8N9i5fkgY/wuPU5exz48hO+EIQWdfH8EjTXN6OhskFfucmXmShuxcyTzf1mmGYRa75spF2207Vu3c1u831PmY2Tv3Vi1y50STapoRmZJVsw4vm5GPn8PI+bj5wVG5zD3AXXhxNx6b5k7BsYrmLJY6+iISt06uZxW+H2zDu3duKJIFlO3PTgMO06d5NW1xuxc+3+2gNJKC4ci/pU9kKEnTyahgSn25BnJw+6t+JE5Gkp6/bOdH3+CGzKFVHV9B04MDsnJ4p0Sf7556K4669R/O2uCO77exR33BbF3++O4t57InjwwXZUR6p1dHbxUSOxeVIOItJI0uPhxuUcm77n1wu34zvdTRyMZdOMAqw/YIib386fxWLpGywtpkyy3vHOk93fYvaiz546X036zFWfwYU3XqCfO+QXpQLdDFBJzUjRr0Ad/JmD9JGi/U7ZV59fjtVqOw3nBI2aMRJf/dPF+mWsTHZVx9d/sszvTGfmZiIkwstR5Jf+/ds4Taz+aUdN1cfIUsTS7a5xwX3lu7WnHj5Fn3u+4GfniyhvPZBo9H/ewVGf/bWbPA+OcfJfjjuvK/fa2hquk0mePx37+IcgBUFny2436COyPWMwgsF4J/uLkOfrn2enG9KysGzYJNSnUJyZhqSi4qypMmEG2wY6w9MK75DGYHHhSKwcOoEl0l3jMHEi8J/Hgvj5jX6ce74PEyexN8Nd6eJsweta4pUFvjJ18ZkTsHlKnvNsM4/Ljh5jF8YTkSg3T87FqmNGIZziHftgsVi2BdYlpk72ltGYQI8ePj6aeWmJLvQ3TCMzPQfXXXp/TE/am9v1vc3tLZ33mPnpQX59SQUkFnLbcfapa0VE65H3hSvXV6KmrBbNdRyhHdFXY1LQOCqZn00cPnmYc6A0efknkXnFzKn6nU81lnyyVgdTGfgs8Igpw3W+u/zzgNNaXf3hGp0acofmYtqRU2XDrlt27oVTudaLJbxh6Ua9H87ud36EIjklSUW1aGyhdj1n8gMZ3MTJvg5uY375EYu6inq9x82BY0yLj5alZ6e5xyBfXz6in5l0c1EwZyUy1zifpHTwHtdE+8j1cf6SzrqLju7cVJb5CcYtkQasjlah1Rfi3VuukFXu9nHHYWt4PNw5meEsLdDUaBImBwowxJcFfrCxu4ZIX9Ek3ISyW+qxz+YSFDTVS34phE6eNa/i1HJPhG4vjnlx55lXbtEqKltSNAIlBaMR5v0lWWv2fNl7ebj/ssPw42sCuOdvERx1tE/vL2/cENVHphYvduOV8NmF7biv5GWd183FO622DRPfLcOoxVUIcFCgHlNnfXxl0N1xMseW+TbzG2YWiFU+Ak15Xd/3brHsKZhrvnjDYjz83B9Q39T1Edr+gEXv2PFn4voT7tIXPQWDQS1LnI/dbx5MYTYVz86Ag8J4/5WDwTRjYl3wnjTfJ72rVzCmEiV8EQq7r9kdTGs3mCT5lxNJ9Bgn2BduH5bGiH6di49Qyc/vkwtAtteeBG7j/A34OWJe+DhXI9qxMlKOGrRIoo4wEW/+4/fFHIfYVItRFAVIx1SxxNN8yU48enr7bz+Y37SOVkyo2IgxNZsRNKdD0uCPg9x45CRjrr8z0ewpTj65nr/mpGQsGT4BlVn5iOi5czYwmxlh/v6Vflx2aQQpKcCQocCpp/rwuXP9WLUqijv+GsGypdJoKKAwv6LbmePF4xNsC2H40mpMfX0DUto77+XHH1PvNpw3x5Zwnq49LYBVR43EhlkFiHhfW2ux7GHo1S/X/EAL83Hjz8J1J9y5lTCbqVOj7wXwsVreN+V9W35zmF+dcj7y0LWi2lVxq3YR04Dmnb0LSWIxx97aRbrbFfFnKyzJ3f+UNNlWKtiAiDobKBrEJDAI8OLjM8b7B0Ziir8I6VG5MCVtXrD6LLbreG/T64w/s0lBpJU8BUMw2z9CX705UGeS2tWSlIqlIqbzR09DXWoaQnI8mRMdwKYuLOnTGnYbfvTjvC5HEJa5NmkElRQMw9uT9seWbBE5jyj3RFsbUFoK3H13BGeeFsaCT6K47fYAJk3sZlvx7kgJonT/IXjv4n2wYVoe2tL82hUdO4YeZ46t9xjzPLQn+1E+MRtzLpyKtQcNQSjVdl9bLAOJaRzvNcLshRWt1ofidH43wZPtLo7/et0PN7A7ceZ1ZufAtNkuHOvPwwEq0IUY4stAtggsR2+rJSrhRCacCzXqE/8gsuT/MJHhKb4CHBQYJdvniq9zGTv7Jr8B2DGNUhox5TkFeGfiflgwchJK84aiKj0LLcFkhKTlp30RklcKMSW5PRBEQ0oaNmfnYeWQ0Xh//GwR94kI8c1iPeaRe84Xi/gwa7YP+frRM8cvLAp/z9+iOOezYaxbp17dwhSa8tOw8KzxmP/ZyVh78FBUjM1CY34K2lOcN73FhFgCt4vwNualaJhiCTv/cxMx75zJaOArPyW//X9ULRaL1hlx7DVd2ZZdnw6xOlvRgVaZhsTGDIt0UOwouxRxsfGR4gsgVef8qm0785ryRcJI6WjXbu7kcAhBWfZT6GRdWPLZEQyIlZyM5uRUdPgda1PLQS8Nh2Xv5eK2iw/Hpd/1q7X8wrNRzJunTRTZvmtbOruwbauu7J5Irm9DakM7kps6kNwm+e1gE0LymxRASMS6PSOIluxktKUn6WAyZrjzRoPFsmejEilleODvMZ+F692ubHNv2XRl631mN6zFstMJitWZ4UtBgT8dQ/1ZGOHLxkhxnA71ZSHfly62coqK8q6gFfzYRYuIblVGrljFhdiQO1St6NK8YSjLLUJFVj7q0zJjotx3fNiyGfjNr8L4858iWLhw6xb19tKalYzaEZkon5yHDbMKUbpfEUr3L0LZzAJsmZyLGlnXmpnsiDLpv6QtFkscFGLjvMtWmC27DiICvNfMS1Sd/KO15vwc6KfrdgHB0MfK3fzEMug2Gpg9p4eKBY3TbSMihmxzE5yXiHQYa3k7IuoBZyA843RuG7iz6nTCKWcsFku/YoqVuZVkMMtWmC27DLHWo/dn/MQ5r8f0+MlvZ8JGgzYcuuTL9ZcZJ78shJ5lBugTDMfiqVur6yzO24/Jh8lLl+VYSs4687NYLAODU2d0Pg1hlq0wWywWi8Wyk/BazAYrzBaLxWKx7AQoysZK9uIPBO2ziRaLxWKxDBbGRjbd2MYZrMVssVgsFstg4oqwEeN4q9kfDnW+89lisVgsFstA44hwfBe2wVrMFovFYrHsBIzF7O3GJlaYLRaLxWLZhbDCbLFYLBbLYOJzrGRzbzm+S9sKs8VisVgsOwGKs3FerDBbLBaLxTKI0D7ubuAXscJssVgsFssgYizk7rqy7WcfLZZdjIr1qXjtgVHuUs+kZIRx9veKdb6nFrjFYukdlUsRroH+7ONx48/Cde5nH4PBoJZd8/lHOivMFovFYrEIO1uYYwLthrVYLBaLxTIIsAFgRmWT+KkVZovFYrFYdgLmXrMdlW2xWCwWyy4IBZrOCrPFYrFYLLsAtivbYrEMKuEQ0Fwf7JNraQjErAeLZY/Dc1nHX+MUZzsq22KxDArL3s/DT0863F3qmezCNtxX8orOGyvCYhloVCJFuOyobIvFYrFY9mLiG59WmC0Wi8ViGUTi79B4u7M5v1O6sqP60xn46HwBpESSkR8pQE4kB2nRdCRHk6XVIO0G24tl2aOIoh0daPW1otFXj8pgJVrkF/aFdZ0USS0U/j3wwrdd2ZZdHUeXBr4r+1h2ZR9/h3Zjs+tau6/dt36pc8MOPpK55GgSCiJFmNo+Dfu2749xofHIjeQhJZqiIu7Kt8WyxxCN+pAk1312NAsjwiMxq21fzOiYieGhEUiNZjCE/lkslj0Yj4XMhmf8ALCdI8xSOdEyntAxGRM7JiFPxJhtBCvElr0KGsfiMkWkx4bHYZKUhaGhodootVgsezBS8BP1BBmBHjxhlvQikigTzg8XiCBPRn40H2LEuwEcWCnpz620LJY9Cee65oVtnIM/6kdWJAvjwhMwtmMcfNJ41fLirrdYLHsO8dJmRNpMB9VipuDmiHU8MTQRqUhzfCQjXqc51rzFZiyWPRj3GtfBFpBmahDDIiMwumOs02iN6+KyWCy7P/Gl2ljKg28xC5mRTEwSS5n32LbOmsWyFyPFwdFmZ+DXkMhQFIWL3JUWi2WPwtPg9t5fjlnMgWBQZwYUSZejrMeFJuiUWFvYYvHSWSLYjZ0UDWJ0aAzSoxnahDW3gSwWy56HEWTDoFjMTHJIeBgyddQpoQ87ti0Wi6JFwikXhmT5cSyG6Vyysmyx7HlQlL1d2XT+cCikHgNJajQNuZFcqXL8nfeRLRZLYlyR5jPNGdF0fb4/5m+xWHZ7jIUcL8pcphsUizkjkqldcrZmsVi2DRbRgnCBTAe2h4njv01rPTbv/XnXmZ83bGzd4Fj2sTS9eTDTROu6c/qzWAYXc83xGiRGkA0DLszmMZBgNGhl2WLZBlheKMds1KZGUx3PAcSIKusKXySMzOYqDK0uwejNyzCh7BNxH2P0lmUYUrMOGc21QCTSuY3rvHMDTSxd/pO8pFa1IH95JUbM2YjRb6zFmNdKMOrtUgz5eDOy1tcj0BbaOmfqsZWvxTKwuIJMvFazYcBfyZmbXoCHLvkI2ZFsp6axWCzbRLv81iStQnWgmjeDXN/+RS3HSBTpbQ0YWbkaQ2vWIjncJg3rqHmSy6k8WInIUlQ82oMp2JQ/HhsLp6AlxYwfccJ6W/+G/nwlp+ZXspPU3I6ihZUYNr8MaVXN0qAQY0D2ww3kZEaI+H0IpQZRMykPGw8fhaYRWc4KgfuyJ74C1bLt6JUjF9ZgvpKTrsvrOAfllZxy1adGU2IFxGKxbBt8njmJTzNIgWbFEXNSwhM6/cWF9bq48P5ICFlN1Zhe+gEOX/oMxm9Zioz2FiSFIwiI0AWk8LKqoHixwghILMFoBGkSZsLmJThi2dPYp3QOMlprRcjDWta96ewosbj0pwtIrW7FmLdKceBf5mLys6uQXdaIpLYIkjqiCEgWNN8SWKfigiHZpqEdwz/eggP/Og8z/7EAuaulodMe1oaHyWt/5Ndi6Q3KobfBGX/dDbgwM2mpVpwFi8WyzVAQg9Gub8gzsDjHO+dfdzjiZlxSR6t2T++35k2MriyWdCQ9H78PG5TCK40BvziflF/66bxZTtJwfl8AQRHwMRWrsf/qtzC6YqXG6Qhp/8CYTFz+9hCKFmzBtEeXYvzLxUhtbNdKjJUcLQ2fWMZ+dZ3Wh64Tx6mZL1hVg2n/W46xr65FSo3k14neYhkUurveTONwwLuy89KK8NQly1SgLRbLtsOCGnnyYURfekKWupaktRcdg7yP1yB76QZdrj5kMprGD8WYR9/V5Xjm3HOZE4WUzeSOFuyz/iMU1W0W6zIi3n5EKV6O1ImjqHVtu7NCYWc2C7fkyvGRbXVerOVQIIgtuaOwfPTBMu80yCmEZHu6spmeIdjcgdHvrseID8uQ1BqSfDhCK/80tzrv4p031kiXqfxprsVcrh+Ti5KTxqNubI6uN/m17H3oFSLXx0B3ZR/HruwT7uzyZSkz1cajG3bA0EvcKQcWi2U7ySzehKGvLxS3yOMWIrm2AevPPRL+UAjNowtQ8pXjkVzdEBeu0ylSGFNElA9a9SqG1W4UUWbppIXMAZpJUjGINSzWMS1kzvvESvb5UtT5XWuZzvGXqZ/ztKiTkBSJYGTVWuxb8jZ8ItSOZO44/o4wxryzXl1yq8QrDQZjESdyrNyMM37eT+s5lrX4RX3IXVuLyc+sQlZZg5uaxbJzGVBhZsOTRZ7T3aUNGpIKrq6uDjU1Nd06rm9tdbvrPG5bCIfDqK+vR21trevTPSZ+b96qq6u3ylciF5GKMh5vfpkPxrl582Zs2rRJp9yuvb29T/vE+BsaGtT1JTxhOO470+E+me14LEy+zf71ZT/b2to0Dm/6zD+35T6Z/eJ+mvS8YXd1VGC0BHUtRbIXmHHjf5C5qgxz7r0ci39+IYa+thDT/viUG2JrGANFeca6OchupRAFJH6KKrulXUFWwU3WZUeYOTiFjmHZhS3rJJxfBdmIt+McwQ6isH4zZq99H8FQq761jE4OuuaBMO/G4uaP9qtrw7rLDrrXYRH7OWUqyn4JpoLqCqw6j/gaF2+F0KlIewXds13W5iZMfH4N0qpbYm9Zs29bswwU3dVBxm9Au7JJbmoRnr5kmbu061NWVoZ///vfqKysdH22JikpCfn5+RgzZgxmzZqF8ePHxwp+XyktLcUDDzygAv+DH/wAubm56p8oDnOyKDD3338/GhsbdbkvXHPNNcjK6hyBShgfxWzJkiVYvHgxiouLUVVVhY6ODq3I8vLyMHr0aMycORMHHngg0tL4wZHEUGD/+9//YsuWLfjqV7+KYcOGuWu6h+ncfvvtKubf/OY3MWTIEN3vX/ziF3o8tpXPf/7zmD17ts5z+4ULF+Kjjz7C+vXrNX9sfPCcFRUVYezYsZg2bRr23XffHvdrVyP9D39A2t/+JnOd1wcFrPqAiVh5+RloGV2I9twMDBGreNLfX0b2ijI3VFeeXX07xm1ehvFbluv9ZPgcYeZUZEymbKvTTyVRHJfjKhB66zUpImqmCCMaCcu8OLGUIzINSbjiYdOxbshURETYl3+Qh2tPOkLCOHlPSYmivU07xiVKJ430dJ9cm0BGXntsVHbh4nJMe3yFDuxScZWyRjjvdcYvEaYMeadexwYm87R51hCs+OwURJM4xM3ZVadRZNkb0KtDrofB6Mq+1h2V7W08xubdsBaXpqYmrdTfeustreTjHUVxzZo1ePLJJ1Vcfvazn+Gvf/1rnyxfL6+++ipeeOEFvP7663jsscdc38SYyoZpv//++/jggw80n4ny53UtLS1bVVSshGg9/vnPf8avf/1r3HPPPfj4449VuEaNGqUiTqFm4+Tmm2/GDTfcoOLdHbRMKYTPPfccfvvb36rY9gaFksf43XffRXNzs+sLnffmnVPu54IFC/Dmm29q48H4ex3jIzw+//rXv/Cb3/wG//nPf/ScsIExZcoUFX+eNzaGmE/uOxsIuzM8sxs+d7jOzL7mnzjgintQP300Ss91xC8RWS01GF25Rkcs+9QC5kAvWsG0djnvuFjXNoWay67T9SrgnmX167SaTZigWLejKkuQ3cKyIQmyRnJh3r/17QAmTHCWSUEB8KOr/Bg5qvOaTatoxvjXS7uIspl6Hf16cxqO4c18/DqZDl1SieHzNml2OVrbYhkoeL15pwbW0dZijmPVqlW4/vrr1XKmGCSCB46CQGF98MEHVegoAL/85S8xceLEWJhEB5xQzD73uc+pBUexoaDQ6qQVHr+Nl5UrV+KHP/yhiuhDDz2E1NS+vXTCpMu4KX6XX345VqxYodbjd77zHRx22GHaUiMMS+th2bJl2vBYtGiRitrVV1+Ngw46SCswL+xZ4H5TaAn364orrtBwiY4B4bH72te+pvt+5513Yty4ce6araEwX3fddfjwww/x97//Xa3dRDAtNpb+IJblBKntmaeRI0e6ax24XyUlJbjrrruQnZ2Na6+91l2z69Odxbz5hNkoencZAi1OIyOUlYqqw6Zh2MsLnKA89Z5TsPHFC1HUWC5+FFCna9oIrS5rW50biGDplLOeCBSm7EzV6fUVQSQaknmxnGUahbgIX/cbQmnBeCwbc5BYzPn4qWsxk+NPAL55qR8/uzaE9aV+/OWOAD6aE8Y9f4siLacN9xW/ggkvlWDM+xv0XjBFldcTnVdYSfw0HlMGCOfjnVrM7nxrehBzv30A2nJTYkfCsnegV4lcA4M1+MtYzLxuvVNrMW8HPHgUxc985jNqLZ9xxhnalXvLLbdg7dq1WrgTVRD0o3v88cdVnM8++2wVMlputDi53UBg0q2oqFBRZh7POuss/OUvf8GRRx6pF4KplBiOy+zGplXNrmZ2e//pT3/S7vf4PJrt2FgoLCzEK6+8gmeeeUb3iXENFswD02Vjh4JLUTZ5M46VOUWbFvOVV16pfrsztOjy5xdjxffPwmuv/gKvv/pzrPn6ycibt1pfmuEEcqcuBY0V8p8WrWvlcmpEWaxjx0J2HEdoR/0SAc8j543TSOkkXJRViONi1rPHcmZaI2rWI7W9s2fEISp5juKvf4ng1tuDePn1AF5+MYy774yi3e3ISBdrOb+Yz0bL9duNKMc7Q7yfd7k3l9QWxrAFW+AzLyqxWAaIRHWQ1lXuvGUbMYWY1uT3v/99FVlamc8++2zCLlJzAiiO7CamcBxyyCE45ZRTtPv47bff1nvIAwXzxG5eWsrHHHMMLrnkErXQmS/vxWHmOWVr7oILLsD555+v+WYjhA0KL+Y4ZGZm6r1ybsP9Y/e3N96Bhmmxq3rq1KkoKCjoNm2T34yMDJ3uzsiZw/pzjsDGzx6OgrmrUfDBSqz9wrHq5wZwnAfeR+4UUEeQ9T4z/Wk5uyIrnvLHKe+1ikjH/MXpNiaM68Rft4/F1xl/UKzRMRWr5JxIMA+5ecA+031iJUfx0osRjBvnw5ix7soIkF3WgIzKli5CHC/KBq+f1787TDgTn5mSgAhyXkkdkhu6XusWS3/SU/3I0mXZAViYWclfdNFFmD59Ol588UXtou0O3lvm+qOPPhrDhw/XwVKf/vSnsW7dOr2Xyi61gYDd4Lw3nZycjIsvvlgtSy+mUoonJSUFp59+uu4bt//kk0/cNVvDLnEOACsvL9du8G0ZpNZfcNS19xhyv4xjQRjMxsJgUHHsdBS9sxTTb3oU03/1XxS9vwz100chksSizQFN8dcTBYgC7DoVUc67QruV6w5Zx2tGBFpkTY+vEWd1rqhr/OJGVpUiwLeCebjscgkZjOJPf4jgt7+OyDUa1XvMI0ZIjOEoctbWIyBTwvj7YiknIj5M/HbeZU1DfmwQpFe16HqLZbAw16QV5n6C1ie7hfn4jrnf6oUHnILMwV7kzDPPjFUGF154oQoGB0PxkZ7+FhDGRQuW3e207Dma3KRh8kC6m6eIH3744drFzYaH2ZYunpNPPhmnnXaaNgR++tOfDtoAK+Z18uTJ2nDgaHMzIMxg8mr2aY9A9iVtfRXCSWKZioAF2kPoyExDcm2TvjM6KiIjGtMFp6vaEU51riDzuJiuasar51/X9OScH8NHNV7xpI/GwfgdUaZQJ4c7kKWDwDp5/DHgjtuiUmbYoxPFE49Fcf+9UbQ0i31OYS5r1IFamhePI96pme8NEzZ+W+Niwu/36es702pb7QAwy4DAy4rXWiL0WnTnLTsIu3ApeBxUxFHO8dCKmzt3rt6nPeecc7QL3MBteJ+ags7BSf0Nu585QI3TT33qU91eED1Bi5nW9vLly/WecyIYb3p6Os477zx9HGn+/Pm49957dST1QMO02cBh+jfddBNuu+02PZ68n86R4ly/Pfu9axNFSlU9tpy0Lz544Aq8++hVqDh6hj5CNfev38KW42Y5NYAXFUpHNJ3uaEegZUHnnem2wt4IbidOj7FjjWs6Hqs5u7mOgWOsWxvFGWf58JNr/fjZz4O45Ot+VFREUSvB2NBIr3YenYs/d2a+P86nidsbp/PjPe4W+EID04Nl2cuRcuk1bOKvZSvM/QjvFfNeK7tyideqpDjwUSe2ynnP1mAqhaOOOkqfq+U9auPXHRRGWtd8pKs7R1FiVzLTZ3g+z0s4epz0lkY8tJppMdMC7q2Lmml861vf0m2efvppvPHGG9rFPJBwX2jVf+9739NnyznAjoPAbrzxRh2Ux+e/2RXPR6i8BWJ3htZcSmU9hr38CdI3Vov1XIkRz81DxroKBFo7xGreWlRUKF0B1na5HDfnaPT9WugexuGJzxV+U82kdngHgPlw0il+HH2MD/M+iuKF5yPIzAK+9BU/nEf6owiIKHqvUzNvlneERPGYZbOOVrMdAGYZCHipmevMqxNm6pQYS79gusLYjRpf+W/YsEGF4fjjj8fQoUNjJ8UwadIktTIpYnyOuCcosnws6He/+1237u6779aua8K8ME9Mj5b99kBRNvnt6T642S9a2HzMiVb6P/7xj173qT/gSPljjz0WP/nJT3REOUe8M988phTmX/3qV/jRj36kjYX4ru7dlTH/eRezrn9I3Wx3Sjfz+n+h4P3lckLcgC5OFzY941380rZhzrvjaCm7Mbl+tKBTQp2Dqeh1xBE+3H9vBM89F8W770Rw5+0RaZz6YN5RY+Iz817il3cUk1YsPXHBtpDtyrYMCHHy0AXW11aY+xE+I8xuW95vJqag80A///zzOuWIaAq4F4ZhdzZHaVM4OXq6J/HjYLNzzz1XR0zzrVeJHO9hm7eJsQvavP1r48aNOt0WmG/eH6eYUejYXeytxBLBfdx///31eWV2o/MRpcHo0mb+ePzZyKHVzmeWKcR8DpvPbXOQHfPCt4zFjzDf3WDZDjS3I6m2SVwjkuua1Om8+AUoLE5QD/QRp9asgcvdn8u+48TtxOTEyR+rGe3WjquMUlOj2LKZIZ0HsFpbo2hukus1hfvWGdhcZ71dc9tDfJy6zNxw2lPtabHsIKxX6bzXoJlaYe4nKFoUPXaVmtdDGvhqSA6aGjFihL6QY86cOWo9xzueJIoeX2zCwVPdwTC8n/qlL30JX/ziFxM6DvLiY0M80RxZzRHgFH12gfcFc9HQEeaH3dgUNzYM+gLT5mAwPhLGR5l+//vfx7rUBwNzwbNRwjywl4FvauNYAB4HviBmd0PPiYqWOO4fPfmPTrzM+aKHW9T1v0E2EVjszUYOZqv+wxu/TCXhjmCyu8x8AmvXAgcc6JPGFH18GD7Ch6TkKGqred64ydYV1qDgJhVK4dvNnHmLpV/p5roy5dcKcz/BN1TxWWSK5qGHHtqlIuFbumgtsjuX4sAu3njHt42x+5XCzXvCL730UpcPPOwIzIt5vpf3sPlM8rbAkeJ88xYtzJNOOmmbKkm+d5uPkvGNXS+//DIeffRRffPXYMM88yUovJfPwWnMA0eqD/S974HBEWeOt6refwJKP38M1n7xU/oWsFCG+7YqniM9T/Hniv6dvjrdhvPZHZ0xuPeYYx6OuNK1JnV9Ux07ha78YQDXXh+QqR8338IX2/hw3ud9+Malsh/uW/TItlxz24s3BSbXkZHsvGDFYul3ulrK8Vhh7if45i6Oxj7uuOPUOjWsXr1aLWC+dpIv6OBrJXtyvBfKe6Uc0dxfI7R58mfMmKHiyIFp7Crv7TEmc8GwJ+C9997DvHnz9K1ZfP56W6GFytd00nLnoKx33nmnx6767UEtSbcR01slzseqGJbivLsJs9m1qJiZy3/0Wcy981Is+cl5WHr1Ofjk5otl+TtoHuHcSukRiaiXw7T9xCLm1JnnmWlK7foxlWVLo3j8sTBKS6OorgbeejOKZ5+JoKI8ivpGoD25++qpPxqsW6HHpPOgNOenIhKwVaRlAGCr2oO37qKzV90OwINJS5j3MCm6HI3MV11SgLiO4kPLl6OYOSiJA6IoUuwO7s7xXdvsiqYoUwz7S8CYJ95z5b1sduEyzxQm5tPrDJynaPG5YO4bueqqqzSebYUXGhsFvK/L3gA2PszI9f6CeeXjaGafiHefzDyPJy1l3ovmK0TNudpdcPLqw5ZPzcT6849C/tzVOODKv+Pgb9+B8f98HTUHTETJxSeoEMoe689LbFf1eLjz/YCTnjvnxqtVD/8xLalqatNztdu6oJCPCEbx4osR/P3uCO67J4J/3BfGXXeGce89Ufzz/igeergDteGqWFzx+9Fb42u70GPipNOREkRLXmp8/Wmx9Au8fE2dlAh/fqEzQMjSFR4wWpWJHIWWo6z5+BO7pv/4xz+q4H7961/v8pEFPrNMseA9Tr5Xm/SlQuGbwDhwi5YlX1jSX7DhwK9FsUubo7b5AQm+bYwDu0wDgPvNruulS5eqZc1Hjjh47LLLLtPu8B3h4IMP1m5txt/ds9DbC5+v5u0AvnGMx9y7T4T7xe8zs/eC3ek8BmwsmRbqboXsS/PoISoa+/3wXgx9ZQGK3l6CqX96CgUfrEDr8DxEeH9UC32Cgi9eKnS627L/+r8/MWlqQkp5ViE6AimYMBF46BE/rrvBjwsv8mPylM57zAZuEhHP2jHZ+ipuXWOiHEBiScj10FSQphazxTKQmLrHTI1YB5IDaTckH7xtnyzcFlKDGbho/8vcpV0fVt58OxcHKfELUxRH43gPmY6P39ASZvc1BzWxgqco89vF5rEidgEzHn7UgS8UYRcw/XnQSSIxMOt4L5TixXQohuxCJhQbpss0GOe2PPrE9Og4AI1WOeNi3ihi/IIUu8757DP3j2nQoubz0HyMix+yYP4p0PFwJDq34XHjKHHmrTuYPnsFOEqbL/7gfnpHjyeCDSEeRw6sY4OFVq4Xc8w4CpzPir/22mvaYKJVzFsLfAsYpzyWHBnPD13wuHGf+ArR+BHyuypJsk9Jco4MLSMLUP6p2SLAyYgG/GgdloeKI6dh0+kHIndRKYa8sSg2qth7rUU/Px38IIT4Oj+OztbVW1+P2wNjMaOsndeBRvTFoEtG7YP15flY8NwozJrlxwP/iGCfGX6cdgZH7/v07V/u031KakYEZ19RjIK19fpRCXP9mn3x7lN/E5Goy6fkYvNMudYCznGy7F3U1Jdj8ar30dYxMONhxuVNxbETztLr2NRBnJprfPeolXYCrPApUPGOYma6mCkqt956q368gS+1MKLEbSnsvDfLrlIONtoWGA9Fg93OvCfb33DUOJ/15XeLeb/VfHzjiSeewFNPPaX7xzeTcVAaHy3iq0a3pws7EXyUiY0Y9jD0JxRsfsKSz3CfcMIJ2qNBIX744YfV8ucnIXl7gIPX2MvB6fY+070rMOT1RRjy5hKs/tYpmPeXb2HuXZdiyQ0XItjYinEPvO6+GGNrQWlKFivQFWxKpzMxy/0DrXEnRv6PoCozF9UZ0viS7NCntS2KD+dEcfufI/jlL0LS6Irilj/5cefdHPwlFRSfqxLXODQNtaMyY7ENBKZh56UjJSCiXKQNnkTH0GLZUeIvu/gGp/0es0Xvz7LLnCPLaRWzm5dTc5HsjrDhRGue+8XeC1rlPVnmuzrme8yOkHSel0qxkiuP3Afh5CCyV5VhxNMfIdjC57MTn7t5827A7I3LpEXOZ4uDIoJGfGg5b//5duoZ+R91b4kgJCchjJBE+fHo6SjPKcLy9/Nx/2VH4PtX+PDd7zCcsxUt0kAgii9+2Y/Pf8GPy74dQUVtG+4reQX5JXXY98k1SG0O6fVonG7XD9cnj2e82zijAIs+M8k9hNZe3pvQK1KugYH+HvOx487C9SfeqUYYDQRey5znlJaztZgtemHw9ZkcOc6ublrH/VHp7Ux4cfP1qLyvzv3KycnRSnd3x5yX5pEF2MLHo7LSkLtwrQ4CC9Y2ofyYGaid2X1vRGWWbJct1qAueY9HPxwbN4ooxVnm2SVcljMENWItO53bDhmZ0O7rwkKKHju++WY64B/3RfD5c8P6Dm1D9dgsbJxVaKJW+uM8GhGOp6EoDStPGKvp6eo94Jqx7FpoEfZUr7wOWa6916MVZotlN0ILschG9SGTsejnF2HBb7+CT37zFSwQ98nvLpblL6P0vCPd0FvTFkxGSeEYNKWkyRLFyViuxm0vzvbO/WXOR1Cfmi5pjUZ7MElDkMbGKErXAWee5cO4sZ7aSWsqH2pro+jwPMHGL2QVHzkCW6bk6b4nEtMdReMU15qVjOUnjkFrdmd+LZaBoet1rOXabXSr1axzA4QpQwNVoCyWvsKL3Vz4uyMsPd4yFEkOqjvw0jtx0Hccd/Cld+GgS+/GuH++4YZKTG1aNpYMn4KwK6C0WDVmtXTNsuPXmaKbh0SO+dK8ybbutF0EdcGo6WhMyxS55bEXb3GbNwG/+VUUf7wligULxE+9vedl63PUkRrE0pPHoGpspictJ13vMekrsW04cefbUwNYeexIVI3L1hwYlyA7FssO4VxyPV9YA28x+6JSAYTt9W2xbCcc18wyZGC55lel8hYUo/C9ZeKWo4jufcdlr9nsBOwGfnO5MjMPcybMRlNSCiJGkF2h42huHX8lYb3l1izHnIaLyDxzxDg4DjuK+uQ0vD9hfzSIKFORtVHkbsXPQ/KV6U1NHNsgXq6/ceYXT1t2CpacMh6V47O1izwaMY0AJutMe8Psn3c+Iq41LYiVR4/ExpmFaqFrDrrk22IZXAZcmHnxt/vbpMzZC9xi2R5Uln2iYqpd8k/+hr62AId843YngAqjmRrXO9Xpefhk1DSUZ+UhrDUBt6PgsXs7vos7sXN+TljGsTk7H5+MnoaG1L69T72v8JntxsI0LDl5LNbvW4Q2sXATCa3XrzvM+og/ipqRGVgm1njpQUPt6zctg4d7DcYagK4+xqYDOSqbSWen5eOBS95DQaRQKxSLxbJttKIFm9e+ifC6lbGCu71sPnk/p2C6MLbUjjYMq6/AuKoyZOgXt+jrWoux5GgXewVP5nWR/6JoSElBccEolGcX6H3szu2cmMiy9/Pw05MO1/neyC50RmXHYBRuksG2MApL6jBuXjnyNzbCz3aB0N2xoRA7eXD2gMttGUGU7luIMrGSKfi6pe5P9/FY9nz0EpDrY8BHZY8/C9ef0DkqW0dis7dGrj2dDvTjUplpufjr11/C+NCELoXVYrH0ASnF9b56LE1eqlazf6BEQ9Lxh8MYU7MJ46o3Ib29zREz+WNFYoRNl42nzDWmpGFtwXBsyClCOBDUdcyiEWMv2yvMRijVGuayOx8IRTBkdR3Gf7gZeWVNTjgGIG4eujYmoJb2+tkFKN1/CFpzUvTNYszzgB1Xy26FXi1ybQ20MB8nwnydCDNF2TwmxWlMnN2wA4Ozl2jyN6LNN/hfFLJYdnfYhVsbqEXEP7Af2+B955BUDMWFo/DG5APx3oRZWD50NMqy8lGTnom6tDTUpaahKi0TG7PzZd0YvDNxX7wpYdcWjJBtOZLZleOuWtjvMHpWXpGkADZNz8d7X5mON741C4tPHK2iWzVa8jskDbVDUlE7LAObJudi1WFD8cEFk/Had2dj+fFj0JKfql3Xxpa2WAYTirM2NDkjmMYn4fzAdmVLmpnpOfj5tx7EhNBEFEaKtFRpUbClwWLplXZ0YHHyJ2hxG7YDZdlp9eBWEjFMUuLt1/vOvC/rd4RR/9GH/9ztPJt7KxrDDlvMTMD5Ez/16sSk7fr7QpTcqOY3th9Cl21NXHQDdFwtuxd6GUk5GCyLOVFXtlrObtgBhV1w5YEtCEV7/tSgxWJxYAVBtzGwPibKAykdRpy6OPOT+ag/oI7LOm45tp7buj/PtgOBSYONk61+Jm33h6A0IIKSX7GKY+vEddnWLIuzWHYmxnrmtcjpoAgzqfPVijiXO4XAlgOLpWdElWt9NdgU3Oh6WCyWPZX4xuGgCDPvk1GMS5PWodJX6Tw3abFYuqBWsvxjly3HZawLFqsfsVadxbLnYMq1wVjLhNNBs5gJn3dcK5VNVaAS4WhYM2OxWAwqzWjyUZTXotnfop1LTverFWeLZW9gULuynSoH+rKRtcESbA6UiUxby9liIaaJyhHYq4MrUeevET/6WjG2WPY0vKU6kYE6OMJs6hc3Nx3+dqxNWosVyUvRgmatgJxKiHC6dUYtlj0B58ruen3z2g+hA2sDJVgWXCyWcrP6007W20AWi2VwEJEcDPXpqbN40LqyVZMlI/qIhWAyVeOvxcLkBWoh1Pir0exrluqpA2GxpAfn8Fgsgw97inid841e9b46bAisxyIpBxzoRSHuvPKj+j5qtqj3BOfds75gjkWiuKyzbiCcwXnYbmAx6VGIvbep6D/gzzFn+Qvw27HvuT4eOh+EVPxRP9Kj6UiNpiIYDSKAoFoMFsueBj9IQWHmbR02RkPy46XOIqFFlZe9U2b3KKrKUvHWwyPdpZ5JTg/jjO+s3SOPg2UXxi17tQ0VuLX6SyiP9r82UhePHcfnmO/QZ5jpKMzeN38NuDBnh4bgtuItXSTWKWumxMWJr3p3rvM0JCyW3R63kexgrm31lAV32V7ynTUAscfDMlh4r7trx+6L9akL3aX+wwjz9Sc6r+Q0LxcZtFdyGlGNL1hcpjXs/Myy6+SfMe3N9hbLnkM09tMSSqcXvbtWlsORiD61wE8Smi424/YWtC5wncUyWAzadecmwDJNrfMy4MJssVi6Mq/8Dby87t/qXin9DzoiHdRqRCJhlDWW4L2Nz+PxVXfivyv+itdL/4fiuqXO0wse8bZYLLs5njZ2InH2B8SUtlgsg0Np/Uosr56Pdzc+iz/N+xHawi1iHYcwZ9NLsvwDPFfyADY2laCiZSOeX/sgfvH+V/HRJr4zmta1E4fFYtlzoVBbi9liGUTOnHAxvjX7F/js5G8hL7VI/fw+P5IDqfj0xK/hRwffquu/MfsG/OTQuzElb188vOJWNLc3algv1Gn2bqvr8jPr+N+hM5yZd8N6/C0WyyDhMZC91rKxnv3h0MB+Ts5isXSSHEhBajANyf4UKZsskHwww4+Dhn4KR406U8R6CFK4XoQ6P2UITp/wZVS1bEZtW4XTne1FCnFN2xY8sOxmbG4sxZulT+LXc76NG979Mh5Z/mfUtJZrQQ9FQmp9/3fl7TLf4VQKEhdfjftM8X14Y8PjCEsYi8UyOMSV5JggG5G2FrPFslORgqhC6SwpasKKE7+lVfOQm1KI7JR8d2VXGtvr8NTqe3Dr/P/DS+v+jfHZ+2CfggOxsPI9XPnGmVhY8R4C/iCm5R+Ax1f/Dc8VPyDi3C7Rh/HKuv/g2ZJ/YmTmBA1jsVgGB6dfy8H0bJkpscJssewsvGKcgJXVC/DIiltx6vgvIDM5l6U5DieCTU3rMCxzNK4+5A58ftoVuGDa93D1wXfgiBGn4y+f/BjVLVswPmc6fnjQrWIh3495m1/H3C1v4L7Fv8TF06/BpNxZvWXFYrH0J3Fl2VjKRpytMFssOxEWRzotjvxHJ4V0Q8Ma/GHeFfjU6M/ipLHnc203+DA0YzSOG/U5ZCWJeLt+Wcl5+PIMR5SXVM5R3wOGHI3zpnwHdy78GW7+6HJcMvOnOHjYCRLaVgMWy2BCITYiHD9PbIm0WHYVVKWjKK1fgT/MvxKT8/bFFQf+Acn+VDalnTBxsEssS6xpdndT0N1yrXHxXnZ+2jBUtW6OeR4w9DgUpg7FiIyxOGbU2fD7AuLPQWCJ47dYLP0Pi5sRYeKdJ1aYLZZdAeqiuLV1y3Dbx1djdNYktWiVrmW2CxxA1tRRj4aOGg3n6Kv8k5m2UCvq26o896d9eHP9E2gNt6JRtmG3diQadtdZLJZBQ8uqFtatoL8VZotlF4Dau7jyA/zig69hTPZUXDzjGuS6j1MpEsBnvgLj4uh1FJubSjF382voCLepD2Hhfnz13Qj4kzCj4BD1+2DTi3i6+D58bdZ1+N7+N+Pfy/+MNzc8yYgdZ7FYBgVT2uItZUI/K8wWyy7A0uq5+N1H30XQn4xZBYfqS0jeL3tB3Zyyl7CpYa1rDXtwy3ROcj5eW/84bv/kJ1hY8S4WV3yIWz/+Ee5dfBO+u98vMSR9FEpql+KXH3xdB4fNLjwcM4sOw5UH3aJhVlR/7ERksVgGBZZlCrCxmjn1WtBWmC2WnQCfUx6WMUYKp1ME2YXdGm5BdcsmHUl9y9zvdbp5V2Ju+RsSqmvrmsWYrih9JK444Gbtlr5RLO7r3/siNjQW49ZPPYcjR56hbxd7Sizl08Z/GaeMuxB+f0BfasJR2yeOOR+vlz6Glo6tX2BisVgGBq+hbAS5yz3ngfy6FMnqGILbi7e4SxaLpb9gcV5fv1KE+Eu44Yh/Ymz2VO3O5is+UwJpMdHfurPMYrH0xk8H8OtSx43nZx+dr0uZr0p1cW5Yi8WyG2PENymQjLRguivKTkvcYrHsmpgubGM1m6kVZotlt4Wv8QugIHUoAr4kPmklUKKtjWyx7MoYATaYbuzYdCC7spl2dmgIbivekrCq6JK1rvmM4e2Lt1gsiXHKOf9JgTFlRhdNwXILvP7f8zjiXx3uXE84x+LdLyTr1FYtlnhMaSHXDnBX9rXH3xHryjbd2Toim9OBFuYsfwF+N/ID16d7/NEAUqNp4lIQjEpmEXQKji09Fkuf4EcpQr4wOnztaPG1oF1+TvnxirO36tlzOPmSse5cTzj7/tK9pTq1WLbGKSN1DVX4Y/2FKI/2vzbGCzMdBZniPGjCnJmeg+u/fb/r04mpHqStgIJwIfIi+UgTYU6KJKkfb38bs95isfRORH9hhOTX7utAk68B5cFymTZJeXNK3J5aos7JOsOd6wnnGPyv4TmdWiyJ4FVSvGEJHn7uFjQ01Tie/Qh18djxZ+L6E+7qYi13sZrdsAMKdzQqNQKd4k5zI7mY3b4fJoYmoSBSgPRoBpLlZ8ekWSzbDsuNtL+RKr/saDaGRUZgRvssjO+YIKUqyQ3loGVRKgBWAnuC2x4SxWPd3u0MPlGt7buq+oonLU+6hMuDo4CSrt7qEsdJMJqEsaFx2Kd9OtIi6VqhyGFxssqwcQfJYrH0FZYbp+ywRAWiQQwLj8C09hnIjmSpL8ug01rWub2IzmNjsSSE2uPODiTdpWFGaA+6aZocTca4jvEYHhohmQvYYmKxDAKZ0UxM6dgHQ8JDtCFssVh2PYxBOigllEmx64xtkXGhCSiMFEnC/KqNu9JisQwILOdOWfchGSkYHRqL/HC+UwGI29tsZotlVyP+0Sky8MIs5V/TFTe2YywKw4WSKLuqTYVhsVgGGhY1uqRoMkaFxiAtnCZLVpYtlp1BdyVv0F4wYh6j5ECvIeGh9JHErSJbLDsDWsrpyMDw8Agpm0455MRKtMUyeBgFNOOpTBe2mQ64MLPAc6RokYhy0Nd1ZKjFYhlcTIXA20kZ0Uwpn+7rAAdBmZkE04q4jvOJlvXnWd6ZRNy8dMkfnTeP8rNYtgdeP17M8qDcY06PpCM7ki2Vgu3Ctlh2Nix+bCyP6hjtqiV9B0NctpawnlIdjBz1BZMPTmN5khmzHPOzWLYRYyEbQTbWsz8QDKrHQEEx5ojQlGiK62OxWHYF8qIFSI44r6cclNZylLWBJCV1kE9sUX1WNCpTOllW+1StUA2tYXc2akxoPh3nj0g+XeeLdPpbLNuDc71vff34xo2eHE37xip3sX9hetnp+fjn197Vt3uZ1oHFYtn50H5dHVyF8sCWrmWzO6HRIN2XYbOmi13szlLcUtuaxDUiq7UGWc01SOloRlKoDX6+SjSQhNZgOprTclCfnoeWlCxxGQj7peHQJcnOBa/35zJPd+d6538Nz+o03lrRCDkrU4puUmMHUmpbkV7ehMzNkvfqFiQ1tcPfEUEkyY/2DMlzQToah2eipSgDbbkpaM90Gzouts7bvdArQa6H4g2L8fBzf0D9AL35y3z2kW/74is5zRu/Ym//GuhXcuamF+DRr87XAScWi2XXgQK6KVCGkmCxLsdERAquK1Vd0LU9CI1Zw/uxBlqT2S3VGFJTitzGchHlOhHjdq5xAsiUUUZFnA0R8WgWYa7NKERVzghUZo9U4Y5Pv3Nux4XZu78p9W0oXFKBvDXSgChrQHJ9u5u2ruaB60JU4mnLSkbjyEzUTMhD1bQCtOWlaTC/J7+WXR89tXI9DLQwx7+S0wiycQMuzHlphXj8kkUIxr0S0GKx7HxCyz9ByrU/7iJ4pPScw5FU14RhLy/Q5YZpI7HqO2fgwO//TZfjmXP/99FRwDeLsdw7QhcMt2PslqUYXrMOaa1NIlK6WuDQFqeT2IH2tBFmbilO44iiI5isAr165P5oTMvrFEfBm+P+EGZfJIIhC8ox+u1SpNW2IdAe1kR09Lo3McG7rU41z0A42Y/GoZnYcPRoVE4tgC/ovq/BslugZ1PO6YAL87izcP2JjsWcSJgHdvCXXrs+HWiyp6CF2C2MeyN7877viaQ2R5CzZB1yFq9D7mKxatWtQ8b6ChR/81SUHz8LTeOGYPmPPisCFfGE6er8obCnbESR3NGK/da8hUmblyCjjaLMrjqpB3zJMk2SykcsYL8syxQy9fuTXSf+Eo7r/L4AUkIhDKkrwyErXsTwqjXwR0QsmY6T/R3CW5aTWjow8bk1mPbESmSWNyPYEXEqSMm3P+C4RJWomQ8wnIh1sCOKnPUNmPboMox+Zz18IR3X3SUti8UQ66WKY0CFuTPJxIlbdj59rTBsxbLn4rVdCYVk3D9ex4R7XsbKy8/E/Fu/jsySLTj8y39yQ2wNt+GP4p3XsEWE9CUUNJbLGrEYRYgpxj4RZb87pUDDl6LzXKfL2qvG5RTdRv1UuJPE+o5g2oZ5GF2+XMQ5xCR3CF7JxiXXtGLSM6sx8qNNEnc0JrqsNM28NizE5I8tu86E8XFZRNoJIwIdjmLCK2sx+fHlSK5rY5IWy1aYOjW+bh2Ux6V2J7oTIOPPgthdK2dPorvjsDfsu8WHxsnD0ThhCFIq61WUI0E/ameMdtcngGVDJnkN5Zi2fj4y2ptlyRVkTtUSdsTWEWmxmmOOgi3+YjGbdV0cHAs6KRzGhM1LMbZ8hTYA+oOUulZMfmYVhi4qR0D2IV54EzkVY1eQ4/0DfnfwjszzeAxbWI7xLxdrOuphsRDPtaDXijgvA3qPmeSmFuHpS5a5S7s29fX1WLhwISJ8HCIBqampmDx5MnJzc7c6kLsr8+fPR2Njo7u0NdzP/Px8jBs3DhkZdgDfnkZQzn/OF77gLplrOorV3zoFpecfhVnXPoiUinos/+HZaJg6Eiccf70bpisvffBbRPJSsF/xO8jX+3LS5vfxw++0mEWo9HYWKyDaAlyWtDxFqLMJKHNsFPKes4ovH6ESC1nmo2A3dgghuSaXjTkYmwonOJsI23OP2d8extTHV2DIkgonR2Lp6s+tKI0jZhqPt/FqGrPxLiS7vP7IUVh/3DhEku09510ZPZtyzgbjHvN1J9yBpKQkvR3C68t7i8QKs4clS5bghz/8Idrb27VAeQtjR0cHhg8fjmuuuQb77bdftwV1MDAFnnkKixWRlsb3HndfefTEl7/8ZZSUlMSG7CciFArpBXTMMcfgq1/9KkaMGKEXUfwx2lHMPjE97lNPcbe2tmr45ORkzYtl+0gkzHJ1ofqgichcvdmpRURMA63t2HDuERj7wJtyXjRQF2F96f3fYGxoLcZtEWuWIqz3ifn1OAoyKx5akRRrV5jNthxYxYh8bmNY4nVGaDMB9761Th2HaIcutwaSMH/ScWhIdwaEnZt5hm5OKOoUWMZAONc578N/G55jIhg5pwwTXi5BUsix9mOWrsfpNp75RDCPZhrvIrIvkYiIc5Ifiy+cjtrJ+cyg0lOclp2Dnho5b4P5uJQRZCvM3VBVVYV33nlHLeb4QvPwww9rQfvJT36iwrwzYT5qa2vx3//+F2vXrsVNN92k/ttT0CnM1dXVOOusszB27FjXtxOKZFlZGVasWIFPPvkEQ4YM0cbLAQcc0GuFta2wQfTCCy9gzpw5+PGPf4zs7Gx3TSfcd3LfffehvLwcn/3sZzF16lT1s2w7CS1mOcYdmSlY8/WTUHbGQQinpSDv42JMvfVpZK7ZYkJ1Yd5LV2JGw0L4oxRfEWVxHLzlzHPKrSjUMlVxZmremFxx03+OMOuP8xRkEeOIWs4U6A6R3gg25o/FilH7IRxMxjkeYU5KjqCjvaswBwK0SKJyjfnUYk7f0oxpYi3nbGqUrEll6F7L8eJs6Ok6N9ekmbL+4Lw6+emyiHPdiEwsuHg2wqlsuMTvv2VXwLn+BvdxKWMUdXFuWIvALttPf/rT+MxnPoOzzz5bp8YVFBS4oXYN2traVCjfeOONWKVhKoZtJT09HYceeihOPfXUrdwZZ5yBb3zjG/jpT3+KL33pS9iwYQMef/xx1NT0/wVL63/16tW6TxTpnuAth/fff18bFWR7992yNRSTLcfPxurvnI78+cUY8+g7qJ01FkuvOVcFRWuvuMM9YdNS7Q4GrWQVY95P5j1iipBjOYvsSUhXnHWeU2een4an03Uq5IzHxGWsbmeejlVXYcMWZLXUaUXn5eJLApg1211wM3rGmT4cd7xb3YlXwcoqZG1pkrgkJleEE4myd97QXRjjulSwGr8Tb/bGBgz/eItuE3/8LBYvVpg9mIK1PfQmDKYFnYhdXVR4TNhoueiiizBy5Ei10isrK3VdT/vVG/Hb9nTsvWG35RyZ7bzbbw87su3uhw81B05E2oYqzPjFI5h05/MY8993UbvfeITSOXqa93vdrmeXjA4O9uoUTqfr2ogybzVIVeMKFOdj3drqxM/Ma1gphwzjOkeonUFgRrTpUqXxVlTLkdRd8/L2m1FcdbUfp54m1nPQh2uuDeKU03xYvMgJ5wtHMGxhBQKy2J0o98VpXAnmvc74G6Ee/d4GBFs61N+y9yJXhzvnEF+/sCRY4vAWqr7A7u3vfOc7Klg98eqrr+Liiy9WizBeLNgt+9hjj+Gyyy5TS/WUU07B5z73Oe3SfeKJJ3Q9LcpFixbhi1/8Ir7//e9j+fLlms8vfOEL6kfHeXZz9xfe48D7uby/bO4Dm3Wcrlq1SrvFf/vb36pfdzQ0NOBPf/qT5tPA48bjd8kll+Cll17S+HgcGMY4WuqbN2/GD37wA11evHix7ufNN9+sy9z3Sy+9FB9++KHG6T2+HNTHLnJ2wbNH5OSTT8a5556LX/7ylzr4raWlRbeJhz0SzMd//vMfteBppf/mN7/BOeeco+eH3ejXXnstPvjgAzQ3N3dJc7dGTmt6aSU6cjLQlp+FUGY6WkYW6iCwaCAg4pzi3Br2EqWwGauWwkkRpbBSaI3oykYxAWYEnc78ZGNZFutZpnrnV6Yq0K4Yc+o8ciXpiNAVNWyGX7u6O1m+LIprr4nioi8G8Oa7QWRmRvH9yyMo2+h0b2eX1iOrvFnikLjF9STKJJEfifePd4niTW4OIbe4/8qnZfclUT1h/Kww9wO8B7t+/XrtXu4Jjn4uLS1VcTKwsG7cuFHvE99zzz16z+HII4/EscceixkzZqj43HXXXfjjH/+oAsNu5ylTpmDChAk6QIonkvdY6ehPxwphIKCAUSB575f5IMw/4WCsdevWaQOiJ3Fi46KiokLDGlJSUjBx4kQd8Z6Xl6fbctm7Xxx8Rjd+/HhdZvq8N0ML3oThNpmZmRon88V7exRXiicFlcdy9uzZOProozFp0iQVWg7mu/POOzVP8Zj95boHHngAv/jFL7QBMm3aNO3650h1NhCuuuoq3H///airq9PtzDHZnQk2tqA9LwMf/uP7mHPP5djw2cMRTkvGvNu+ibVfOA6RFFrOnTgWsGsduwJKQZWZTqfVTR+OjQmrAk5xo8C74uwKvS7LfGZbI9LbOsuTYdx4YFNZVM5PVBpNUUyY6GZD1g1d7PT28Dx15wze+Z7wbuedjxfnQCSKvHX1UgPrasteSvzpN9eLmQZysvJuSD544FpwqcEMXLT/Ze7S7suzzz6rVhEr9WHDhrm+DrRouY5WVGFhoevbFR5wWrgc2HT44YerkJiTcOutt2LBggXaVUyLmhYdR0AfccQROOigg1RMKDoUE3YpH3XUUdhnn33Uet6yZYsKOvNlHB/rMnH3Bu8X0wJmet798gor42JjguIzb948fOpTn9LwFEoDBfm5555Ti5r5J4nyQAF/7733VJi/9rWvqR/F9OCDD8YhhxyijRwep1tuuUXjMfuUlZWlYnzggQfq8kcffaTH/Jvf/CY+//nPq99hhx2mg9OYLvO/cuVKtc7ZGGJaF154IU4//XTNP8PyuLKx9OKLL2r+OajPjHAnFOV3331X1y1dulR7MGid8zyz4cQ4Zs6ciWXLluHjjz/G0KFD9RwNVMNoIPBv2oTUxx5zl9zKQU5929AcBJvakL6hCqliKecsW69WdFJdM7KKNyNr5Ub4w53XSOTsSfCly3UnYsnR2OZesgo245Vz0tdrshNuxylH/3PR2Z7/9fpkRhFBU0om7v7z4bqOXPRFH446xodH/x3BQw9GkZnhwznn+uUahjSggesOeAnJrWE9T0Y4vQJq2Pb8dqJ55NSNg/l1/KLoSAuiamo+okk8TpZdkZr6cixe9T7aOlpdn/5lXN5UHQBmrkHine4+NcgehrfAsoubgnbCCSdo5U5LkOspsKNHj1YLmmJs/I31yHnvsnHmBPcVWvp8VIxdsl7HRgS73f/2t7/h8ssv1y5dNhQocMxbd5h89YX4fWDeucx9jd8nbzgTP3sY4sMRdrWzobBmzRrN+3nnnaeNG4o7t6HVP2vWLO3epiCzsfDmm2/qtvEUFxfjzDPPxPnnn69WMhsS3H82wng8fv7zn2t67EZvampyt9qdiaLorSWYedMjrnsUM4y78RGMeGoOAu1d75M6FizPkbFozTWgc/rrK85WjlPcc000HlrQKviOhZ7T3NWwKN8C/PLnEcyfF5WGVxRPPhHF3XdE0dJCWQTSalq1G9xcQ5yaeRK/vC3EtvPEwalel5xKjpNaQkhusveZ92o627Rd4LVCTbDCvAtAQaElyZHO3b3chAVbW91uYe9PmC4fP/rZz34WczfccINO2QX86KOPqjjRWudodd5rJmq17KLQmub9alrY7HamGMfnl8eSljjvb/MeMhsjiUab04qmKHsbBAaelzFjxuhtBzYC9gRhVksvFIG/pUNcuz7DrK6lTaf87OFWFUtMLGWW1YocJr1PzOO1Q9cst2W8GqHOOyJvptKA7eg6RuCVl6MYPsKHS7/rx02/DODr3/SjqTmKjz921vMcOtlyxNOc0/hzu71444uPn8cjIMcv0Nb1vrhlL8NzqSWql6ww7wJwEBG7cP/+97+rlcdubd53Ni/RMJgC3t/k5OSoRXnllVdu5a644godVHXBBRfo/VzeZ7399tu1e3dXhvd+2U1NqzjR89BeeG+b9655Dsxocy/Tp0+P3btOBM8Lu9B5T5r30HdHeJk59qQ4XmfqZJGO62KXoQhN7L8XNzAtZtlW18e26QdU+E2aTIfzTmOAr+r0MmGiDz+5ji9s8GHOnKg0KIH/uzqASZN0S8e5eRuoMhUfr1nmf30ftziLJR5T31th3kF21GpkgeV9S94npVXK+82/+tWvVADZRXr33XfrICVW+ExrR9NLBLt3u3uO+bTTTtN7q9/+9rdx9dVXq4C//PLLao12J0IDlc9tgQO22B3OwWTmFkBPlTAbHRTWRAP4uhs34IVp7P5QmuUnh6luxmgUX3wiVl5+FtadfyRahuU6gsZjaJwHp43v+sVOfdcw2wNj6IzFLFH2jVD7ENF72p1c9j0/nngsgtv/EsHTT0Xwu99E8P47URxzrDMqm3ivTu+10dM1sq3Ex6XpcMbv9iRY9lp49r3XXPy1YoV5EOF9yERd1bTo+KgQB3Fdd911ej+Z3aZz587Fv/71L/zf//0f/vrXv6pw7CzYFcz74LzXyvver7/+ug4a21Yo5jwOAw2PH491d7cGDKYBwTyxW9rco/bCQrMrNDYGkli9IBbo+nOPxIf3Xo6lV58jwnwGFt14Ed554ieom97DRyx0e61uOOOgkXqW+x0n/tYk5wkBw/TpwNwP+TpM10NkuLRUGqAZPgS0/eBUhPGV4aAgaYaDAf1us8USj7km7dXRR1hxJyrMXDb3f421lagC5/a8f5lIzBgHLS7ew+XoYg5Wuu2223TE9I033qgfzXj++ed1cNHOFAfm0wx6okXqFT0jaDwGXv94QWPjgo99bQ/bsu9sPDA8R1bzloAXbzzcJ95f5v1hdunzQx2J0mE4uj0VZ599aBw3BOsuOgY5i0tx8KV34IjP/x6zr3sIwZY2fPz7SxCltef+uuAuOkeI/43rPzQJjVKuNZ4L1zWldP24yltvOtZxUtAZCc0u7THjoqisjCIsah1K4aCxrRmI8+tk0W0IuH58JWcHX8tp2WvxVjEse6bOMfNWmF0onOb1jvFQTHn/kaKU6AtLtCQpSHwspzv4jCsfA+qORJUC72vysSQOTuLjSps2bYqdQC+9WYX9gblgeCz4PDCPhTfPRUVFKs7cT74IJB6zPYWSrjtMnIn2k5h44o+X8TfwsSW++5uNGR63nmDXPO+Z89lwNjoSnYs9H9lnOX6hrDS052dh0h0vYOhrC5E/b7W+knPoywvQOjxX36HNcPLP2czAYzagh43xexIwyUteajK6vi6X95W/8tUAvn9FEBd83o8rf+THl77sR34ecN75foT3n+mGZJQDmmnnUOlUZjgv6bVmJ6Mjo/NRQ8teiK9rfWWuQ07p9nph5sFh9+q9996rL/KgOJsDxikdn2WlGPF92Rzk4z2ghM+0UpgZjoOHeGDjw/BZWd4rTsTbb7+to4jNSTHpGjjSl/7e+5h8KQcdoaiYbeLT7W/eeust/RoVn99lfkyaPDZ88QZFmR8CYUOH/mafCAdj8cMb3b1nm8JuBlnx+WyzLyYNEw9hLwKPuXmpRzw8NnzHOUWZI869L3UhJm4OtPvnP/+ptxOOP/742ItT9jbMkeWLRZJrGrHm6ydj02kHouLoGVh3wVEoP2YG0kurEGx278HHX2Y8ngN76TlpxGB6UbQFU1CXnuv6ObC7+qWXIkhKjmLoMB9SpZi8+brzIYvhw32omz7CDckoOuP0zvcnJl7+j0ge6kdkas+DZS8m2nn+TZ3vxVrMLrRmOSKaA66MZUvB5ocSOAqZIsTnifl4TTx8/piPy1CQ+HgRP8RAaMnSOvzd736nL+egZR3//C/Fmm+m4osy2F3t/TYyxY1CyAFh3Na81YsnkUIyatQoXWaDgsJOKER82UV/wu5n5pMD0vjCDqbNr1HxPq6B+eC9cFrUFEI6c0/cPIrE0d0U9URfsSI8xnxOmMfoL3/5S0x02Vjic8bEiDMHq/FYvfLKK7ER4mwU8djzvDE/PC98mQufxebgNeaBeSHMGx8D42Nh7A3h60T5TLJX/PcmpOmj0/SScrWQqw6bgvl//ibm3Hs5Fv3qS2gvyML+P7xHH6PqlHEv9GMcXSuY/qQzVZNboCqrACFPg5W8LKL8x987g75u+3MEv7opgt//Tub/4rglhdXanT1Y8JrS60r+ItJqqJrYtSFh2Qvh5ZCgrjECbT/7KPBg0Pri26bY9Ukh4P1GCiPvTxpriu9N9lqtXijAFC2+IYrWmfmeMOPgyGC+LYpWJV//yHvIHETF9bQw+ZgU3+LFdJkPhuNgK3Mvli8d4cjtk046SQWH2zHPfMf0r3/9ax3NzXyxm51ixjdS8Rlkr3B2h/keM59NZtzxMB2KLeNi/GwMMC9Mg/mIv7jYLcxGCPeLx85YtmbwGN9sxoFjFFQ2ZLwwLX56k8eIvQjm2FGAeUzYq2F6CbiODQW+BIXbMRyPF59b5mNevF9PKNZsJDAcLXXmg+eGYRkXjy2fUeb5iIeNMr77m3FyUF538Pjw2qHws0HB+9u7C+azjzyGWlu4NEwZgYpjZ6AjMw1pm6ox9NWFSK1kQylxW779/rMQyOM1z49NUPRY80hYXiOeeLcHp6qS/97vNEdC6JBoF47aB5tyh+Jro87Az28KoLAoiof/FcWSRVFs3Mhr12zPHPH+OPB43TOY9kIJxnxcoddvgK8PdS3Y+Ot5R+Ax9To21DfOLMDiz0zW9f2ZlqV/0GtFztVgfo+ZdTfrXq/zjRs9OZr2jVXuJv3P7iDMBgoJrU2+BYsCwQNEQeC7mClEXCaJChQLHrdh1yitNtP9zK5vPkvLrl++Z5mVPeNit6+B2/J7x3S0eGn9shBTCPkYD7flc7YGb/q09ihwfO6ZUGho+fHZ3L4UfHYtd3dvnTAOijIbJxRW9gyw14B5Nuu90Frl6zb5cQjmjRYqhZBiRSuXAsr88hixl8AL42R8PI48ThyQxfgosvvuu686cw4Iby9QwNmwYDq8z73//vvr60q9DSgeSzZ82BNC65ph2WXNF4PwtZxsbDDd+H3hmAHGz/3mazy7g3nkbQy+L52fyWRjZHfB+z1mntL23AxUHjlN7zXHE2jrwKgnnI+ExFP85LcxFlUifXwJi/P2LxVmymHccd1WnMrSFWWdOt9mLs/MxaJR09GalCrCfDq+f6UfFeVRDB/JF8f4sG5tVAeCzZvnXqv6X675hmeRX1KP2U+vQXojB3Wysdt5Le9ofg28nmNOrsG21ADe/+oMNOdLA0bW91c6lv7DudYG43vMZ+F6jzDzWuB8bGqF2SlAhAeF86zITZensSTNOoMpVN5tDayoadHRz7SGEoVLhNmW4bktT5KXRNszrDe/ht7SMnSXN+PvZVvi5H5wf8x+9LYtt/GGoSXKc8GGgVeQvXAbE477brY3U+++efOUKM7e8tcd8Wlsbzw7g5jFLPM+yXvd1FH4+JZL0Dy+SPZF/MRf9kj2KYqk6kacdMxPdbt4Xn/3l5jVXIK85kb4+WUpWs39KsxhHmiZ4Scnw2iXKBePnIKynGE88CrMl37XhxdfiGKxWMvjJ/hw6GE+HH+CH7yj8uADEXzwHh+f84kwP4dgexhTXitVq5ljtJlHk8/+OH/mmuB1yXn+Vh47GmuOdO5vMwlJUectuw7OtTYIwjzuTFx/4l1aL9KxLjJTdWGpqAYaXpS7MvGFkgeIVh6dV1BMOLNM4pcJt2E3qbd7OFG4RJhteZ/VtKS8LhH05zZ0vYVNRHfhvXF1F6Y7GJbi592P3ogPw+25T/EC6oXb8DgzHYbjsjce7zKnJk/mvHrd9uLdfkfiGWxULpyaSCTCLaV8HCrgx+yrH8BR5/0OR553szM992Yc+rXbGSIhHYEkEcppMg1IPLRqPU4T6Xst4IR2HLdlg8HEQcf4y7MLsTl3hGi/c87lyLtOrP4OH1asiOKBf0Tx1S+H8cJzYfz29wF8+ztOFztDhZMDWHvYcDTnpoj17YpnLJ3tJxaPZ56uclwONu5XpN9/1m9Au3m17K10nn9v/WHovsbrB3h9xqVnsVh2EVQczLspXZIamlH0/jLkLihB9rIN+lWpnOUyFZe9qswNlYgoGlMysHLIeLQHgiqfWgFwquLshOkzsi0F2fxcT4kpgoqMPCwZMcU7sFUJBqMYMcIHDi/gvpltn3oyipM/FcJDD7Kh4MAYm3NTsfTksWjNSo6Fpb9XXLcXbxwNQ9Ox5qgRaLOPSFkMceXOXC/GDagwE01IL3eLxbKrwfKpU/4ToUvbWIWZv3gEmaX8PjV94133RHx+bMwbjuLCUQhri1zCu/FzflvqAUdzTZoUVBFlqcy2ZBVgkVjmIbHQvXSEouBQiaOP9eOQQ+KrNR+aW4CaBF+35QjpJaeMQ0NBmiblzaE5NtuKd7um/FSsOH4MakZv/TSHZW+ms1XJ68Xb46ZuIEdl8/rMTSvE/y5ZgBT5WSyWXYua5lJsKnltq660baVu5lhE3O8LByJhDK+rwPRNxUiWeXOvme+HpqHA1yew89xTNzmzrqCZ/2rzqh/t5AjKcoqwYug4NCfzu8/cvjOCc7NOQ26uD+kZAJ84rKt1YjGYJW73v4Zn3SWB0Yju562tx7TX1yN3i/M+ARM3//d2bEyDQ7Mq/zTP8lc7PAOLzhiLhqL0zvh6icuyc9EzKedvMAd/0fE2nJnqLbmBFuactAI8/LUPkR3NcX0tFsuuAAVlfWA91gfX9UmA+kqEBV/IaWnArLLVyG3hpzAdS8BBU9P/WxOTOa1AOB8WNV81ZAzWFI2S5U5rmPdqDZ/LPN2d6x0jzCY/TIXppNa3Y8bzazGkpA7+aGf++iTMTqZVlPkSkY3TC7D8hFFoT+u07BmLFeZdGz2Ncg4HY/AXH5fi+BszBscrzAPflS0t3Sb/nvDxeItlz6Pe7745rR/1QrVHXF1aFj4aOx3Lh45BbVo62qXCcSSQjt3TnY71RNQdhMVl+jampGJDbhHem7gfVheNkTCd1dVAyBvvNc8/dzI+OWsCKsZnozWD98pZkUquPc4QW5a/iGStOSsJleOy8fGnJ2DxqWPR4RFli8VLfAMtfnnAhTnii6DeV4+w/Ih7HVsslp2BFj5HUFrl1+Dv+qrS/kK1Wf61J6VgjVi7H4/eB0uGT0BJwXBUZojoBZMQkvWOIDNTfL1mQMQ8HRtyirB02Dh8MmoyFo+YiPq0TCc+j3P+9R8aL//5fdgs1u4CEedFp43DqqNGYMvEHDTmpaAjiQ0LyakryB3JfjTkpWLT5FyslHAMP/9zE7FlWj6iQadqNfnV7Oo/i8Uphl4xdspAJwPelZ2ZnoNfffMRTA5NQWY0y+TIXqMWy06gs/xHUZJUgk1B58U0jngMbKlk5ePnc+mREAJhcZKXgMxTwjr8Ab0HHRKrOhQI6rKpJ/qSrx3pyu6RUBhJbWF97tkfiiDQHoE/HEVYhDciQs1pKDmAUIosB9wXlQzwcbQMHFo85DrdmS8YGZSubF6irf4W1PhrZKclR3rNxmoHi8UyqHAEqFjLvhaU+zc7RdG4QSAslU5rMBlNKemoT01HTXo2qsTVp2agUfz4Fq+Qny8okYpiF6gm+Ex3W3oSmnJT0ViYjtoRmagenYW64RloKEzT56A70oMqys4GzsRi6Qlv081rLZvG4oALs5Z5Sas8sAVNvibXI7bGnbdYLAOBljIWM/lnKoAQwtgQ3ICILzy4tp1jTiZAbEz6e9cxqC4n3GDwkEy4daXC2W5ztJOzatl98Mpeop6bARdmQ5u/DWuDJWj3Oa+O7MyYN4sWi2UgYa9Vlb8SNf4qXdauMxWfgVcVpuCX/+btV52O69yfLGueYj47F6bPXJhjFMufx8WWGVKmFkvvdDaUvRYz0evJnR8UGvz1WJO0GiGf8xrQ+GcZLRZL/6LCwmIm/+g42Gt9sBQdbhm0WCyDj5RGd64Tr1APmjBrNnxR1PqrURxcjTb5cUQm+7mZEc2UNZ4tlh2ABchxpkyZIsX3Qdf6arA8eRna/W0q1rZRbLHsPEzvSvyUDKrFzFYCE68KVGJ10iqtKIz1TJxKxFOpWKG2WLYdT7mhNLfIb2NwA5YlLUNEypuWQ/dnsVh2Hl4xJtQ9+g2qMMeQvNT5a7Vbuzi4BjViRTvPOVsltlh2DL7IkoXdh3ZfGzb7y6QRvFKEeT2iPuddAhaLZdeAQhwP/XaOMLtwIFilvxyrk1diccpCfTVgra8WbVKhRH3OYx0Wi6V3WFI42roRTSgPbsGK5GVYlLwApUlrdWwH36VlS5PFsuuQSJRj3doD+YIR4k8fglHfXecuWSwWS//zWprzAY2eYUUYxfEtfOEnsV35lu7ZdP8h6KhY5C71H9Tj48afpe/Kjn/BiH7AYqd1ZVssFks/MuKSSB+dsVKsKFt2HvG2svdeM+etxWyxWPYSvNWhFWZLzwykxcxXcl53/B2xr0vFviplnBvWYrFY9hKsKFt2LrwC1TIW5zyB5DQazbwVZovFspeg1aEza7HsRFwdVrzd2AYrzBaLxWKxDCaixV5L2YizmVphtlgsFotlUPGOd3BE2ju1wmyxWCwWy6Di3F+Ot5QN/vzCXHfWYrFYLBbLgNPVYO7SpU3nr66sVQ+LxbIjsGB5HAua6Z5ynXcuHmeN+Z84zNaY+Poa3mKx7ArQQDZiTIzFbLuyLZZBwSuenQWx/+iUc4vFsnsRf2+ZcN4Ks8XSL3TeI4q0taNpzWrUzZ+PhmXLEW5u4RdPha73kbxwjVnbfah4+h7SYrHsWsTfV/Zi3/xlsWw3TiuXQly/aBGqXn4Z5c8+i4YFCxANdX7OFIEAsvfbDyMuughFp56K9AnjxTOuUEorOdzehleHDEW0vd317Jn0yZNx9MIF7hKxQm2x9BcD+uavcWfh+hM735XtfeuX3me2wmyxbC9RtG7ajPV/+xs2PfwwWtauRVJhIdLHj0fK0KHwJScj3NKCtg0b0LhyJaIdHcg99FBM+eVNyD38iK4yKqW1Zf16vD1zJnxSWDP32QeBzEx3ZWJSR43C7HvvcZeIFWaLpb/YGcKsA784tcJssWwfoaZGLPnud7HlsccRyMjAiC98AcPO+ZyI8jBZTheBDSLS0Y5QXQNq3nsXJTffrOKdc/DBmP3AA0gfO9aNiURR+9FcfHj88Sq40/98KzKmTNV7x9J+dsN0xScFOnXkCNdupyxbYbZY+ouBEmZCYTZflzLOiLI6N5zFYtlGgiLGY775LQTS00VI/4x9fn8z8sQSZlc1LebkwgKkDh+BzGlTMPqSr2LyjTeqgDcsXozyJ5/SQR5eOqoq1S+QlYUMsZhTx45B+phxSBMBT+QoyoRy3HdJZprxzgPzZNxWYcy0KxpCV5mw3nBeP+PvXW+x7F1o8YorAyz35p6zCrTOWSyW7SLviMNx1MKFGH7eubJk5NFIpbPsFEEfhn7mbGRMnYpISwsaly5BpK1N1xhaN27UUutPSUEwL9/17QlvOk5avRGNRMTSb0JHTY1Y8x3GV124tRVtW7Zol3prWRlCDQ3OaiHRqG8Tj4aLRhKE6Eq4uRnt1QzfKEu9hbZY9lx6692ywmyx7CApQ4rcuZ4QwQ0mIXP6dF2iqMULc9uWcp0mZWcjmJbmFN2+6W2fiYj4lj30MJZecSUaV6xQv7bNm7HxX//Cih//GEsuvxyLL70USy67DMv/7yqU3nU3mlatVkGPp3nVSgnzf1h17bVo3SSNihhbZzrc0opVv7gRy3/0Q9R9NNf1tVj2Tnp7vNEKs8Wyo/TB+GMQFsawCDIJpKWKZZys84a2zZskUBRJHDjmd8Stv+3KSHsH6j6cg82PPor2zVt0UNri73xXBPP/sP7uu1Hx7LOofustVL7wAjb+4x9Y+dOfYsGXvoSKJ592Y+gkZfRoFez199wr21+FqMTt4M0198OHVTfcgNK//hXt5eVI01HpFsteTNQp3zoC23VmmVhhtli2G0d0pDS58z0TEaux/uNPdLR22rjxCKSkumtUj9FeUakzqSNHiY8Tp8+V9O7dtsJtnLyG6uux4Itf0se8MqZMwQFPPonjN23GKQ0NOLakBDPvuhOpIr68J/7JRRdi3V/vQDTMx8CkiRGNILmgAOOuvAJZs2ai/IknsObmm2W9sayd/FG4y/79MNbdfjtShg/HeLGY08d5B71ZLHsfrv5KOepahrlMZ4XZYhlwRF5DYWx65BG0lW9BcmEhCo47zuijwm7tUF2dzrdXlKNCLFbHvYjK115HzXvvi0AuQVtFhYjd9gjy1qy45hq0rl+Piddei4OefhpFJ52EpOwsWSONg2FDMfLLX8ZBzz+PUV/9KvypqWr1Mk/OQBUn+1kzZmKCiC0fE1svFvGWp55CRJ/hpihHUfvBByj+zW/hT07CuB9cifxjjmXSFstejTZbtRw5lYARaGM9W2G2WAYasS4bFi3C+nvuQaS5GcPOOw85Bx4oKzqVOVRfp4PCSNm/HsTHF1wQcwsuvEgt20VfuwRLL7sca//yFzSvXSeFWYNvN62lpRj5pS9jzKXfRpCCzOyYprzA6FNEoCf+5Brkf+o4hBsbseH+f6hlz4e4CLvch3z60yLOP0KHNCz4SFjjkiWat7ayMhT//vdoLi7G2Msuw6ivfEXC62YWi0XwCjIxy4GcrLwbkg8euA9Z+JIykH3Ile6SxbLnw3vJxJUutG3ZjGXf+x7q5sxBvljKM/70J/jT0521boHUEcsieOw6zpw+A1nTp+tAMb5oJKmgQES7GU0rV6Fp2TLUvPsuasVlzd4XqSOG6/Ymtd7g4K/Kl19Gw8KF+ujWvg89hOT8PHctYTzGOf+DfHxr6lRs+Ps9Ks65hxyC9AkTYynyhShZ++2LUG2dvvmsQ6z6IWecgTW/+hU2//e/GHLWWZgi83y8zMTbObVYdk0aP/mbNKSdAZn9zfi8qTh2wlldXiyilrI7b9uvFks/Q8mhY+u3vbICCz5/oQ6oyj7wIMy69x4Ec7Kl8EkYjzalFBVh8s+ux2yxqve97x7Mvvdex913Hw568kkcteATHLt6Ncb+4ErtVq776CMs+NIX0SFi6OA0BrYFWropRYUyZ3LsyZDgvcOds99+2lDgCO6WkrWi8LyX3LmdPzUNE67+MfKPOQZbnnwK88+/QAd7UdAnXn2120VOtk7HYtnbYV1hrGVOrTBbLAMAC1fjsuXaBV0rIpp31NH6Nq+UIcPcEH3FkUb+Tx4yBFNvugn7Pfgg0sRibV27FiW33KKhtof47vREUJz5I9kHSHgR5LaKLfp60XiSpXEx/qqrkDp2LKpfeQVJeXk62CtzhvOImBVkiyUxpueMWIvZYuk3jG3Jli/QuHQZVl5zDarfeUffjz3tN7/W0cud91hZEBMIlXp1I2DizUKbe8ThGHLWmfpKzs3/+58+E93tNj3AF5k4km9cdzjrAulpOnVEuWt42tYUcD6DHUhzwnH0eVJuHjOtyz2nYbHsPcSXBDbkveJshdli6Wf4opCll38PVa++ql+Vmv2Pf+g9WJ/fFLdEIko/47w4fl7LNZCaisyZM/U+Nd+81e6+mGRb4ehvh/g0E9O6ebNOA+kZUnMEdN4LB3+V3nknmlauRPqkSfrM8rrbbkPLulI3hMVi6Q3blW2x9CN8PIiv1Zx39qdR++Ec5BxyCPb/97+RNnqUpzXcNxHsHmd7Pn4UE3qa6NtB1ZtvAfrcMbfvKV8+hNvaUffe+2plp44cCX9S0F3nEA2HUfbQQ9j070eQs//+OPTVV1B48kmoev11fXEJP41p7WWLZWvMvWUvVpgtlh0mqi/WqJ07Fwu+9GU0Ll6Mgk99CtNvvRUp7ocmHBKJnzPog88xm5d3OHCa2FEEW4pL9JOSfMwpWV8JynXbRs3bb6Huow91vqet+ZKQjQ8+oAPZ0saP15eRmA3YFR6NhFH+zLNY9fOfI3XMaEy+4QYkFRZh6q9+jezZs/XlInzlJ/PtbGicxbKXEnf523vMFku/4QgMG7x18+ZhxY/+D7V8JOqoIzH1N79B5swZLGUSxrg4uKH88Q1c6+68ExXPP69Wt8bpriadPo5f06pVzos+RMwLTjxRH2faLiStVTfehKbVa9zETErOzyGqj3mV/uU2IBBA3tFH6SNc3v2pnfMhVl57rQ4MG/PtbyH3yCPUmk+fMhnjfvhDfUMY11fK/pk0LJa9HWMpe0WZ2K5si6UfaFm3Fou/fSnq5n6EwhNPwL5iHfLRIr0n3AcNaly2DGtuugmLvvZ1iedbKrzdwfu3Sy//vqQ1V59v5qNI3Qp/L+Qedjiq33wTy668Es2rV2+lmbSEq157HUu+9z1Nl89Yj//BD/UzlyZw28YyFP/2t2heswZFp56GUZd8TR/n4jp/MIihZ52lbxAL1dbqRyzqFy2RNduXX4tlTyW+O9s3evj4aOalJe5i/+NPH4JR313nLlksexaNq1fho5NPQfumTQhkZ2P4BecjKSe3U3fcl9UnIvvAAzD0zDN10BS7gbf87zF0VFfpaOasWbNUOFPHjNLR1x2VVaibPx9Vr7zCUoyUocMw7Q+36KcknaeN+9bG7qit0a9GlT34IKbffrsK6vq77pL8+jDkzDP0vnggM0vSqxTRfgtVr0p6si590mTse/99yJw1W+NhI59d6cU334zi3/1OX4hykFjxnS8rkQCsbGQSam7B/HPOQc1bb2HYuedin9//Xh+tslh2ZTbdfwg6Kha5S/0Hi8Wx487C9SfeiaCUbfOSkUAg0PmykXGjJ0fTvtF9C31HscJs2ZNZf++9WPrd77pL28bIL30J0//yZx1QxW8UcxT3lqef1td3tqxbh7B+59jTkpaCmzZqFLIPOgijvnqxvnfan5TkruwbXmGe8dfbMexz52DjQw9Jo+B/qF+40EnThZZv+uTJer989De/iYyJE901DmX/fgTLrvi+Pl896557kHvwQe4aEmuZ6P9Wsaw/Pv98NC5digk//jEmXHWVZ5S6xbLrMaDCPF6E+YQ7VYy94mycFWaLZQdoLilBvViy20Pa2LHI3n8/faUl5YtSFm5qRpNYsXzPNN+y1S6WK58b5iAvWskcTJYxaZJ+NMK5N2UEsG90sZhFmEdffDEiHEwmDYHmVavRumGDNBIatLs6ddRIpI4egwwRZz6ipWayh5oPPkDbxo3axZ19wP7adW2aEebRLgqz8eOguKYVK/XFI/nHHSvCvPUjVxbLrsJgWMwUZuNiokyL2XZlWyzbi5EcwvlttQBlG27m0btYjFJ61ViOhHVeRcwvBbaLOG6bKJP4ruzRl3zVXeOmF43wT6P2S2URQ/MZn57JLcXXkWLjk0iYfWaG6Or4+CyWXYedKcy2L8li2W4oLMZtT1GS7VTsOl3s53O7tYJJ8Cclq1VNP2/Y/sHExQpBnD+olq8/wOeUPWltJcrErJft3Hnz68TjxziM47LFspfiLU4UYjP4i1MrzBaLxWKx7AJoF7ar2FaYLRaLxWIZRLyPR3mtZUOvwqxhPY7LXmexWHYftiqysYJsC7PF0he66F+c867zuq3peivHWMpGnHsUZoZJT87E+IKp8PuckaNeMlOycco+57tLFotlVyeYloaRX/4Spv/1r8g76kinTGud0LWisFgsvZOTlo8ROWNFWP1b6SPXHT7+BJ2PF2fqsBFh7z3mPnVlM0xyIBlXnvBrnDDtM0gJ8o0+ThEemz8J3znmepw16yL1s1gsuz58Zjr/6KMx+qsXI5PvvFasKFss28PQrJG4/FM34sAxR6s4Ew50nDH8APz45D/gyImnql881GEjwsQ7T3q1mOtbavDwR7fjjBmfx5cPvUIT3WfYAfjhCb9DS0cTfvH89r1cwWKx7Hzi6gOLxbINrKtZhbdXPYevH3kVPrvvVxDwBXDs5NPxg+N/jaWb5uG+93/nhoxDyp33nrIX+vf4HLN3u5G5Y3H96XcgIykDhZnD8ff3fovHF/wD4Uiox8Jtn2O2WCwWy+5GX55jNho5dchs3HLOI2hsq9Oe5d+8dCU+XPd6Fw01Okm/48afhWuPvwNJSUldnmGOOSdoN3gEt7WjFcs2fYzM1FyU1a3HuurV8Lumu8VisVgseyPsRW5sr8eCje8hPTkdqyuWoK61WhTYDZAAirO5t+x1hp6V1Q03dcgsfO+4XyAjJRM/+N8FYinfh4sO+i7O3f9rCPTwWr3OdHrIocWyS8Jr1nFdr16zZNbvKpj8eB3/d853TndBTDbVmRmLZbDxXoiJ4eVpHPXvkHHHadd1ecNm/PCxi7Bw44e49OjrcOr083XQdCKM9WzuLXPqvc/cq8mbk5qH606/HSWVy3H7mz9HsUyfX/Jv7co+csIp+NWn73dDJsaKs2VPYve6ir253UVzbmq4LuxeR9myZ8Grr7cr0ISZVDgd3zrqJ3h95VO48+2bsKp8MR6dfxce+uh2XHz4D3WAdE/o/WTXcvbS6z3mgvQiTBu+P95d85Lr20lSIAk3nXUPrn7yy65PV7h9ZnoOrvs2xZstAsffYtnVcQqKU1j0y41c1kXTwnUWucSuLGUnXuBawJ05553U8o9T9ZUZzTrb4btKIZT8aq7kT/PL48usOms131FmVz13kTxb9niMQBZvWIyHn/sDGppqdNlLrCoQRueOQ256IRaXzXV9OkkOJuObR/4Et715gy6by5jbe78uZe4xc0qR1mlfB3/xmSw+z1yYORTtoXYx2zdibdVKtIZaui033L5TmLvSabZL8XTTcbxsIbQMEnLh6aUnF57IgM7zWmyNdqA53Ip6cbWRZjRG2tAeCSEiIaQIIdkfRJY/FbmBdGT6U5AZSEGKL+iKCCNhpB66KyDbQacAO8lwPhhuR2pbIzJb65DVUo301kYkS7kMhiXPknZHMAUtyZloSM9DY1ouWmW+LTldGhzcaycijbMf89mJRO4eD82vJOFvDyOltg1p1c3I2NSI9IpmWW5FUPwZKJQaRFtuKpqHZKBpWAZa8tPQKsvRJFFqE53EE2sQWSz9hVsnlLjCXN+NMHvhdViYOQzjCqaITuahpaMFm+tKUSL6GInKNe1iihe3P3bcmbj+xLtiwmzEmU67tfsizHyA+ptHXSPTMahurkCSPxlZqbmYv/4d/O3d30riISdgHNxehflSV5g9O5RImFnO+Dp8i2UwoMh1XpJRNEXasaG9BhXhetSFW9AiAk22FlxnO5+Y0qn+JOSJQA8JZmFkUh7SpGzEX8Gd1/qOEzGffhKC0kAuqtsgbiOym0WQ2xslT5ozNwj/GcvZyXxHIBn1ItA1WUOxJXe0CHWe+jNkf+bToOk6SYvihpG7rg4FSyuRU1qP9MpmBDq4Pw5M31gshrCIcZMIdN3YHFRPzddpJBjQDNu6wtLf6NUn16CxmHsTZtYNs0YejC8d+n1kpeSgVhrGqcE0ZKRk4bWVT+KRuXfHxNkUL25vRmXzW8ze7zGzDKj1nJOVd0PywbXOFnGYy/6y436OoFgJt711A15a+l+8vfoFrCxfhAsO/Jb4B7B0c/ffo01OSsWxB3/GiUv+tTa04K1/vYPVH63GmnnF6hqrGlAwMh8BKXADUTlYLAlxLzVO1rZVYUFrKTaG6tAgFnJY1Mwv16LzlScRARYYfn1JAvMa5TachqXQ1UdaURluRFWoEam+JGQFnBfxGPrzmmadQPHNb9iCfUrnYFRVMXKaa5Ac6ZA8UaooWhxwwuEjLE+cpx8zLgVehD1drOvcpkoUiqD7Jf8U56iU44Eqe7wVkNTYjknPrsbodzYgr6QWKQ3tkhfnuDJvekxdR3yspGTqF91OqW9D9sYG5K6pRapY1vWjsxFNlvxqCIul/6mpL8fiVe+jraPV9UlMblo+vnPsDVhVvgR/e+c3eHXFE3hnzYsorV6NH57wG2ysXSuW83IN617ayri8qThm/JmdFrK4LvNuuISwEuArOQ8ffyL++cGfUFK5AvWttdIqkEps4wd44INbxZL+iRNWAntbEgmR9S2NrXj13tfwyt9ejbkFLy9Ce6tjnVgs8fCyijn5p5ZuzMUvi9OfZxvvzxNOFtERDeGj5mLMbV2L+mibiEgUAbZY/bzXw/s+MhXR4reJ/VzmvLhAgJ9GdOdF8NjNXRVpwjvNq7CkdaMItmsJ7qB2xOfZFwljZNVq7FfyFgqaKkSQw1KQg65LEiVLFrETx6lY8z6Z9+nU42Q5IGqZ2daCKRs/wfTSD5Da0Szxdx6rHaFrfqXyKqnHIX/+EMM/3oLUxg5tPsQsBHfq7crTebei0mVOJUtpIuYjPyzDAXfMQ8bmRnYf9Et+LZbtZXjOWGQkZeqTSpvqS9Eg+ljdVI4PSl5Vof7cfuZ7513hNRtrhLpTYuZ7FGbC7uv2UCvWVa9yfTpZtGmuvpIsLSnd9ekZTVL+dWbDg5SthP4WSxecarjTxS87zosKDh3nHS8VjbpIi4hyCUo7atQaVmfEQCxNLuvUXXbmZarL4qT4aHiKtIZ3WrvL2zfj49Z1aIm2a7o7isl3MNSGiZsWYdr6eUgKs3ssKIVGxFgFVwTYFWGKM2TerOO8j13sGk6W4fr7eV88gOE16zGz5F1ktNRudey2F8bj6whjyMebsc+ji5HcwgZEp2XgdV5RjjnXzycNJCPeur38MmrbMOu+hShYWi5pSJOovzJtsWwjQ7NHorJpM6qatrg+ncwpeR2FGUOREkxxfTrhddwdWkbc+W6pba6SQhZFtnsvyktR5lC1njkYzGIZKMb8+23M/NlDrnsYs8RxvvC9ZZh014uy7PgPf2E+Rjw71xPWcVy/z+8eU7VgcWA9zvvHi1o3YEu4USt/Vvy0ho2jMMSsY3faGYb3hGSqFrU4FXQnHB2L1YaOOixtLVOLfMdwCnCSiPIkEeWJ5cvU2jUWsrGAY/Mq0EnSSKCj9ezx96c48254GCtbBD6/sRIz176P7KaeX4zQF3QUu1C0pALjXi1BakOHpBNnAYszfonEOmYxexpLxjF8SlMHJrxUgoKVVe59dYtl8KkT/eObvtKSMlyfTkbkjkF9aw1C4VAPMtwV09PUqzBXNZdjxZaFOH7qp7VAGFLFSv78QZfin3P+hFBkRysfi6V7hryxGOP/+Ya6cQ+8ro7zybVNqN9npAj0ctWv2v3GI++TYlnnrI+5B97AmP+8q3Gxq5osFFEuDzWweSp/juiqUyvZiIAjvs59Zmc5Fs44bqvd3SIkajWLMIuoRySddWKJr2zfuiW9bXDwFruvi8VxkCbvBdPS7RRYI8bqRGQ7u7aNc/11nTc8p53hcsRinrxxAVLbm52ktxPWEplljZj0fDHS6tslbleA3WOm94+N8Bo/PQ+dzvh5p7GwnIpfek0rJrxYjBSZWiw7g/XVJXK9+zFj+IFynbqeQkZKNr577A14dvHDOg6lr01HXuukV2EOSuF/r/hlfOGgy/XtJgeOOQonTD0bv/vMAxiZM0Gf3zps/PHqZo842N2qfzCth0g3Tv7ilrs69ZdDouvcqS4bF43ELbsugV93dNnOdZq262/mY/mJc/TvjS77EheXmec0fl6XvflwXXeYsLGpuC5xxc3HO/onoqdtunPebbyorqpfFFP+8BTaczLx5nM/w5KffR6F7y7FyMfe56ouaL7E6SUf8aGkvRJloVoVZVb0tOA4iFFFWYTY3EtWy079KMgM6wqwu40j3FxHcXZEQ8OwqMo8M7tChHlzR63sh1xrkgf+esPstx6DCMSKrcGYilUIyHxMeF1R5n1kvxFfzptlCrfrtMHgrnMEWXLo3U6n7BYPiOVcgRGVayTdkOYh/vh3R+zalF9QrNkZjy5FSktIjwMdKxweM069QuudT9il7Trvdsbi5rmhOE97fAXQIZWf57hZLINBa6gZq8oX4dpT/4yvHHYlDhJ9PHPmhbj7oufQ2FqHLfUbcLho4+Hjjsc+Qw9gNaR4r1Dv9Wrme31cKj+9EL86+x9SwA0semaJkXSuKa1ehV+/dIW75GxvHpfSULJcvbkGt5z7B3S0dVrZM46bgXN+8llk5mVo4TMwk401TajcwO4qxy+QEkDhqEKkZqRo6vWV9agpq0FLfQs62ju0wKbIupwhOSgYWYBAUsDJiETr7rPS1tKG6g3VGn97cxsi4QiCKUmah9xhucgqyNI8m0109GgCeDT0TyIPtYfRUN2AhqpGtDZKflo7NF5/UPKUloKM3HSNOy07TbZ04uN/7z4nQqs7NyMdre2olv1tlDTaJN+hjhCCSUGkZaUhe0g2cofnagVHajfXor6iXucJu2xHzxjd7b6wYuWfZioSRZNYpLWb69BU14wOOV7iJWkFkJGT4aQlx1gi020Jo5Xq013qhMfGRBsOReT41Gu+mupa5JiFRAQiOiI/OTUZqXJseA6yi7J0P7jdwZfeieEvfsyoNC4nk3ItHTARK79/FprHDUFbYRYm3vUixvz7HaSVU3Q725yUjLb8TLw094/6GNR7LWvQBrlW1MJlJc9Kv7PyN454zw3nnJRduF/uvulUnRxFmYZln1SMI2Fk+dNwZNpE51EqiSTRMfJi4tRQEs/sdR9geM0G2SVHPHmPWOVfGgScOvsq+dctmHduyH/MjzN1HGHcovBUfJ5xtua1RR+WRYpxB5pTUrFw/BGoTy/QLbzHoDsYq2Qbfrnex72xDmPe3uCMuvaIarwjZpoIHgdD5/HtdBE5Nma66rQJ2Hj4KH02mzH2FK/F0h16xck11dfHpaYOnY0rxWDllrziOlfxOpQlKX/speO65eUL8cdXncHS8S8YMY1SXrec71WYGT3vL5tEOxPTIIpZxy9NNbV3CgG33xFhZut38WuL8dxtLzgJCLnDc3DG905HZn4W5j83H8XzilElAttM8WjrUPFJy0xVARw5bSQOOGN/FSMTb2tTK5a9tRzL3l6GitIKEfYGtDW1ISoVSpIIQ0Z+BvJH5mPyQRNx4JkHIkPyRLoXZoiANWL5uytQPL9E8lIlotOAloYWtLe0qzAHRJiT01Mlzxn6WNhEiXu/k/fVuBlrb5UIKx/me/l7K7DsnRWoKClHnQhbm/iFO6RBkUxhln0enofhk4dp3GNnj8WbD76Nj578SLdnCsHUJPzgoe93m54RZjZ2Fr68CGvmrtH90cYL90UqwCRJKzMvEzlyfMfMHI3ZJ87GyCnDnQgkWqda7IpWpDItW1mGBS8uxIZlG1C7pc45Z2y8SLwqzGly/HMzkFmQifwRcg4OnYQph03GMVf9I4Ew+/DJ7y9Guwju+PtfRbM01oq/egIm3vMKxjzytqz1dgZF0Crhnv/oFixtK0NxqJIH3R3M5QqHXDcUaXNsEp1vrnPSd+icY77k6EnLJWbpqihHpEzwpRk+TE8ZhsnJQ5lswmPkRffQTaegYTP2X/MughIHhZkWM+8JqyirZeyIsoOEicu3N4+KCrKmID9HmOlHYY5GOFiN5TKE0sLxWDbmIJnvLbcO5hxnbWzAPmLBZlY067F1Gj5O/vQ4e5zx644uxzp2XB0/ryhzWj8kDYsvnKEvI2GMPcVrsXSHXl1yPfVVmPkYMbutCa84XRe79FjvqmIqoXCH6GODzvM55uu6EWZOA/l5RTckHVitgYk3UUNbqEXf8OVMW/URqvZwm37iin5mPf3iy0OX55gFPi71/qPvq2AZhojFM/3ofbRi9hYoZmXdolLMfWoumuub1dGyyS7Mxkt3voRPXlqAShFXWsu0vMKhsLr25nbUlddjw4qNWP3hag0/dPwQNInAPPn7p/D2Q+9g47IysdxElCUst2GlyjgoFlXrq1Dy8VpsWL4Ro/cZuXWDgTmTP2634JWFePQX/xXBWYD1S9ar9d5c6whOuCOs+8kphY1WbsW6ChXwdQtLpeEwQi1z7yE31aCpgLjYUN2Ix371ON55+F2sX7pBrU1ayxq/VEy0mlvluFLsNkqeV36wUgwrv1rMK95fgRaxTJvlGDEPx3/1U133hemYRZldv3g9Hr72ESx4eSE2r9mMRrGa+Sib2RdzjKo3VqNUwq58fyUCItbDJg7TBgijY8614ebuQli2e/Nfb+OJ3z6J1RR7Ob6aH7H+eQy9x6ipphE1G2tUxFd+sEqP2ZEbK5G3XsQ0hhM5h0iMe+ANZMt5zpFjnyPXSlDOZ7qENcdRkUyFpWH0yTeOw+r2crSL8DiDtVgQKB5OYdCpOB6fRI4k9NP/grtMzDri3DABioKZSGI3sjdvCXEPnDCr9CNktPO6p7XM0d9iLaso03I2wizxmUaFpuv6GWf8Y3ly/DU8T5Tz5/pLZSKTjNY6lOWPQzjANJy1PcEccxAWB3wNXVwhdrzkx9PY0ePrVjzm2JhpdyQKG7+NWQ5IQ781O0WfcaZPfDiLZVvo63PM7BXzamA4LPWP6GNTWz2a25tiuknXIesMfI752AnOc8xqIcv1SmfKiGlqd4GPPx0/5dP6qBSvbzpWWLyP/OS3FuKpSxfh6W8v1hd0JwdTJYAThm4gMJkmdRV1eFFEed2i9dp1zK46FQK3LmM4Vtn6E7Flt+/jv35ChLYE91/5D3z8/CdoExFzgjPTOuMIoRsHoQCtEmF4/q8vok6s6nhYn21ZW4E3/vEmtqzZglYRBMcYYZxOpKzQ+HOQyH2SJ0mnQwRozdxizReFmtto/j3pE4ZlGrdfcgcWvbpY8i0NH/HzHmc9NiYN2Z4iV1deh5fueAlL316mfhp3N3BLrg+JMC55Yynu+MZdKBNxD4kYa6yyjlOtZHUglCyph6Ql1jot6mf++Cw+eOwDFdfYRhIpk2Wj4Z1/v4tX//6qNoQYhv50GhXjdS9Gbss2pq6XY0nRHjJhiHbTGzr33Yf8+aux9uLj8cZLP8fbT/5Eu7Tz5q7StL2Y9BrCLWiKtsu1zNapHDVXNLyP4xD164OTf7qtLrtT5760LOuB4L5JWpJeY7hVX1yiGekNCcOt+YrN/MYqiVfEMeYo7BRLRzCdfXDzLlMVZZ33OI3NOK53t1HxdESey44/LfIAgtLgG1G1tk/ZJUwm2BJCfnGtcy9cPLyi7ITpPNfb4xJt+//tnQeAJUWd/38vTc5xZ+PM5hyAZdldYAkKgiCIkgQxK57698543iliuDPd6annmTmQQ1AyCCo5p01szjnP7k7O88L/9/1V13v1et6beZPebKjPm5rurq7U1VX1q191dbUO1x+MUCFr64E2ux6CZXjBstTvmnFt3GvCKOuXznw/y8b1IiOf+IdNdN0Zn6CAL8NxoeqIU2SjoOyinY8qYgzsvKFgzxnVmPq9bMoVVMWCWTO6sFo+ZfXUpgfp0/deKR+CXjrxErr+zFsdF8MPEhxiYQwBpVsvDA+PnzWOppw9SYZvC8q5x8yNrrjni8Wz6bbmdrrzi3fTXtaq5AwyiNuK0rGlVDO/WoaWx84YK8+m3Wx6ZTOtf369c6TgJkHCrZhQTjPPnyFDyWLP8eaX5dOEeRNo1gUzaf5l82nepXNp6uKpVMZxocEG6hZEWGveQ6/f/4ZKE4juKI6x5nf/t+4X7VTOyXnlCMPJ1RzPjPOm08xlM2gyX3/ZuFJJA4QbtM8G7pSo2FSMiZCzLMw3v7KFHv7+IyJIBVwgR1XJgnHORbNp6XVL6LwPnEtnXL5A8juQGWC/6CQgrm762/88Rav/tsaIij1z/h/eUUtvPvyWjEyolHMDnunn/B5D8y+dT+dcs4gWX3sOnXXlmTRr2Uyxz8pTK2eVc/7OuWiW7JuoKyTac9MFtO+axZTHmn0md0Y2f+Eqqr1gjnLkAlprXbgNc7/k3nPRVxXAMQgPxzD9Rfxhq/chiHgrggQx8T3ppBA1cccg+Z2IB3lb2nyUg4FQU8+RRUsWAztciJNW3mL0INqpUbaJES86B5VBXiBcJZx1HD4ahefaKSYY7Yq/I0j5h1o5HJWP2gC9HQiJ/Jrhi+E8zjvaThnN9tVNy/CCdbHfOeMaeTNJM7ViDn31nf9J9634FX36vivo5y/cTh9b8lV65/RrHBeJMQWyScIlObMzckU73nJ4LR1s3Ct2Sya+g0YVjKcfPv0FOtS0Tz7/2NbVTJ9d9k26562fqyFRxl2HBjuUfXDLQdr4Emt+LuBuwaXz6J2feAct5EYdzzoRRvWCagn72N5jFMZsJQcIdMBVWITnxR+9kM69EYJmvgie6Uun0ZhpY2T4t1k0ZPj1yFBx3f56ER7R0CSN3Jz5PFRcVUwbXtxImZz2cz+wlM69YYkImfmctrkXz6FZ58+kaUumUQ2nCzfh6B5OV1BdO4I5uuc4nX3VQgpk4X3SGBg+fvHul2kja7HQ/KORc9uJ8C/6yEW08KqzJJ7ZF8ymGUunc+dkMpWOK6Oju2vluTnQ9x35hYlw7qFsnK47VEd//+XTMnQNcBYT1pawMJb85XhmXzBLOhjTOZ5JZ06UDtDedXtYqw2Le2jC6GhMXTRFhucBBg82ct6sfvJtJzdJBPqiq8+mS299p9y32RfOkrzHvZvG4eMaqudPYM3TQ3M4/yYvnExj/rKC8p20RfOBr2HLP76Hyl/ZRLP+7X6qfG4tHV86g3ztnVSyYjtLYk4XIuQMwKYrJ0BPf+RM6qBuDhuapxKcSnhycM5W4HPR/V4Qf2pXiOZrAv8QtFmsjVb686V33Svi2UMTjm2ngo4WDk7NnIawhAautVsUBiW43bElstHwGSedUTfOTizVyOQIa77ddLB0AoV88WUzEfBReKCFxq44rDo7Om+RF4bRmPupoN27wzHxdobo2NQS6sBz5n6Gb7GY9DaUDcF85rhz6aXtf6WObvVq4fsWfIzaulvpJ8/9i3zgaUvtWqnz75z+Xvrrhj/Jvlkk9VC2frYMA3SdSdxCcC1DJdVtICjJqaA9dVupOxTTsDcfXkOluaMoL7PQsUkfS65bTO/7+jUs9KbK8+PiUUVUNr6Upp0zhd77z++lsTPHOi4VkjH8yynKofd8+So6/+bzWMMeTyVjSqkEk6YmjxIhfdlnL5WJY+IHUo3/avfUirYtduqEZDIysGRMMV3xT++mT//2kyL0IFjKWDhmF+RQICMgM40LywpY2FTT5Z+7XDR07Re5jEliG1m4aHSe17Jw3cT2IdZgtXCFsHzPF6+kq75ylQizsgllMlkqtzBHrn88X8+ym8+lm/7tRioeHVsQBtedFA5816pdtHPVTrleuIWQOud959A7b32H5GNmbpakF6H4M3xUXl3OHZCldO03r+VE4WJUHK11rfTyva+ocAHybletdG4kBRwG0gWte9TkSpkFL/HxD8PkOXwdoyZV0hwW1u//+vto4XvOVP56wGWTw86obyE/C2J/Sztl1jXLSlN+zEOIdsj0FhpzRIax1VUgKbxnGtNOXPQP7Vf2lYURnvohfvW0uW984SBld7bzHoQwQkTHgfe5t4OtDtOJLboXs1G47aOGw1RdFmVUU+DEBY2Z92GT29HzMU4ycmvxLFyFbRqTRHapkiwsMfzzd4cpq8VqzJZ0EF+PxxbV0Io9L7EtnuOgbBKt2vsSy8dKUXRdRVfaWr3V+2b5Rt3rgeNMZpzp4Vf01Js7GhFnlIAfw5lhCnLPOp2Mnj6azrvpXBF6caCCsqDIyc+iiz9+UdyFCny1M86HZjZFeiqC4QZ+J7NgHTd7rDT8UXh/7zo1DO4KkfHIECxmcvtYaImggq3pn0FTiklkC1goyVBnlIhMBjPB6MOh7Yfp+N7jcixJZDP3HXPozCvOoExcN+wQB9RSB8SJFavGzx5PS69fLEPG4jnmpAd4trz2mXWilUt+8V8lC8eF7zmLsvNiz3ZNEBxem8KIwNksPJEQ/du/6QDVHXQmE3J6wiEl7DWYFIfXsGQUwA1biS3nYSAng3x+f/x9ABwU4sH/zCMNtOtDF9Jbv/4Mvfqnr1A9a/K1F82l1f/5EapbMFH8KpfKdFFI7rEonHytxq0fMnTPVwkLdazi8lC3vJokp/skwB1gHztWz5QRBhKNLcotQmYz2PQ7GYCU6nsfFfqIi38Z/VjVLxNzIMSvE66x1fuDJVnYOML/QEt3ysPvFstAQf3AVxZ1qcYoHL68aIL5V6FIUN5W6lnve68PpoSIAi95mfl09bxb6JZFn6f3zf+orGyCV0BM5o05h7YeWUctnan3qgeMcWETz6ih/BI1XJqMSWdOosycTKmsmizW/KYumizvQIs1G3f2oCMy8YyJzhGfdyo+JpFFk2B4cvs3iYmrWOIxbK8bFYVHXk8yA8IzX8xKxvu9Gjx3nckdAHkOzm4RhARjBsUHOIRmjWFheebsit8NXjHbu049rhA4gHGzxrJwroiFzVvzOtAXkP4AG2i/GJ7WYFY1OhUA6SuuKmK38Me+uXQ2Hmmk5+54gd546C0Z+q4/3CBp0L3GOBBHL/hbO6iI0x7JCsis3KLVuyjCgrCzoojC2T3nC0BbVYIHAg55hXuLdKrtUKHClh05xhb9NTXtLTU8nFrlG/9RTbF1wmPkHjj7g8MMF/GoDoAYtvfhda8U8QVVilR+qjDN/aHCDFsj8XAm+53HRBbLcFKcXUa3nPOPdPPZn6P3zvswjS2uobAjgKUpY3PupEvlw08d3Rj5SkyyuoHa14OWrkb608pf0boDb1F+ZhFNr5zHvYMAHW7aj+ZV3FQVjKMrZt9Ev33t+xw4IlBmOEHjjeekeBc4wNogojOjVMeqIchgYZFfmufYO3bZGVQ2vkwyDXZKJ+hJcWWRuDczLdSlJ0VJaGqf0QorNM996/fSa39+nR7/yRN07zfuo7u/eg/d9aW76Q9f/j+66yv/R3ez+dt//02Gdk30M2eFehe28XCjxCWGySvJo+JRhRJ3/C+Gcg4hgCH2UvGTSN6Z4NWr9ub45yh4rv/oDx+XV7Qe+h4b3j5oGLF3zGv3v8GROslk09neRc16URM+Hj9nAhWWF0TTgXu4Z80emcn9p9vvpz/+67109z/fI+G+/MdX5TOgePVL7lGStKss8dCkO56leV/9g2Puovm8hcExlubU6PuI+w2i91UnepiID1ndl1SjQxcCRtKoTdSzuT9wJBQjbClN0X3893L5TthE9IQ9RND7gMcEIJ5ovg8BOiy9xcIiskUaLJZhBJ9yvOut/6KDjbupJLeCldYzqL7tmHw3QjOxfAZdM/9j9OjauxybxGiFxK2YJKx1+CjFm7tfoPtW/YZ++fJ36YfPfJn+9fGP0TNbHnFcEGvJTfSnVb+mZzfH7IYVp75BMAdYwHKNRNsdtU9EVkEOu9E/vlifV7TmpDh542GNM1UgPKAh3vH5/6Vf3/o7+suPn6BX73tVZijjFaf1z2+gdc/x9jlsN9D2t3ZE40mMuiB59cgB9wyLn2Qk0AKTgYVA5Fo5uHjxHQ/efZZCwQZbDDHj/e23HnmL3np4eZ9mzTPrqLvD6bRwMHiFLSboPTRu5hg6891nyupkglMA8ToaZp3vXrObNr28meNbTk/+/K/0v5+/k/7rAz+jl+55mYLBxIu/qxAi8lw55+DxhMbXpia/aRAO3iFOTvI8GjBaeDj/M/C6k+z3TcjL+SXD4rG7p8WlCleboUeFykKZhVyX3/W4qBe6c7DMZ+p1Z6gQoe/sd2fj8Y1zYLEMA3ik+8LWv8gM7F+89C36wdNfoq88fDOtZUVWA0H965f/jZbvecmxcWGU0USd1l5rEYau8YEKvBjdGeyQsXKBw2jubJTZZtHvzqaBWC9ZXZccqVY6Icq5umjlk4nuJMA515sTIAKMf3i1aMVfVtKvP/kbEbh4fgo7zApHsmAQs8Suh3Pl1ztwKkuJRolw2J2yqEhviZMYHAGrFx1xou0V5I/SOJzA2T1mtOuwejMIX0WBa1T5bOa3P8tPF3/iQrrs/71LXi/L0I8R2JOzkXBkoZRgSIa1scAINOqf3/ILWWDGHNKHe/UPG50O54i3at9JA5KEM2wJ7S9H1op2jrEDtIdhQSdGGczKjuVML7C3oC9AXb4sxz0bPTTDIP1DjYQYlzTkmYc6AonnGSSitTQbd8E5SjMcbcTnoc4CtVSvxTJcODVSFhcJhWLyEce6CtW1HqU/s2ILu4SgvDrtkGrD4kttwtelMnyZtGDcUpo39hyaWjGbprhNeWx/csVM2nF0o+OzJ0P9uhQmHU1fMl2W21SNb8y9mzdZCzPXisZz2jMvP0NmMSfypxvNY/uOs8b7tuxr8J4z3hmWjHTsDm49RE/89EnROgXOXEy4wszrKYum0KQzJsqrP3ivuYYN3rMun1BGh7c5r/44YOIYJnXFiMiqWnvX49mvShPyC+FWTqxUQ6IJ0I0iztbuPkorn1glq4bJdfFfotelOlo66Y2H3lQHbI/ndFWTq2SZ1DEzRrMZ06fBu8cw4ziPxs0cS5MXTpR1ypFO/DDRbvyc8fJud+nYMnnujGF2PC/3sSYN7VnKA9LFl6BS56EWTjvW6j6XNeByrH8NnMyHNtc0awLVL5hIrVOqqDs/S2Zpe0Mh5d95RiphMsGcTFr1ifOpOYLV6VhM60lZcIWt427oQHhOpwEVj3+jvPlU5stLev+i8Gl4y+tsoZLWBk4bXwsmgfFWUiz+VRh9hNQPJKGOQd2MUKc/QNurpnIkfWvBuE6sGzB63TFZYMSc9DY8+RsP8hcrfx2cVy7Cebjjs5za9Pa6VH5WES2csEzmXZmyMJHBq1X7G9TkXrNI1sjrUldKOY2+ImXWGfda2ahgRdml9NVL/lMCbe6IF9puoEV/5ZGbnaN4ENZg18pe/tgKeuA7Dzo2RJk5GXTVl94js4b74mcf/oUsManBa1Cf+MXHqHx8WVw8Jui5YE3qOz5/p2OjwEIY7/0adzDEX4SwRvVr979Gf/npX2WyFoDgW3LtYnnnGe9KZ2QEZEyCsxmXLmDY+2c3/zyuYzJp4ST65C8/rrRbBmlY+cRqWepTelXi2yOzspFPOQWxF9tNdK8LK2a9ev/r9Pf/eUqWvZRwOd3o+Hz3pW/FXXtLYyt974ofiDYOazidc5GKJ8P1bnWfsGdo3liaU30uUcWDdKkrUOFDEGMZ1faWdll4pL2pjY7uPU7bXt9K25bvkFXH4AP5hve7f9rURBeyW4Cwwn4Pbfmnq+nIJfOoqxjzCDzymtSoZ9fQ5F88KZ+DFGGm4V5rR2k+/eaNf6VNoSNcAZx3B530IZ3JysNAkOtFXuDHceNe4x7M8VfRaF9hn3Epf0RlzUfp7F2rOJ0YnsW719C48dwX/tX1DU2qVTohkNXa2dxR4nq9r3gUrR8/N6W8QV3NbOmi+X/eQsUHW1X+sgFDnb9A5XHMYMTlaE0BbbhykhXMlgGD9okLVK9rZU8un0VffMcPqYuFNrTlZGWNSybtPr6Vfv7CN1U9dZxx8LSs5gq67eJfk9/vj3uXOWqU03jQqCHC37zyPfrywzf3av750Q87vk4fkLH4+DU0ZlPAYqUqvAtdOrZEXuWSV3NwN8z7Jne+byonV3B4mFWtvMCsfXZd/HvCLrS73ev20vN3vCBLf/aI3wVmVI+dOUb2cV0IAM+YsdgIPnrRX4NJeXiWH4eTBAQPsFIaOi4VNRWiYWNRkiXvP4du/sFNdPln36Ve82JQsDG0DUEehQM6eMXZtOOTl1DO7lqadft9NPu2e6j0rW205wPL6PC7zJGHGMiHAm82ZXsypCEfflQciAp7uRxvnifFOQLsAflVl1dK3T68kuig0z0M6ZciwuHqziEs9pWOj8XdF+y+O8tHDePVgv4gPfmsQGelaVQudeSn/kzcYhkI+CRsW0czffuvn2Gl9IMJ5SLMVx7+IP3PS98WPz1rgtS4aB1x15WEghnBdAU7Wfh0cU8Yn4Lr3ZxuSJayPMbHMqINGQMhF8hEw+BkumMAOlXo1WOyU8J3eAG7Qe8LPaZRNaNklS28+oQ4JETePvPb5+iPt/2JdsmrRvXq4x7NbdR4vFkWJXnjwTfo7i/fLV+8kvj5H3TPZODRwOyLZkcnZyF+LOWJD2Yc23NMxa0NHEigysAOrz9temmTs1paDDwSxZP2IHdc6g7UUyNeCXPjhKmumbVjFth4TQuLpugUuwss7JtmTyAfdzrO/MyvacxfltPoJ1fR3H+5iwrX7aG2saUUjns+z8hQMFE+C8cij1oVCuHGhxx/NCSozJc0F3tzKNfbP6ER5nRvrZzMewgH6UUaYThEPtZ5NFAkNITr5AVCxKttOK7LLaIGNv0h7PfR8ZpC6ihQnR+ECXQcQ4kZHvY78wN0fHKx3FuLZThBO94Z6pCvRWHEOJFMjJkQl0musa5imayU6nKdUDC3dbXQU5seoP0Nux0biwmyDsITq4iZOVx/qJ4ObD0oN04jp9kDXqfCRzEg8MzzyYDmufCqhaxRjnNsYqx+YjXd9YU/0J++9QA9+h+P02M/fkJeXcKrWQ//4FH5frLcXkSerAQ4YLETPA/H82TT7cYXN8mrUiueWEUNtY1cwGINLZceaqlrpnUvbKBHfvgo3Xfbn2UWddy66+wYwTXVNtDjP/kLPfhvD8urZPs37pd1vE0QLgzWNMcXpWQBEjnD+SxD4kYx5ROZtfUUzsqgA1efQw1zq6lh9ng6dOkZ1FFRSIGmdmPlL41KO2ZF4zkvPqGorE13fWRUP9CVS/5zsAHy0RhvIVe2JP3gXjhQPJoaszBcz6FF08tbSa4+HhzqUQkMyiV3prhM7C6bgFP9pmFMHtWPNb6YFpfHQ0NUKPNG7x+vLqQGjtdiGW6Othyiv6y7h9q7Wx2bgYGym6wjmXDyF3oBBxpZ+2ABPdgO6PBM/sK61ixI+kAmf9W6Jn+9O/nkL01fk78AhqmxmAa+w6wbBwicQxjeDobkW8v4xjCe8R7ga3jt/tfpxT+8JAuVoLEy49eTv2AjQ88OOcU5MqFqz/p98vnDGBHq6uyWsA5vPSxx4itV+ByjpIXDlqF03mrtHKEmmvyFs/iWM9zvXLmLgsazf3zCEp9p3PbmdvmU5K7Ve2S76snV9PoDb9Cqv66mA5sOyAzww9v4uvmWTjproooMcFo2cf7gM5tHdtXSjpU7aDuHtfnVzbLEKSbBHWSDL3+tfWY9vXD3i7SF3WOdcB1G6bhSeo8nTGOa1Jq0SG/OgeNUf9YUOnDVIqpdNluGrw9fdibl8H2b9Ju/UyYmvBnXCF+Y/LXjk5dStjdALeFOavU4nQNxp9zG+xk4uAemqfYWU5UPnyNUdzfleNhZmN3i04vlLcfJK7dWr/yFjQ5x4CihDKAv8w3k9B4uLKO9pWMphHW5+UxK6XWCCfu91JWfQaM2HSdfSBIs/rUZSnRXsSvLT2vfO4m6ctWciJTTbLEkobfJX1gwZG/9TpGTUsoGUNQmYPJXjfrsozYos9Gt4y4KyrNpLImBYMbXnTA7XIQhmgne4t3cv/z0SfrhNf9B31j2Tbr94u/IZxvxQYq6g9wBYkGpG1M0LLpxSQTcVU2tok/998dpxvnT1Q2Bc9wbtZEhY0SvDSwxQe6ij15I42axtg07PqHT6AYToDABAbPVL/30JY5tzG1Hc6cI3w3Pb6TXuXPx6n2v0eq/r6G96/fL2tgCO8UkrjV/f5u6MIlM2bJ1hF6+5xV5jQxpCHJn4ujeY7R9+Q75qtZff/E3evRHj8rM9lfufUVWAuvAxzfkYtSz6AWXzZeZ3xqEnX24gZa+73s05xv3yAcrit7eSVN/+jgt+sjPKH/XEeUwDi7s8Ml/Pt6fHaiijIhP5QnyRn6DA2HB6NfMANJa6MmkaYEK8rHWL7PUU6hUcKMqp9rWFpTTocIKvtfO5CxJrZN2bcRnP4ngYYOTXiec1kCGCOVgIDPl9AJJr2MaxuXT9mVcL5xzOmyJZxDoMNxm3ZUTqaM4W/KrP2m2WAYEFy8UMSlmQ1TUUI71Fqb/Y2sWAfejnDV9rMk9eiqGgePvEDcP0kDoDAdZeZl0zvsXyYcvBJzqs63yUDZrzjd+5wa6/vZraTpr7Zg0hS844XUjzFqGIMbnLytrymnBpfPp4//9MfnIBGZGIwKkA8aHWeK9gNnkN3//JrkeP7vlIsLR90ykWR6xxTNhLM356d/dShmsmWrwDB7pzCvJk44M0GmB6YGOis8VVhTIh0rO+8B50ouMwt7aRxVTw7waytl/lCb88UWqZk27aN0eapo2mjoq+34uCuE81zeassi5Rok31tD3F+1He1XBRSiPMmi2r0pZDhQOrNvrp51l46k+u5APsd620mxF240+/O8HSKhOrID9MHVzedleMYHqcmMfQBkoexZW0f55ZRT0GTo5xzmQ/E1GMOClnUuq6Nik9H9Ex2IZFEmqgW4XEw5lDyWn7FC2/GfhPL5MvsCEyVP41CIW9VDDx+zCcYTXjqBdQ9AsvWEJLX98JbU3qqFZkHAoWx04RCT8qilVhM8kYri4ZkENTTxzosxonrZ0mnwicdF7F7JZRMWji6j5eLMMNUff4+aw8P1pzH5Odu1IdUV1OYc7Sb26xsK0k68HM6ONxAg4V8RCcPq502nJ9Uvo3BuXytehTPAlKnz9C1+Mwmci8YGN6Cxrp2CaacFQO77/jI+CLPvgMlp0zdmSd2OeiP/s454bzqMNt99IB96ziA6+52zens3bhWwWybvMxW/v7nGNIRnK1iMCXBY8fsr2BOS95m7WRNlDnJ9kedQbIuTVjgjlab4KKvCwJjeAsNx0+zOoOTuXcjvbKKdbfyxC3xXnf7/iQVohKLEoQpg6/AHaNKqG9peoTma0HA4QzJJuHJ1HgfYg5R1vJy9GihCuk8b+5q8p1LEN+T20d0EF7VpcRSEsz9vP8CyW3uhtKHsokM8+OkPZul7EDWe732MeSlCP3O8xYxIUnomaPeecgmwRTmqiT6yCwU1rfSsdP+B8rYjB7F18OjBP3l/tHbzygyFWDYQ6tE0MkSaryIgTwhULdJjksdZXgk8pwp8knf9JEOq4q72TGmsbqe5QPR3fVyfHEF657K98XBlrgIWydjeEz8Eth+JeAUKHoYK1XaAbRKQjlkMJcJIvG8eh6R7Pgu//zoOSJkkqO5x94Ry65Yc3Jb92+adCwX1qYSGH/EcYWEQFw9SIMSs/S4Q8rqeANeJsvn+iEZsJAEY08lUpDgsTvDCDGxPK2hpb2QkXRL+Pte4czt8S0fyhZevlRBHmWZ/+FVX9fbUKiNO35XPvpu23vovmfv0ettCRIPIIFW7YR/nbDiBUZe3QyWH+fcV/iDPxwXmAVXnqIm20MVRLnR6+H2wnPydI5JO+JONSougyrDa4XxAeRPmRDJrhZ6HMOjmGV5PldypIKdCJYHK62mnGoV1U2VwnYavEmgYbXIXC8MrgCOFpW6Q3RG0ZGbSpaiIdzi+XRyMqJB1C/5E0qx3KaOumia8doprlRySpkr8Im29PsjiQrzrPdB4jzdhF2LDZdt4Y2nNWJXVnqxn4g0mvxaKR0sYFrbf3mAcLyvGymivpGxf9Mu49ZmxR7mWbTsF8qlceaTTkzsYj1+40NKmiGyBo35h8NZm1ZI/RccF/nNeNHdCNGDojf//VUzIDXBwx2Fz5xSvofNZsU0mLLCrq+BUcLxg51daw6vd1cRrFP7yZ4QuwUOGZYZ956y9jgpnd7PjIxbSXteYLLsWL+1oA68D0NrFglnCdOHRa8DnITeHDdIwwGxz+YvMAQKJrjAoMBvvihq2qWFee4auM+WG7odCYNZgdj09CTjy6n2rqDpE/bHyFSv5wlDg+uVr8yU3kI942sBa+dvQU1sbzHL+KxCH0H8SJrKrcUkezn9pLmW1BmcQGUik7Op/xH2G15wdo3eU1dHyi+qCLxTKUSGnjMjfcgvkCCOaLfyVCGMIZgllrzCKoHbeWocBpcMCQNBkslN9+ai397z/dSffdfj9tfX0rNR5poEhImliFESdsG4820pv4AMWjK+SUTA7jX0FZHlXPGa8cpkCP9BvxDAkJwpOGNoWMm3jHM3TBJc5qOuoqZQ+g0DttecpkkI/meKpohqeSSiibj/3RUMVwgG4DZMt/mey+lP3N9VbSdFMoDxNBn5+2Vk6gFeOn06HCEmpljTeMKKPpw2OieKOfS0d4v4srfn1OHm0cVU1vVs8VoTxscP4gaUemldAbN02nXazlNpVnUwjPnqPpjRmNaYdnyY3lWbTz7Ep64+bpdKymQO6LxXKykqz8ou1Ambca8xBiNiyCcbn9vXaEhRnM9/zLvXRgywG28chw79jpY2jU5FFUNq6M8svzKTsnU7So1oY2eWVq99o9tGvlTnnlSG4y+/RxI3j21WfTZZ99lwxDyxBoH3CTqHcYuOcdZ2PSXyHUI4+AGa6xr8OueHYN5UYfLeAkTF/xxp8PZQVoz03ny76+F3KNOl4HaM+NkQ5qinRSE3WwDt1FXZEQ20LAKfweHwtjH+VSgAo8WZTPR9hCwAvRqNVOXyntD+40e1ngFrc3U0FbCxXxNr+jjbKCXRQIh9S8Pf4X9Hip05dBbZlZrCHnUUMWm5x86gzggyKJUzdUaXbfb7xjnn+snQoPtlIRmzzez2nspMxWzDtgt5yesNcjrz61FQSouSKHGqpyqLEql1pKs7kw65RZfdky9Ehp5XKYjqHs2xyNWZsRe8Zsq1Lq4N3gv//qaWfhDnyYwcg73s3MZr0uM8A31CuFCZ+J7GzrkGfDuuHWgnnUxAq64Ts30Oipo2A7pEOrpyqhcJi6PRDIrGOy8AuxgEMHCJ0afNrQF/HI7O4A7+PeIK9HNFc5vf5wkHwskDG87WPj5fRCk8b7yPI+NG+7vH4WfGqgDOntb8dqqIDA9nVyWtn4uHz7gnzMZReTxkJ+Tm8AWy8FM30UyvCpIs1JTaVTabEMFClnXDaHXTBXXyFD2e5nzHpI2w5ln6Dg5uAd5oKyfBG+JnjujPd98fWlpqPN1HysSRYXwbeQUbJESMCw5gH/13/rOhrDYbGlE4KlL5B/GKLOZq0416M0YizniS1mXOd4ApSJLz7hJ9kqVXrEgEDr8gWoI5BFLZm51MiacR1rxQ3Z+dSclUNtGdnU6c+kiCOUTwQgdLF8Z2tJNjWxZlw/Jl9mcrdUZFNrcZasex3UQpmREQCL5ZRAtdGyl6Bd9vpYYltOPDDRa8Gl8+jTv/kUXfjhC+T1qMLKQhG2+MWjnkto5LWjSZW0+NrF9P/+8BkZ/o566VkGLH1gZp02mhMmO90J4WPU9x7pMy0SNAgjAVIhRu/ENoJhbbGcEiSrerod91SPmxLJ/sQ2ORhqEIcdyh480JAbjjVS7c5aee5ct7+OGo40yJrSwU7Wkjlb8SoY1u4uGlUs7wLjPe9REyvJl6E6Xnb42mKxWHpHxGIahrL7mpVtnzGfBOheFP5DSOP5M75njTW5ZTETzla5oX6+ySyIA1kQxkZe8659NmexWCy9Iy1tGgTzsuor6bZ3xASzFsj2GfPJCASwzyOfl8wpzKb8kjx5hoxFPvJK8yib7TKyA3KToSDr7Qg//rRYLBZLHKpRRhvtfnMBWMF8EqAELJbScIyzr+3Nc/E/yHLl3mKxWCwnFhDKug03sYLZYrFYLJZ04tKVIKBNzdkKZovFYrFY0gmWZHTQWrOJFcwWi8VisaQTQw5DKLuFsxXMFovFYrGklfiha6sxWywWi8UygqipucmxgtlisVgsljQCZdnUkk3tGVjBbLFYLBZLGjFHrk2hjH0YK5gtFovFYjkB0Fq0FcwWi8VisaSRZBO/tL0VzBaLxWKxpBMWxloIu4U0jBXMFovFYrGkEejIWlPWW1NQW8FssVgsFssIYA5jYx9C2WrMFovFYrGMEOYwtsZqzBaLxWKxnGBYwWyxWCwWS5pJpC3roW0rmC0Wi8ViSTPm82UT+4zZYrFYLJY041aW3ULaCmbLCUPE+eKK27C1YTzkscaak9iY5VnKOH5S1mGFE5ZTHchhadsczH3gGVdVE8n79C7ncGhBXHk5hfSNT9+p3tvq44saltObsLtwciOWFcmknEguFYaLKDeSJ8d+CkhZUqXJlinLyUKEuinEppPaPK3U4GukVk8LdXjb2TbEZ7ksezAj15bpkUJaIG6Hdu5fT/c++WNqaq0X+6EEzdyymivptot/RX6/n7xerxifz6eGsXHsuLVYTiiyw1k0NjSOpgSn09Tu6VQVqqL8cD4FIhncbKHpQuNlGzDLyUOEO5r+iI9y+FcWLqdJ3ZNpGpfvCd0TqSBcrEpzfN/Ucqri3GdoyomeNVvBbDnhKA2V0bTuGTQmNJbywnlKCBtlV+/aNsxy0oIizSYrkk2V4Uqa0j2FxndPUGXdcsrjHsrWwllvvSVlRbJjsaQbPE/D8LU23oiXKkOjaFJwkgxf+/iHgqoKq9rqggtiexbLiQ+Kri7LMcP/uX3OiGTQmPBYmt41k3xhf7ROWE5N3JqyFtJ666071iA7FkvacbU75eEKqu6uIX8k4NhYLKcBURntoaJIEU3sniSCOtZsW045HKGshXOcwsH7dijbckKA4esJwWry8w8NlC64FsspD3dQoTV7eAdD2cWREhodGi37ltMDrSlrAW0Fs2XEyYpk0bjgBApoTdm2R5bTiliBx5sIvoiXRoWqqCBcJINKeljbNcBkOYnBHU/0jDk6lC3/LZYRAloBGqFsFs5SWtk4G4vl9EAKvFn4WTiTnyZ3TyZPWOnNqt22ovlUAsLY/WwZYN8KZsuIkh3OZs2gkBsfWxQtFg2a6Qz+VYZHyb4VyacW7vtpPmMGtjW0jBjQBbBoSE4kh49s02OxxOOVuRc+3qpmO77xHiqgrIXZQFOLGrZXw+cRCuO/sy8/015+yq+4T0M1ljid+OLSJvEnMfzT6dWPBvT1jQh9RGsFs2XEgGAuCBeQL+JzbCwWC5Dhazay8l04V+z6bM0HjIjWaOi+cJAKW47Q+NpNNHXfcpq96xU2L9HUvctp3JHNfK6WpXZIvCk/pniL7aUNFrDZR1qpctUhqv77Tpr60Gaafv9GmvzoFhr3wh4q3nKc/C3dKr0jkLz+oDVnuySnZcSAQJ7ZNZvyIvlSVlyjORbLaU+QummXfyfV+mpVGzoMlSQSCZMvFKS89noafXwnVTbspUCw02iteQ8HUaEWoW6vj44UTaBDZZOoOaeEun2YuKmfhw99Gk2gAXuCYcqua6eyDUep8u0jlH28nc8gfjQkyp3gpDkU8FDD+EI6tHAMNdYUUjDbzw2QV06bS6CKcw5/OJfkBMuqr6RvXPwrWYZTG+SbXprTasyWEQPVKIM1ghEbTrJYTnC4maYA15GhALXMHNrF1scCuLxxP83a8xot3PoMjT22nTJC3SwkfFxBWXix8WCL1xjFDqNbfk5ThMbU7aIF258Tjbq8YR8FQl2IRoXt/AaDpBdGpxkmHKaCfU008akdNPd/11DNs7sph4UyRCuEGYRb3A+dBP7zdUeodEcDzb5vA829cy2NfusgZTR1SgRm+OkA0XBszpECcZsdGiuYLSOKP8IVHmU0ViYtFosDhIufhbNzMEiUOBDD/zK622nSwTUslN+iUQ0HsM4eCwfWfNlgq03sOENtvRDUys4f8VBF0yEO402afGA1ZXc2S+D6N1h0KDDeziCNfXU/TXtoM4197QBltnRxGpyPPrDxeGP7pvGxdo+tCG02+YdaqObpXTT1ka2Ud5DT64Q/+NSmDu5rb1jBbBlBUDxVAbVy2WJJjNSSIaggohA64WR1t9H8HS/S+KOsIQeh6caErUe2EMI9DcGQPnY0aTaZQRaax3bQ7N2vUWZXG9vF6vZAEQ3WkZb+tm6a+PROqn5uN+UebSevh4UujCNwTUHsNnHC29kPdIWpdGsdzbtzDZWvP6oiSSPJtHOkD6RPMCOP0ZNKZPQvzh5e4n/DgcQTNRyLNq74cBwOh6mtsY2ajjdTJBxzm26Qjpb6FkmLmV78Tl5OnrS777vej94L1/kTiY6ODjp27Bh1dnaOSBp13jQ1NdHx48epu7vbOWNJBu4Svkw1FHi43crtaKQztz1HRW11LAggrAIs5KAJQyD71Vb2lYD2emEyxQ7u1LESzmqr3OLJaHHrcVqw4yXWnFsk4fp+D6Sk6Sv2s6Zc/fxuGv3WIfIHw+T1cZqhHfMWQlaeyTqCtzejn+VG7VgIBtqCNOnJ7VS28Rh5QpJgJ9bhRl0dBLE2GuSXrzC/+PaMhcO3XnZGIIuWLbw6msm4bHM/2BWkuoN1dGzvMao/1EBNx5qpu7ObAplcAPx8A/gnftjTYHtgiUl8I1APzPhwv+oPN9ATP/srvf7gGzRmxhjKL80XF2ampoPDu47QA999kLa+uZ2mLJpMfs4rMBJpGQx4foYvSKk0nzzp1iDdoVCIamtrad++fXTo0CE6evQotba2SgOQkYFGSy0icKLcl3vuuYfuuOMOys7OpkmTJo1Iupqbm+mHP/whPfHEE1RRUUFjxow5YfLnRANtULO3iRq89ZxH6nigoKXL7mqlGftXUUErhDILYQxgQ/NloSvPk71+FliwV8+WvV48V4bwhoFbNUlJvhrt2KMmq/vHW/5lBts4fG7P8yuo2+88Hx9A2pFeLwvi8S/sofGvq6F2aMmISwlWJWD1sbnVBiTaN+38nSHKPdJKLVW51FGUJXYNTbW0btvr1NXdIcdDTU3xNFo28Qp1HUaaAbZpFcymCOxo7qBVf11NL979Ei1/fCWtfWotrX9hA218cRNtfnUzbV++g7rau6h0XCn5Aygk/b+x/cIVNA51RgGk/eieo/TKH1+hQ9sO06SzJlHVpEo5Z7pLB4c5/md+9xw1HmmkxdcsosxcVfjdaT7R0YL5ZASa3qpVq0TQPfbYY/TMM8/QCy+8QC+//DK99tpr9NZbb9Hhw4dp9OjRlJurX3cZ/vuDTgBIFs/vfvc7WrduHVVVVdHChQulUUgnSFd9fT3953/+p2juU6dOpVmzZp1U5TbdKMHcwHmEOj7wfPJEQjShdiuNrt/LdY+FgSN8lcbrCOSoYTGohTK7VRO/sHWMpESfw7Gykf+cUDy/9oVD1JBXTmEJR5/vBxxO1arDVPP8Hg4Lh0rwmsI50VbvqyDUsd53o88H2rop+1gbHZ1dThFWCBuajw6rYJ5QNI3Or3m3uh5XumHSrzFzw7F/w36677Y/sUBeQUd21opgGTdrHI1jLTSQkyGa8541e2jLa1to6+vbaMz0MVRYVpAwY4eKl//0Kh3efpgKKwopMxvPUXreyLziPOkoQCjPv3Re3M1PJ7kluVQ2vozOuGwBVU0dxfVCV4z0p2UwnKyCGcPA//Ef/0G///3vaePGjTI8PH36dDFlZWXU3t5Oa9eupdWrV9Pf/vY3sYN2qhmOe7RixQp6/vnnqbCwUEyyOCAEx40bR5dddhnl5+ePSHnJycmh2bNni1B+xzveIdr7yVRu081QCea8tnqatXcFCzkIgZhQxjNi7EP4qi2ELfZZYIhGja0ySIGkQoSjOpYf76tPcADecv8wp6uFWrILqTUTI4tw07+057AWO/lvOymzpZt8HH5UgDmTvLDv3moDzGNtBxLascls7CRPKEj1k0tFY17PgrlzGDXm82sSa8xynLb3mHkfx9tXbqcHvv0gtbPGPHXxFFp28/kseEcr4YJ0sZtwKEz71u+j5+56gXat2kW5Rbn03n++iqaeM1XcwBlfhhNH7PkFrgtxyBn8Q5zYd+GcEtR+hL71ju9STmEO3fS9G2nMtNESTux8DDmWf2YI+r873MTgnL4JZvo1cob/6Wt0gxVrNInC0v4Twg60G2zxnEWTKC9jrmNBmgV6MODzjgs7FzlHJzaSN2wOHjxI3/zmN2nnzp00Y8YMuu666+i8886ToWsN3EFbfvDBB0WTxvPUm266iW688UYRSjivSZSX+nx/8vmnP/0pPfDAA/Stb32LLrzwQvGLcHoLH5jnTXtNqulLFmYiUo0nGfDfm3t9PlE6T0YO+PbTbv8uvg6+lqQVuyeozZID/M8bCdMZ21+gspbjHAKGraERs0AWoYyyC+GALcJXQgJ+e8an750TOucx1tQiDj8SCSpDbMJBdhOk2oJKWlu9mEI+aOV9p123bV6WAdWsKU94Zb/qErBf+IfRggxoO72fDF0WsE1kMG8H2yALqpWfXEDrInvo3ieG5z1mjoYuqIm9x+z345GBuiYcY6tUrXTAebZv434Wyg9RKBiiS259J113+3U0dubYqMaH+wzwUL963gT60A8/SO/85Dsp2Bmkx/7jL3R09zHlxnHXA7FXBQqZrI56YnrX+3Cn/agN/rHhE2YY0VNsaxYEx3UcOBt1oQ/iLF1+tL1xvm9ijuPC0glyG4F32Fvq0cR5Pm3Bs2QIwC1bttC73vUu+td//VdatmxZnFAGKBejRo2iT3/60/TVr35VNNSHHnqInn32WQoGg702IMONLuOJcKdroOnsLY5kDMRPqgxn2CcLxc1HqYSFstKEYZRQVkPU2LKBOHA0YWi/xNqy2InhYykPyqjPLCgjYkSH6YSrhLyPSjneAtbUU0WXuKz6DirZXs8dCkTbUygnMhr3MTDdaZNIwCO+qlVHyBNkgS1nRoa0aczd7V105xfvpt1rdtNFH7mQzvvAuZThDBnL3cANkA2yg/ccu+6Obnr+zufpxf97mYV1NX3spx8hHyaFORl6cNshevORt2jhlWfRaNZ0m48106ZXNtPe9Xups62TMrMzadTkSpp90WwqGlWkNHfxSdRY20gv3/OyaOhvPLKcAgE/TVs8lXKL1TPB3KIcOuPyBVQ6plT8dLZ20NtPrZEh76u+fJW40SCu1x94gwpK82neJfNkUtvGlzfJkHxbYysF+FpHT6uiORfNiRuWb2lopQ0vbKCDWw5Sa0Mb+TP8VF5dzumdRZUTKsSNm7aWDnr1vlepoCyf03cGBdgPWPf8Btqxcge6nToXE5JjXJdOB+js6JI07169i1rr28gX8FHZhHKavnQajcaQubjlwmv4GQwnk8YMgQqN9Le//S0tWLCA/uVf/oWKi4slT3TDr/PSfYxn0bfffrsMHUOwY2jb5Cc/+Ylo39B00XvGM+q3335bZi2DsWPH0qJFi8QNzpv84he/oK6uLlqzZg1t376dzj77bOkIaBDm/PnznSOilStX0ksvvURXX3011dTUOLaKRx99VJ7/otNRXl4u6V6+fLlMaAN4Xr506VKaNm1atDOCYXykFW7RccE1V1ZW0jnnnBMXrwnyB3mJSWCXXnqpTP6C3YEDB+gvf/mLPAroC/d1wT/u0YYNG+j111+nI0e4ceW04Drmzp0r6XHn3cnCgDVmzhPdDszf+RpVNh7iMPRsayVEITzVkLRuU5Vio3wZOGWZA1VbHGKfNWX+J1aRSIj/h3gLzblbtmE2h4rG0LqJi9iLK8wEIMVId8X6ozTzoa3k5+AhQEVjdgllDc73BsIz0ceSP2ygLWuNGQuYNFbl0uPnhOj3b/2SmtOkMeN6cB04lg5DWgTzrXfSuufW0wPfeZAKywvoH+74NGXnqdlv0XsVn3diD/+g6WgT/e8/3kmHWAh/9OcfoWmLpkZvDCaM3fXlu+mDP7iZSqqK6Q9f/T+ZFBUOoZAoN3gmgefG7/z0O2nJ+xfzxaul2A5uPUT/89FfshBFIWILGCc9CL5kbAld981rqWZ+tZxrOtZED/77w7SZBf/33/qecscG3lrrW+n3n7uDKidV0gUfXkZ3czqO7z3ON5zPwgGDDC8oL6Sb/v0GmjBvPO1eu5fz5AE6Ju4wHKTccSlk4Z1Pl3/+cpp78Ry5WUY5lHT86tbfUuXECrrhm9dFJ389/pMn6BUW2ChcuB7Tjwb2eD59/beupfFzxrMFqkuE9m7cRw/928N0eMcR6aiIWzbIu+zcLFr2oWV0/o1LyZfplz7yUHAyCWbMuP7Od75DW7dupfvuu49KS0vFHuVQV3RdJt3HEJx33XWXmM997nMy/K2BGwyFQ0DdcsstMhS9Y8cOme2tw0G5wQzvd77znfSP//iPsg/gF0IUs8C1W2zNhgru3/e+9zlHJGmHMP/Rj34kwsrka1/7Gu3Zs4c+//nP0+OPP06vvPJKj3RgItvNN99M73//+2UC3I9//GN5tg2haF43Gpt3v/vd9JnPfIayslRd1/kBkA8Q5OjgzJs3T+zwTP62226jhobEc17M8L/85S/TlVdeKfuwh5D/n//5H3l0gDkAqE84B4P6gw7LP/3TP8mkt5ONwQnmCOV0tdLCbS9RNpdDr/MalFrRi9sVRytG2NgiBsllZdELzr1wBLO+NxDGEM7hsBbO3RT2hOjZuVdRRJbt7B2klz3RtEe20ZjVR6TMaaPvJwxwb/tCpxHo/ahAZqMFdFeWj56c30k/3fuHYRPMy6qvpNveES+YtVCWax1uwZzPgvlfP3kH/QVC48+v03u+eAWde/2SlAqYuklq/2+/fIqeu+N50bSv/Kd3R28GBPOdX/wDLfvg+bTi8ZUsdEpp0XsXyWtE+SV5VHe4QTTS5Y+uoPpD9XT+TefRBSxksliYhUMR0cjB997zA8ouyKbrb7+OqljDRgHlSCiQyYUXGcU2EIgP/NtDLJi30A+Wfy96BUgiBPPvPvt78rH2io4E4l549UKavHAy5XC4R/cco+WPLae1z6yjCAu+a/7lvfTSPa+IZr34/UjvFHaXQw21DbTqybdp5RMr5ZWxW7jDMY4FqNknRDp++anf0KiJlXQDp1cL5m4OK9SNioGUIVU6hUTtze30l58+wXmxkS751Dtp2c3nkUc6KBHWkPfQQ99/WEYEznz3mTKxrZyFd3dnkDXwnfTqn16jvev20rk3LKGLP34xZTivZw2Wk0kwQyP90pe+RBdddJEIsP6CyVn//u//LgL9N7/5TVxjcu6554r2B+0TGuvll18u8UBDhfYIgYWZ39BMZ86cKdo3NEEAoQx+9atf0SOPPEJf//rXJTwNhHggELtf9957rwhmTF5zC+Z//ud/Fo0TGi8EHdIAzRRx4Tk5ZpwjDmjyX/nKV0RwY4Y3JnCh0wChB3/QWKERw90HP/hB+sAHPhBNg77uz372syKY8TgAglk3jMner0YH4emnn5YJd2eccYY859dhNjY20ve//33JpyVLltBVV10lWj3iwlwApOXNN98Uuy9+8YuSrycTA3/GjH8RKm88QHP2rqIMlqFq8RAIAmy1UEaYLJBFczZbjVTQQtkxrDVHoDWLYIbp4uNuWjFxKdUV9t0pUs+YI7ToF6uo4FiHpM0tlHEMVLr7jy5f2GqjBbQIZ94+M7WFvt/0Z2psH36NWQtkvZVrdNwOG8iCjpZOqmOhCIE05ezJkrD+AOc1C5TWemj7YRFAbl697zUaO3OMaLhnXXmmzK72+X1UNrZUJph94Ls30KhJo+itR5fTThY2WCAEAjczJ5MycmJD6gHWCDMcu4xsLrzIKHU2JTBprWR0Cd30vQ/QOdcsovJxpZRbmEMT5o6nK/7xchZ8Z1BXZzc98sPH5Fn6Dd+6jpZct4TKJ5TLEPqYaWPois9fRhd++ALOtw5Jb6oZ5g/45Hoycznt+hrYeHweWvvsOtr6xjYZ8l9y7WIRyrguvJL2zG+foRDn6TVfu4be9elLOJ8qyYuwWODPPH8Gd1aupRm8xeOE9c+tV5GdRqDC7t27l9ra2mjOnDmObf/AM2e8s4vn01qYmmAWNzRrCKqPfexjMsycmZlJRUVFIhwhNCEo4e6Pf/yjCHGAyWQwepgWwgrH0GxhTKGcCugYtLS0iHb5qU99SmZOY8h+/PjxMnnt1ltvpYKCAvrZz34mr4R94hOfEDsMsyOtGHa/9tprRRNG/K+++qpMhNONajJ0g4sZ2jrt2uB68J44JtNNnjxZhLq+LghsCGt0fBDvF77wBRH0yDsYpAudlQ9/+MO0adMmevjhh8Xf6QJajpzONvLxjtaOxci9YMN/eJ4c6eXe9I4TTpzR4WOr4itoa+Rtavi6QpRTr8q3Ljem0fZDgTtsbbI5fm83Rl2Hh75adOTasAOttLtdaabyXFP2UgfuiyqLZB9hdbV1yr4JhNFVX34PVbCAg3sdh97H8+fLPnMpBTuC9Pbf11AwiEyHvqhmcCp32hfDu9qvad0XWBTlss++i0rGlPTwlpWXTWe/92wR9pgAB8109NSqWIFgNzAQ2DOWTpdrwfPygaDjxnb3mj2snatn9O/6zCUsvFlYy0kP7Vq9S86fwR2GKQudV3pQapySA3cF5QV0wS3LKIMFNbTnjrYO+bYpzOkChldxj6BNAt3TThUtYCBIIPzcQNDccMMN8vw6ERDqEJQQkhCI0ASHA1wjJrQhHeb1wR6CE9oqNE9o0HjlCZqyHloHuixDOC5evFiGxvG+MuhPfgGdx8gvaPjYx3C/Hi0ACB+adHV1NV1zzTWUl5fnnImB9ECrP+uss+QZdrKh8lMSrsCZwU6Z1MQZwX/cIcd7xdz0I1/EQdQMEPGK9gs76PDjp55dy5btsmWZztTIauwiX9BplxOYocIMK7rPG+zivWYsbjJsGFXBfV3YT4tg1qng6Hkv9coJ9zrRXi8Szn4xe8u4CIGP51w8h8rGlUXd9zD8w+SrmjOrafuKHRTWvSFXUOax6TdVKqor2CAdhn8cOIyqqZDJa3msHY+dMdZZ3UxFa8aH85ishsls0GpTwfSvwejCn2+/XybBXc4dBgyXx9wRd1LWiqY+Yc54eX4slmz4tBjZ5w0mf42dPkZWPzuyo1bd0tRv5UkN8koLFS0s+gPcIww9BKe3JnjPGYIuETo+CCRM2sLEpt27d4udvpcm7uP+gAlq0JJNYWsCrRiT1xAHno3r58eJwDvTGB3AUHMqeZboWvDsGkP3EMAQvGeeeWZc/mF4H6MHmByHtGnc4eDdbkwCw3NxDGufHqg893NnUNV2rTGrI4A9ZBWOtek/KoxYAByHcy9lYpnHx52D1NowEGhRH6dIlhj3ve0vKl3KuI91t8LfFSbPMMplYNYJ977Xl4aZiph9nZmXyTkQoeN7Ve+5vxzbr2aoQsBA44uC6+ELwfNWJ58TEuG48cy2uKqEWupaqKszKPcdcn4oySvJ40z1JZRZiA/aMCai+TMC8kw7mXDDMDxWPAPme8spw5G11rfQ7z53B4W4E3Lxxy+SyWJuju87Rl1tXfTmI8vpkR88Sg8nMj98VIbe8ew81BUiLJt6uqG1NHNYFiYV4A4aJp6/QuCZAkSDZ8/Q9noLE+egrUIQITw8DxtqMPxrpsNsMGAHAzfYIk+SCVycx7A00OnUYaYKnjdjwhyee2OSGwQz0OEgbmjjGIXAED9mt2NFMUxIcxucw2x3pAVC/rQAtwaGs0uJG11mYaGGr8XgeNCocM048EoVwsYP8aWC+ETHC17wY3+mGWrMMGXfOVb/E5ftoULHnagOxbqew0hmXhYLxGLJ8PUvbhI7aM76lwykF4nGLOEdy3dyIWKNc/KoqMAy8bGg6xUnGghGPF8Oy1A2I3nTWyr6B8JHeChUJvFlis9i9RpfvBs3Ok2pdh5UfnFDyD7bmtrp2d8/L0PVS65bTHMunC1xupIl74jjQ+l4PNDOfnozVZz3cy6eRQUVBY7v0wc8O8VwNF4fSiaMTOBGu8MWrwJBqEMbRThu9MQP4A7frMAQithCGA0HiCuRRp+IZFq1G7PxSxVcHyabYegZ2vA//MM/9EgXwoUGjPyAEEfHB0Z3gtwGWvP555/f4zWxUxYn20NeP4VFc0X9dyzRmPZdjPsJwlbhx3RPZdel18zuAySpKxvtO/scQLkZKoKZrFylWA8GRB+X5g0Fe06kGmogECafPYmycrNo9V9XUyNrXmh7UKFSKRtH9x2n7cu3843y0uwLZ3GAxlU5u8f3962JB1lzbOa4s/OzKSPLEeRIgDsRCDOVhCWD/bvzXYoop1uMYzf0qIuBhvz2U2tp5ZOraP4l89Q743y9kgZX7MVjSmTC2DnXnE1Xf+U9fZrLPvcuGj3l5HvlZLDg2TImEmHG8a5dvb/FYApWLTQg0Ovq6uQVH21vusNwbyrv72IIGwIxHctp6vJq0texm4GkEfmCjgwmdeHZOiaXaS1eh6fzr6SkRAQ2hrjxahgmrcFgP5HBOQzBnxY4xavTn8VyOCZkdBugtv2/P27cIaho8Z/PyP3yUEeGGj3pC7juKGIhLo8uezKQ8tRfkC/d3DmI9KE4DYpY1Y8r1wD7w9gliAcLd2DpzeMsZF++9xVHY+XEGAnsAauKnZ1dtELW1D5Csy+YSRPmTeATPT1temkT97KTD+3hutsa2mj3uj0yEczr0rqjham39Jzg6E4wPrLx3O+fo9KxpXTtbe9XjxGSMG3xFGo+3kL1hxopKz+LsgtzejfcqfEF0lZsThgwbIsGHUOhmOULIWoKVhN347F582bR/KAtQ2MD7soIYY/XhxCmaa8FEOyw/etf/ypD4Zjl7Y7nVAF5q/P4Qx/6UNyCKRp97VifHBPn8KoUhs4xY1yvF57MYNThdKItI5dC8mqUCcruMDR2TpFUIaPs8obtGrN7Pr5JCLsNZ3iprTj53IXhIK4u8W57STYFM9x5Njy42xEcp62FhbZ79deupuKqIlrx2Ap65U+vUVuTmqkHvVk1QCpR2mAlLLwGhc8s4nWi9/7ze+FYGY2zf2TXUXnPuaNVvQcpJvrjwtnUTi/c/RK11bfRnItmyatFGgg0aI0YMsd7xRrxK2E5Fic46Ok1HK6nh773sGjIeN8bz7KBygd9PY7h3+wLZrMAL5F3rPes2ydu2bqHwXvQB7YcdPLCKMSnCai4eF0J78ni1anvfe978gpPb0PKECx4XQiLZmCSFNbLTjRrGGCmMN63dc/YRrwweK6MZT3xuhWeM+O1IRMIJ7jDK10nI7pMYuQAM7D3798vC6PgC1iJgFuA97rxChs6NnjHWr9G5gavoulX3uIa4VMcXGlLdj6FfU57p7JNMHaHCNxDZ5fBLrIaQ+mNOSkKZsd/w9h8teNC3/chh8PV5QLaclsJdwxGSP9AOtIadfm4Mrr6q1dR0ahievZ3z9HD33+U1jy9Vr4mBaEIQQGt9/jBOlr1t7f5/CP0LGt+FTUV4i+vpOezOSl5bPB95Jf/+Ao9e8dzdJi1a6y4hVuIRTLwbjEWOFn5l5U05ZwpNGsZC2Y/pvOzR/hnh9Vzx1NLfSvtWLnLWXQkQm2N7dRQ2yjpOhnApKxHfvQ4Hd9/nM67+Xz5YhemYAD872H4Hz7cgUVDsEDKY+x39V/fpqajsVm0WLAEi4s89cun6Y//ep+MeGB5PG1OJ/Cq0sc//nFZlhKLa0A4Q1hCKJgLY0C44JUmLCSChS8gvPEeLRb0SCYUoJFjEZP/+q//kmUztYBBmBjW/dOf/iQToTB0e/3118vWBM/AMcT94osvRl9PQrxYqUyna9gatSEC14yFVPBs+ZJLLpEZ6LrDAZB+bTS4ZqxUhsVNsHgK8gnD/ZjNDXcY4YCQx3367ne/exrNyGacfGvPyKamrHTNCzHLGO/zPajNL6Muf2rzEbTvuolFFPZC1YgxnOUXIevw2wsyqaUiR/aHC7MZQPnWcettWr8uBUIsMI9sPywCF6t2YWlOvK4DjdWflUHBzm5ZWANrSLc3tsmnDS/66IWyEhUWxUAW4nbpyrr++Q1055f+QJd/7jK52pfufpHDyqKiygJZn7qVw8BQbdORRppx/nR69/+7nMrGlcYm2uDHacO3lv/nY7+SjBk9dbS8rnRs3zGqnl9Nl3zyHTKEm8rKX3ml+XTz92+k7Nzkz1S+9Y7vUA6H/8Ef3kSV1RXRazGBhvrg9x6hNU+toW+/cHtsCVMm2cpfT/7i7/TCH16QlbnQUcng/AQI3cl+AWGdc+058l4zwAQwdJCe/Plf5Tk81vvOL8ujQGYGd1ZaOP+aqZXvx6L3nk2X3vpO9p/a86K+OJlW/jLBs2IMTUMQYPIRhCQmdEErhiCAVgbhDDNlyhRZlhLPp/UQqvt+Y6UuCG0MleO5KsomBDWGZSGssIIWhC1WrMLKVXitCpPFTOAGy1Ti/eaJEyeKoIL2DU0Ri33ADmVbL8mZbOUvCHKsbJZMUwX6S1YIAxOzkoH3i7HE6Le//W1ZJMW8bvfKXwAdE6zohfxFfuH6k4F3pPUsbYDHBT//+c8l/bgfGO6Hf7yuhfCQFxj2xjNmvPN8MjGor0txxYePsuajdPbut3mfy42zHKeohB41SWto4MicJTrDWAEMy3Hy782aM6guv4Rj6zseEUz8l1PXTvMe3k6FR9qibTXKjzZDBeIzDRS6vQvK6Mk57fTHv6Xv61K4JnPN7LRpzPr5p48jxaIaH/zBTfSpX31CVpTC8PHRvUfp4JYDLCBrRUube9Fs+vz/fY5u/O4NVMkas5rtDHBTjBvjHAay/LTsg+fSLT+6RVauwprPWGoS61WXji6mm1hYfug/b6GyCSzgzYkFSBSD948/+MObuQNQTgc2H6DNr23hdIRZMNdIhwEg0/DqV5YhJKNwkLKKGJ/vq6DjmS/c6gKXEIkrIHH1CI3PYUlRmcBmnMQwdibSyuEe3HKIsHAIzC5nq83eDftlaB9+cU1Y7ezMK86gz9z5D3T21WeJprV/0wGZ0Q3tG5/B/PjPPkpX/NO7ZQLf6Q4afix0gQ9aYN1rCFxotfiIBLRnCEkIAQglrN+MxTogtJHXMIlApYRgvvPOO2WBDwgTLHe5bds2KSfQuCFQ8S4uKrNuSDR43eoHP/iBaPOY/Y3JZhi6heDUr3pJ+WUNE8PpbsEOkEZ0MBKdM8H1JgvDBNou3OlVyUzwPBgLrugwcC3o0KAjAnu80oTrT2bw+U3z+pHfGMHA7G1cA7RmvOOMe4Lw0DnC+ZNNKA8WKW5sjuWXU2OWeowiJVBnnascDRQOxdnGltWEOZZXQs3ZqWvrEgo3i+1FmXRsYgGFObFIn1lvhiS95nU7ycVxyO+hA2dUsraurIcL8xr0vmmXPo2ZjxMJLMmMYIjaWEPsag+ysPHLV53MXlJvyEcsvnQ3vedLWIN7aTQzsSgHlgKV5SlZWMrXSfoIC4ULr1JBaIW555eLxTiQDvaWSm/vZEe/L43HCh3NHaINYp3vDNac+8q7gXCyaswasyJhGUtoZyi3GPKGUEoVaMwwWH9aD1FD08UrPhBq5gzs3u6DTg+EG55vQ2NMJBRPdZAPEPLIA3Q20DnQeTMc5Xi4GajG7Ka4+TiduXcdZXAbx7WPw0Mbi/C4dZNgBxa25KzkLwzWnIbWHKJOVoDWj5lKhwtHyZn+PvrKO9xKcx/dTvnHOqLtdyr1IBV0edBbjHSh/dt7RgVtvLyGdu5bT/c++ePh+4gFNOaLfin1E0a0ZDa4LnRWlfQbYbx+H+UV51HJ6CL5+IMWyv1FZbEqXhDGBeX5opkmen83KZwxeO6aV5SnhDLQAZ8OcD5hdAKfhiwsLxShPMD6etqAygThqdfD7o9QTgQaC4QBIY1ZxP2pD0gLtFH4PR2FMkAeQGvGCmXJJtudjjTkFtK+4tEsOgE3ao5QgjAdPAgrZhDi4YJy0Zh1LP2luTyb9pw1Sh1wWlEvtCAdSiRc3jaMzaPty8YqyxFq9HSH44QQzGYWRG8tLPubN44f89bhOuX5tmmZKk78/U3GyYpcpyufJOsGknenAahEuiJZTizcDbi9Vyx+WUPeUzqW6nIK+Qj5E+Y6H3Hat8FWcmkpkPG8DVNzZjbtKK+m7hQ+9ZgUVqgOzC2jXQsro6kbasEs4bFpL8igLReOo+4cTi9bxfJlmEAcvZTHERfMusLoWb5Rw9mCX0rom8Ub+DPDkR+2bPoCbk2/OqxU/J4KJLwPjhke0APmvjXfP9VntaCh0OXVLHfu40T0df504lTJi6GsFxA1bRnZtGH0VGrJyFTzflD30H7KFsPQqi4i1t5ijrmD35By7Ni1BTJo+YS51J6VzW2Hd8BtCIIM+7209aJxtH92CYX0ACbHI0PPbCTtKSJpdgz/k8eW8N2eF6BtLJTlFS1OZzpKDrIjWdphf0JozIMhrySPpi2dLkt+8iUpS8tJQ5B/YKjXLD+ZwOxovJs82CFwy6kHXiLVdWTwoJJFqCUrl1ZOmEXH8H6zM5yohIQyEEx9a4w4z+4hzLGlkKT1eE4+LR8/hzozBz9JVMvyiM/L2ux42jevjIIZ3qQCrTdMP9iXK+Wt0pTH0sGZJcO70pcLxO/ubOs0wu6kF8xjZ4yhG759nbyffApczmkFqkenB1+dSV+FOBH5xje+IbO7E62hbTm9wdPabo/6ZK605oMiVs9aMvNo3ZhptLukirqc11BhRNhGjVJkY2kAAGT3SURBVPvZs7ZTQ+AiSBwT4qD3FldymKyNs+AfSqDZd+Zn0LbzxtKWZWNEw9VCTISsy/SGPo/0HplURGuvqKGDs8s4Drbo3euwkCzdJ70k8wV8lFuYQxlY4SpW7iwnAVwcqd2nV387fcEELwhlPSvTYtGE+Nfh6XsN9VRAyZKBWqeItWdm05ZRNfT2uGlUn4Uv3eHdYwwPO0PEIjBgp42yV0IE55WQbmbtePmEmbSxaiK1ZuZw+ENThpFWlWYVZFdugPYuqKC3PjCNDrCGG/QhFU46oz8ki7cY5naGuvWQtzYd2T7adNFYWndlNdVVF0jgOp50oePS9d2tPZ/0gllunnNR6cxYy+DB4gNNnkburaI6WSwWN93URS2eVtWSD7KBi7WTasv/KOz1UW1eCb06+QxaMXY6Hc0t4M6yj7q9Hu4SaFEHwYbaih+nib22+310LDefVo2dQq9Mni+zrxEW0hiNAweDRIclyWDCrN23lGbTmvdMpLdumCZD0G35AerO9PE5uFNpFgEN9/w/6PdQJwvjhvIs1rjH0ssfn017Fo6iTj3RC3E4Jt2oTk7P7Yi/x2w5fUEhzA3n0dTuaZQVyR6RimGxnMjs9e2m/YF90pZKGzoMdSQqFNh4eD+vq40KOlopt7OdMkJB8odDbO+hIKtxnf4MasvIksVKWrJy2I9Kj5mq4UqjSiXjCj6zuYuKD3J66zooi/f9nZxe/mFJT3xCsr0wg5oqc6ipIptCATWtOBoWY05ME3uOa+d+9R7zcK38tazmCrrt4l/LO8vamO8xW8FsGTFQ2bwRL1UHJ1JFqFJmcIq9U21sebGcznSytrwu8DZ1ejvlWNrQYRTM8dUNB0495PMY1IKgi+J4ScSwpBER6jjdwbvsPWEnvUgH7BK5h53jz0yvWPH1jqRgxvakH8q2nNyEPWGq9R2hbo8x8xS1w6k0Fsvphi7++/y744TycAFhICbuhzidPe4wRyA0zJ/2k8AMBxxyLA73z2XPkk1mcmNhqaTu9ZbNSID4dYfITIPet4LZMqKgaDZ7m+mQ74Asg2qxnPZwg33cc5SO+o46FpZTDbR7WgjLML0jpPXWCmbLiCJFkwvoIf8BOuw7JLNQla3Ti0Q5VWXVYjllkWLO/zBk2+xtov3+vbynOqojpdVZhpNYo2Y1ZssJBQohjBRCLo/7/ftEOIc9mLxhpbHldEJEMzV7mmmXfxe1edVrhJiYhKZa1xXLqYG6qz2BxhxtEy2WEwEspLDXv0dmooY86t1D1Sqp8xbLqYjugh731dGmwHpq9TY7YtpyugGhjHbPCmbLCQPkL4bvDgUO0vqMtdTgracu/mF4L1EjZRsuy8lHfKkNUZBaWUve6d9O2wKbuEOKRzmORmU15NMC/VzZxApmywmDHq7Dr8XTQpszNtH2wFY64DtAjZ56aucf1g2G8E4sqi2WExusKN3Jv2ZPEx3xHqbdvl20JbCZav1HnC/qOXWA923jfOqSrPXSQtpTPW5KJPsT2+RgqEEc9j1my0DAR8s1eFEjEMmgAP98Ebzj55OCbUuT5WQDHcogpjh6gtTFAhqPbFCQzbbRluuRQ1odbnuG/z3mK+m2i38l30zX7zCbxgpmywmJKZjdoBRZwWw5WTHLri7leOcWB7ZMjyxyP9IgmC9gwfwNFsxJFxgJBYfqk2IWy9Chv+GayEjhdbbWWHOyGbPsRsu0FcqnLSgH0SFsXS7kyGKxWCwWS1oxhbKJFcwWi8VisYwAEMpaSzaxgtlisVgsljSidWStMWujsYLZYrFYLJZ04ghhLYzdWrMVzBaLxWKxpBUlhN1D2BormC0Wi8ViGQG0xmwOYwMrmC0Wi8ViOYGwgtlisVgslnTiSf58GVjBbLFYLBbLCACBDAFth7ItFovFYhlBoB9roZwIK5gtFovFYkkj7mFsO5RtsVgsFssIogWxFtB2KNtisVgslhMQLaCtYLZYLBaLJc1ACLuHsDVWMFssAwQVSwx+ej+R6fFjv44ZbuLSkCgt+rzbuM87P4vFMnh0TULdMtGC2gpmi2WAaOHqqlsxe7fhf8ooYZcudNzRfW34X9yxafhf3Hn8s1gsw4puG6xgtlgGiLzyABMJUWFLLY09upUm719FM/e8RrN3vyLbqftX0rjaLVTcdIT8oW7xFyMN0s4cKcM+R+kNhin3cAtVrj5ME57dRVMe20rTHtxM0x7aRBP/up3GvrKXSjcfo4zmTuXPwQpni2V40RqzZ1xVTSTv07vkYKhBRc7LKaRvfPpOpxEzWwmL5eQms7OFRh/bTqPrtlMgGGQBHSafSK8w73P5l+LuobDHK6bLn0FHiifQgbLJ1JZVkJY6EdXMEU04QpWrDtGolYcp53g7ebs5naEwedle+ggqQRT2eini91Aw4KXGCYV0YMlYah5bQBG29yZ5JmaxnApIbeE6s3P/err3yR9TU2u92A8lqJLLqq+kb1z8S/L7/eTz+cjLdUtvxThuLRZLEsJcXcNcm2AiLHwDXW004dA6WrT5bzSZtzldHRQIhcgfxrMh/Pzc8/XLlqsb+dlfRjhEuZ1tNPHwRlqy8Qmawpp1VkcLhcPhaNhDhTwNjoYZIV9HN5WzdrzwJ2/R9Ee2UvG+ZspsC1KABbNKs8dpDHjLvQl/KEKBzjBlNXdT5fpjNP93a2jmvRsop7aVqDs05Om1WE430L+NasdGZ1d3pK1gtlj6wpFBvnCQyhv30/wdL9LUA2sos7uTa5WfTYBrUoA8bGRfTEb8Pul9vwjqmsObae7Ol6mqfjdrrEG2V3EMJQgy92ALTX58G017bBvl1LWzndLR0RhoI0JZb519bY+tj6+/fPNxmv/7t2nsa/spowlD3FYwWyxDBeqZiRXMFksKQCiPPbaNZuxZTkVtdVyRoBWzMGbjdYw+9ngzXPssmCG4HTsIaY/HS0XtDTRj30rWotezlsrCeQiB2CzeWkfTH95Co9YeJT9rx1rwepwths4SDqOZ+zAQ0izOM1jLnvDiHpr09E7KaHU/L7dYLKnSW7c2rZO/MLwWxqAgR6pNOCI2sZ/Yqa02pxO4WskD3lMGw6gq74YLNSypY0z9J2k7he+PHq7V1zj6+A6afHAtZQU7WahCS9ZGacIQvh5PpjKkhHH8PoS0EubKvdKeAyyQJxzZQhMObyQPC3+dv/1FfHFalSEq3XKcpj+0mfIPt0a14TgN2TxOYB+3dQzc+bvCVLmmlqY9tIUiwZAR56lbFiyW4cSsO6hzwOvzc+OSFjjCiEcakGB3kJrrmqnuYD0d23OMavccpboDddRS30Kh7lDUuZjTCecGBTuD9JtP/Zb++5b/psYjDWh1h42Otg6qP9TA9wKmPmXTdKwpmt5TFqkkEapo2M+a7Wry43IdoYphay9rw15stR0LWq8X2ia2OI+tEsZeFs4w4s9xL1s+j3CrazdT1fFd6l4PIFu1N9Svgv3NVPP0LspkrdbjVUJXC9k4zVgfuzXkvgxXzDLWxmc8sJm8XehMWCyWfmF0ZlE33cLZUz1uSiT7E9scq6EFcelZ2ZpDWw/Rplc2067Vu1kYH6fOti5xmF2QQ6VjSmjszLFUs6Caxs8eTxlZaMBOH+ms7k2Eurq66X8/fxd1tXfRB394ExVVFA5bPqx++m169nfP96sPhGSOmjyKrv3G+ygzC89PTz0wfoC/wtbjdMaOFykj2M01hgUttGSIJt56PD7ZZ+nH+cc5yNsYfCz3E7th5+ZCbGKfQ4+wtkncCcU2EpRtWyCT3p54HjXnlvT7fuv0Btq7adoj26h801FOK9IZE8zaANlXO9Fjt9aLY230MUYQImGknzvYfg/tvnAC7V88liJ+FZfFcjIjJZ3L9rDPyq65km67+FfSMcbMbNQd7OutNxQc2mdbvbHxpU10321/phfuepEFcifNfcdcuuCWZXTezefRlHMms/bWSc/f9QI98N2HaO/6fY6vnqB50z80SGLQYOCKDXSjEm1QEhybfmE02g3O63NyjH3+JcJ053YR598w8ahjs3nrq7GDj77DTU5heSFNXjiJJrlMYWWhjGR0tHb2ODf5rEk0jjtQ0J5MOGaJ27wnOl0aM42mvRucEjdOmHq/obaBXrznZXrhDy8qN3DrmKEEuR4IdVHNkY0slIN8H/QwNG+jz5Bhp4zYE1esqIGgQkXTxnEjYeCY/cuEsJj/rO5OmrlvBflC3dFrRv6lAtILU7HuKGuzx6NC2etozFrbjds3jiUM3ncb058cY4sw2Q6zt6tWH5F3ohG53CEn3RaLJTnuVh11K26brveY6w7U068/9Rtqa2yjK/7xclpw2QIKZPgpgoTAIZtwKEz1hxvojQffpDPffQaNmTY6mlATaQCc/diOAg2HxmwgsGeGpI/lXVM+0Od0fNLAyJ7CcSZgP2G6nPgkbD5vukgUniYap+Oiu7Ob7nA05g/96GYqgMYsZ3pihut2kyiNbkKc56IBsW/T+dqn19FD33+YJsydQB/5yS1sY5zEdeL6fCyCDC1RUoLEsFMnKwT4NPPVJFkao9eF09oL7x/YdID+xJ27rs4u+tqjX3VOKFK53lRB7FXHd8sQdoDzB4ITQ89KAENQQVtmo7Vlobf49UVwXsu14Sl9kPdZYw5De2aN3NGeN41bQPvKp0R9mGU6GQjR39pFi3/8ljwH1sLUFKraAL3tDX2vJL2O0cfympeUmwjtXTKWdl5UTZFArCykEr7FcqIhJZzL93BrzBewxvyN3jRmx+2ws+nljfIMecb5M+jsq8+mjGzWOnzojXPjga2fE5gZoPIJ5XTlF66g0dOqHJ89iYQjFOwKUndbFwVZiOkGI1lTEG1IImgMY4SCIRF+oW40kOwuYQARee7d1d4tz8bFYbKI2F7CQVwh51m5Q4jtuju6ReiKoyECeYEwEbYI2X6GDe0Hee/z8z3g++BzDLfnAp+WghK1hwnguaQpkDQevi8qr6JzBRIgmjQadSxskQzkJdzwNfGeuMV+mLU00cL5GNeLzpw2Q4k/2EWlzUeUUIYGDK3W0Ybx/FhpyrwvmilnlhhONDIOQjtq59hH9xEW/KkwMTSuJoWp8GCq6nZz/M6qW+4sTgZn5dg3DkZnX6OCx2m6LgENzHOmSWavz2m/csw/aOkZ3CkAQ1eyLZZTF7OZNttsXb98hfnFt2csbJCD4SAjkEXLFl5Na59aS3vW7KVzb1xKY6aPkXO6zUFatJFjMfpsjG4WxjtX76bNr2ymDS9uoK2vb+PjnXRkxxFu6CNUWF6gLszltbWhjV6//w2qP1hPVZNHyeSlDS9upPUvbKDNr26h3Wv20LF9xygzJ4NyCnMcX0R1h5S7dc+toy2vbZHn4sf2HyNfwE/5JXmOKzRizi7nb/OxZnrtgTdlWzlpFDUfb6Ytr2+ldc+up02vbKKdK3fSoW2H5FryOAw/C7kYHAAHBiGz+m9rpOMw/5K5nK4s5zxQbrraOmn327tp7XPracPzG2nbih20f9N+vtZWDjdfns+b6BvuBkUCZ3DeNIc5Tze+vImKRxXRgsvOiNrzP/FnAiG8f/MBzidOy0sb+b5spT3r9lBTbRMFuAOWU5CtIuHIEN/+jftp5ZOr5T6MmjIqdruMHQjd1//8Ou1jDbmosoiO7T5Kbz26gu/3Ljqw+aDqUHH+4J6I4byYdOZEx//gye5socmHN5OfO3MiNEUYs+CEEHU0ZeQFfpInWgDLM2dtp4y4EZytbAx7OEPeyL8IeVlzbs4potasAnVOu3MhFRqneBNo7abJmPDVHnQ6CzFhjC3Q99Bt3CSyN4/d5/0dQWovzqKmsZxeBqfYhexbLCcj9U21tH7b69TZ3eHYDC3VRVNp2cQrpW5qo+sVTNoE8/blO7ix3ktVU0dxAzpJtSdSgZ2Krn9G4kx2r91Nj/7oMXrz4bfkWTVmc7fUtdKuNSyoWbjueGs7tTW1U/X8atHExbcEzpl8uJHu/84D1MRCMr80n574rydo+eMrRZDV7T9O29jvtje3y3NtnC8ZV0abWRA/+sPHaDULkAMsdDAUv3PVTtr6xja5lqz8bBHyEo2R1tq9x+ihf3+IBUcnlYwupb9wXG8+9Kaks+V4K8d5QNK/Y8VOjruORk8bTZm5McGLsNyCOSM3U52T/9zRaGyjv//yKXnOupE7Di31rVR/oE7StuW1rbRvwz4qripmgVaIAFU2uPJTo/Na3Cgr4fBORzBXQTAviJ0zu3oM5gq8+qfX6KnfPENrnlpDDdyZaT7WQjv5+ja/upn2rN2rJvaNLWXZBQHBWnV3kJ6/4wVa+8xaqqiukFESE8T10j2v0NMcJia+TVs8lcvOPnrlvleplgU0HodgRKKe4zq07bB0dI7sOEzn3rBUBTAElDUeojH1+zlvoMkqDVk9D4bWrIUw8k5dU+yn0m8auHXns/KufKgchZBlS/7zhkPUnpFD9XllUTfJgF+cLdrTSFVralnTZsHuquh6H5j2faHd9OUeacCks4NnqlEuuEwlfIvlRCWdghkjkgD7AHUnbYK5pa6Ftr2xnRv8WpqyaIrSOLnuplKJMez59189zVrnOpp1/ky64dvX0aWfvoTOuXYRN8bnygzhDS9tYOG8UzTecbPGcZiOZwYa8/LHVlCYNbstLMQh6K6//Tp6z5eupHM/cC4teu8i6mzpoA2sQSN98HvfbX+izOxMuuZrV9PV/3wVLbvpPFr8vsUyhApNHVph9YJq0SjN9DcfbaKVf13NmrBfhOQxFtSXf/5ddMPt19OS65fQ+TedS9OXTpdOCjTdg1sO0plXnOn4RgPI1+vWmLVgdqK584t/YKG2TiZtfey/PkIXfuQCWnLdYlp63RK+ux5ayZ2O3Rz+xAU1opWD/jaU8RqzIZhdvHDnC/S3Xz5NoyZV0od/8mG69Fa+L+9bREtvXMpCt5xWccdmPXce0GFCZwHXmMOdmur5E1jQvkLH9h2nmjOqKbcwVwXIIG8f405Y2fhSev/X38/us+QeL71hCV9TNXeQdlMgw0dffeTLYgez5PrFoikOFROObqfC9mbuTKDS4NUnDDOjwwehjHjUVuVL//JWC9OowI1ulIjmrhl1+jOoLr+cQjLMnSR87Y+35RuOUenOBhls18LXFMKm6Q9u9/o47pEJ22E1sH3njKZwACno6c9iOZkYbsFcUzyNBfMVIpTNeop9mLQJ5tLRJdRwpFGGMdc8vYYaaxslIfpZpA8VGg80jfqugTsMec67ZL40wrlFueIWk2LwrLOypoIqJ1bSahaIEOLTF09TQ7lO2wDB/BYL5hbW5MbNGU/XfeP9VDVpVDSMzJxMmnHedGpvbqdNLIy2v7WDiqoK6SM/+RBVz5tAPj83zuw2kB2Q4dKO1g7auXKXNEjQ5vDsVdPIgnnVE6tZm6uTIeUbv3sDTVvCbvA6iRNfYUUBzVg6Td7lhmbe3RmkKWdPYt+4OckFMxrD5+96kVaw4F38vnPoyi9eQXms4SNM5JE/wy+vmkEDXcfaKK57xnkzOI/4vM6MFOlNMGMfZtub2+iRHzxGs5bNpPd9/X1UNqZE8gRpwfXinkzg/N6+fDvtWL6DFrxrPgVwn9lzXnEulXE6Vz2xijqaOqQT4c/0c7yH6YmfPkndXC5u/t4HqITLDfJeX2PT8RZa//x6CgfDMptf24vp5zX2xsTDWygr2M3hOkPYjsFzZghkyYEBxKnmMcT8cBCxQxmaZsPboM9PRwtGUTCQkTwOOMeWO4uj1tVS0cHEi4lgC/S2v+iwNPo4Kpydbd3kYuoozpI0DTQui+VEYLgF84QiJZh1XdICOXrsuBt2IFyu+MIV9K7PXCJDwCseW0l3fuEPdM/X/kgPff8Reub3z3GDu4FaGltFNktV57qtE1o2plQaeS24Ue2xq6v/tHOmshApphZuuBuPNjq2MaCNZLHmddaVZzpaLnSe+MbjzMvOkKFsTKa67LOXUWV1BbtQP7iF8bOQPo+1bC8LntrdtWqhDRMnyEBWBi265myZWQ5/OgxcC9zkleXTspvPl3e3X73vVWo4zGmOT04Ubd1wpEGG8ktGF4tQymbNE+j80vkxnYX+3HfOpQ0vbKTj+49H82yowExcDEc/9aunuZOUQ0uvXyLP993RIC3jZo+jhZznR3cflfSIvXNP5yybRYvff47MF3jz0beoo7mDXvq/l2Vm/nu/chWXE2dolANWOch5KPtA5pHH/YaSnK42/g9hrDRjJYz5Djpp53/irr9ISiUMVSrkakRaazsVV2awi3wyS1u89YqvK0SB9qAKzUlfIjMUmOGYDQlss+u5EVOXYrFYegONmgPqT9wIFJM2wQyyWDgvvX4pXXvbtfTh//qQDEcXs5DBhKhn73iOHvreI/R/X7lHhqwx6zqupXc1LHGXwaegjZaMKaYu1j6hgfbEI4KsZn61uE9EdkGWCHcMh886f4Zj25MCFkJ49orh7w7WshORx1o9tGLMOk/WtlZOYo1y7njpCOxc1fcra3hVqK2pjSay1l7C8UcxGkOIq4ycDJp4xkTpPOD5+9DjkWfuR3bVyv0bP2ecY8/otLCBvMFISA1rw7msIeMZtJkXOAfBjGHu5//3BXk9a9NLm2jJtYtlJGIkCYTx7rK6EKdLJfvDgxO2xKfi8obD5JEZ4cnReekNheUbyyamAB0qkoUpgpkNOgcWiyUV4oWxu26lVTAjaghQTEqaxI31BR88nz78kw/Rvzz5NXlWWsLaI2bd3v+dB2VIGSDpSD8+t4ch3jXPrKU/fet++vWtv6Vff+q39MtP/YZ+9Qk2n/wN7d+yX+KARud+9QmZgKFeaMRxSKKUwbC4P8NHeaWYLY3XY5KTw4JX0ma2hzpO3mYXZFMBX6c7HRp0mBCfaIW8f/zAsaj3HvAJ3Ddo1Rj637N2D931xbvpri/8QZl/cgz2v/gHuvMLd9PL974iM5drd9ZyGpDSoaX+cL0MtWNm9T1f/WOPtNxpGGjWmLB1ZOeRHteITg6eSweyAvT2U2uphjsUZ1+9UIS2ZMyIgUxXWrICwkdtlRk8EQ4fHSmgBL/SQBGvCDv8XBXWxDyj3Wojdr34HQyJ4lDb4YnPYjnVkNpi1M8R1ZiREHkGxgb7csxJzMgIiIb0uf/9B7r2G+8XAYpZx91d6h1lvLe66+099F83/4we/cFjVLevjrLzsii3KFuGUnOLc1hDzSGfTwnTRE2EmQkmnApJg+gpjpu+hHLikDTOWWjK0qNQhyaw0tZ6ZadwMLFbhQpThxdk4YyhZDEsHOMMn4PAzMrNYq25hsomlEX9DyW6IKGjEAwiHfFpQRq0wXvSmOw1AaMVLhBOZyfegY3Ic2l0wGS0ZIQJ+vBsV4NqgiNtzL1BgjIngenQ1DbkC1AYHYOkZYJhpzgd5g5eGIt7OEENJ2Y90vt6253NnSkkqLc0WywWbuecnQSgTUyrYE6FWctm0JRFk+nonmPUdLRZ7FrrW+iZ3zxDx3ZjhvPl9OH//CDd8qOb6eYf3EwfdMzNP7yZxkwfLe5HEj1w3dnaKZOa0GT1aCyNm4IhYTgoqFDvgCaF/WDCFIanpy+ZRh/7+UeV+dlH6ONJDM4v++D5TgBDB64nv1S9M145sYI+/OMPcTo+mjAN2uD8jd++XgWg4YAaDjfQM799jgV4WJ7d41331x98UxYqQfg98i5N4HUl0WYhdNKWCB2Rh7q4YxD2+jgNvdVgtQlleCmYjffWufQ5QjJdmIIa7zJbLJa+MaupVnKA3j/hBDMW75BJTZw+WSWLLwBrNmMSEz5wcca75lM2FgFJ0AD1upJUmsHQLRbZ6A0sPoJZ6mD8zHFJh71xs3BlWJgFK6Zte2ubvLPdG2ZODMNINpWPL5PZ5Vi0Be8RJ0l6r0Azfu3+12nnih10+ecuo4s+ciHNecccep3tsBgLyuhI3dGmbDzD11elUjH0aUkcIrojnYFsmZkdS0NyIl4vtRdlseY8kLswNKBD0FLpLLozcsmwWE5qdEc3LYIZAnPTK1uodt8xGeZUy2NG4j50oPfxvjNWdsovy1cLT3DbFRY/EfJnqleqetR79nd8f51MIhtR0M46Bq8qYeY5liGFWDWvExeA131W/XU1Hd5+WCaAjZ0xJqkA1ddbUVMhQ/641lfufVWGsuV5Op8zDeYMtTW2UneHGiJO1IkZDIgjgzW0JdcuoYbaRnrzkeXU1tIejR/IPq6T95rqmmUhEp0KdDSQF5iY9uq9r9HC95xFc1kgZ+Vl0Xk3LqXKmkr60zf/TEd2HXF8xNKPEQMsVIIlSGWJTraLK0eOGSz1OSX8H6EjrGjK5Zr0dQ42Fl2S5T8HFouFy09mrmjNvcWCSqwfDbWMypHhbB3GcGH27oE+bhqdR925ziOg5Em2WCyMKFsJ2iltN+yCGQ1FZ2sHvf33t+m/P/TfspoTlk/Eqk2wh9bUxQIEC3PsXbeXnv39c/Iu6znvXxTtPUBAF1YU0q5Vu2VSWHtLh3MBEWnwd6/dQ3/+1v3yitJII1ovm+y8TBEsT/733/i69kmHo7u9i9pZ08UkKCyu8dLdL1PJ2BJZ7KQ3zNt3ya2X0Oipo+n1B16nZ3/3LB3eeoha61tlolcHC0eMLKx8ciX99rN30NtPr3V8DSHO9SFNuEezls2iNX9fQ3/777/L/cMoQGd7p7zrDW0ar0j931f+SC/ytao7pszuNbvpwX97mCbMmyAzszOce1fGmvhFH71QXq/DxyqO4XUvo8eSX1ZAeSW5cs1Y/hPXjJEVrHzWxGVoqGjMLaJOvzE0q4pi/M0YEmIBqj0u0/4MashhjZ3Lv1MF+qSRBWNXbmDok5cC6BoenlM2DHljsZyaaNlmApkGe5hhX2AkEwuMnH0N5RXnyScEVz6xioXrZmmYsYITFqnY9NJmWvPUWnrjoTdl+UvMysUqVlks3NAiopHGPgQ6FuTA2thwt+2tHSzw19LyR5fTqClV4q6DhfasC2aq5Sgd9MpfWEgEr+IgTxLo3eIX62ejs7D4fbGOQSKwYAkmPs2+YJbMLNY0HWumVU+ukhnm7/jEO2TRE6zSheU+ty3fLktoLmdNGl9vwtD05Z+/TH1Fy/GPnR4LjCAfHAfQKvF6UsOhRnr7b2/La1bIS+QFVi5b9eTbKv7RxTT3ojmcD8XiN9H19kavK385DbCPNVe8p4z7irTg3uzjTggWFME9XvXXNbSC8wlfEZv3zjmi8SMgdFiw3Cny+8ovvNtZqS0WQyl3VjBkv5rDxCtpE+ZMoEw+Blg4BgUY64+jo4YRh62vb6cVXK6aj7fQ5LMmOqMq/bteN2FOT25XGxV0tHJIMjWQbdlgQpaR1sHFAvAkGxkKAw09RE1ZebSrvJpCGMpGlCnEEmJtOaM1SCV7uXMCP5xG0wwLfB+Q6vb8DNp20XgKZhuTL4crToslDQz3AiPVsvJXbElOXU9xDNKy8tcFLJjRwE9ZOFlWosrKzZZJP/jwAd7NhWaFRGGY9tJPvZPmXzpPZlujQUL9xrny8eWylCUmCWEt6L0b9qsPT7AwXsIaF7Su+kMN8inCqYumxJaiZIMPPuxj9yWji+Qb0BKmnIkH7z9DW8/Ky6bZF82WeBOBxmivrAGdTVPPmSIrkQnsHFoblqFE/O/+7OU0bek0ie8ga7aH2EB4FI0qpPNvOo8u/PAyGjWxks+rm6GaOY8M2+/buF+etSNPMlmblBunopB3gjFBbuyMsdTKGvihrYfp6K5aWTMbAhlhY/ESrIgmQoo9Jbre3sAKZhgyx+pd05bwNTj2QKcDZHJHYdIZNVQzv4Y7KkFZdOXQ9iPyAQtotme/ZyFd/LGLaTwLcLzTjU4PXovCa1wXfewieV9cFqrgsKKG3VVNGS35gHzDqELpmFLJHVBRUy7XfvxAvSxpilXk8MwbXy3TnaRk9y5VMCPaw4KnpLWefE5PVgaYdLjOdjCxqPuNHWxhZFCetlXUUEMehtIZjifVOFoqcmjMmqPk7471vHU+DDY/TNAxEuMc7z2zko5OK6EIVphDNGz6W94slhOJ9Ajm+CU5tVCW43R9jxmjkboiJ0XXZcchKrmu4NIQyDEOlBPs6zD1vmmXECeMRA2HtI/sW+Lh/WSNWTQt4t5pjBg0VRCov/3M76l8Qhl99n8/E40lWZrMa3Q/G4WtDI2zNZ4jauLdQeNS50xb2AymMY6Lg4NRorMnyAsTOYJT3on64J1YGvlneDGvy0SexQMnHMOLAmGypdhrB4bDZOGmCq7LHw7SvL3rqbK5jsODNoh3qxExwoaQxt/A48GrYZJg3kZYU8a3mZsys+jVKYs4eMSVOjpfx686QjP/tlvul+QBG5SDoRDM+l5L+WeDuSItJVm07sqJ1Dg2f0jisFhGEinhXLZH8nvMEMxKRI8QPeqxqvfS4CVq76QhhnGOTecabZcUOEjqCM2bQ29tjHNOuU0eow4ioQs+6b5+HLus5NhtB5SdkwI+cMeRPFX9I1GaepA8gU46TAdqv88w4dG4iDj3cWEz5sXiXJ+B9w2C7Pb6aTtrrx1+PLt1EmSGbcbbb9ChQnC6zEUknrVjZ1LY6Tn3CyctB2eWUu3kItb445Pn7kANFFM4h/1eOjC3jJqqYh8gsVgsqdFbnUyrYNZtphj84704O5fpSQL3hkN9HDXaTts7+70Rc9Oby1g6esVxpN2609QT5SD+vGNhoA+RCvXjfThznKp97A0cHW6fuBxJ/I4BicKInUt0VqHDEBfOjmkXb/jHO6bdYNHhNuYU0uaqqSykIUKh2erKFBNQ2EtexdS5OCN+nJ9UzjB1sYa8raKa48NQPOz6D9IcyvLTriVjqLk8W8IHqaSxL8xGRO8fmlFM+xZUyAInQ5LpFstpjm630yeYOT5EGjXyc9lF7WM/jTqfxL37WP/c9sZxIuLcOnaJkHTj5w6L26uoT1Zjoz8zXHPf+Wnc4Sp3RpgOcefFjfGLHg8ODiYu7GREXei0GH5ixzGwH3Or7BIRcwP/zi/ZMdLq+g2WaLj871BhBW2omizCWa3Bql+j0tv+APdsHIGM/RAHu7t0DB0swUc7kPb+pz+WF9yZGJNLmy8eT12Z/phAxdYQrv1B+1ICXnUmDk8rpk2XVFN3DhY2wUm1sVgsqYG6mgjYj+hQ9qkIPl1YWV1JZeNKHRvLyU6EBfLBolG0tbKGunw+lqcsUEXIOTOqIax7EXpwEzVasMM9myCHvat0NG2vmMAC2qdE8iCFHBb7OF5TSCuun0rteXoYHtEpoapNKog7w0+Y03tgZimtfXcNdbN2LgysL2GxnLaoahWrg24hbQXzEINZ1v9wx61043ddy09aTmrwwYm9JWNEc67LyWdRp4QrfrzDRg1zy8+xj/7ECZ+XSV7KPT4s0pCVS+uqJrLAn6ieK0vdHBoJh1Aax+bRiuum0qGpRdQd4G4B0oXEIAmMbhgkjfg5500j57Fl054foB2LRtHmd4ynIAtlndKhSbHFcvrgVpZ1XdNYwTyE6KFEzIbFz3JqIHeT7ymWvjxQXEFvj5tKWyrGUUtGJouzmPZLkRAbrREbxhHa2r6Tte4dpVW0ZuxUDq9KNHKg4uFKiX+DQJdD/Jorc2jDJRNo48XjqH5MrjQA8sMWRrR/9qTbBb0fPc9aPQv1/bNKaM0VE2nHkirqZC0cmGUdP4vFkhqoYrqemkJZ10tvSZnxXV+LxdInrRnZtKN8PL1ZM4c2VlZTUzZWCNMCWG1V1VOCGAIb9s2ZWbSpcjy9PGk+a8nV1MwaM5B6Ke/FDQ+deRm0f145Lb92Kq167ySqrSmgID4EhUaAz+vGQB0jpeoqujJ9tPuMcnr9pum07rJqOl5dQCH5HCdj5bDFMnAcWYw6B+Gs0fvpe4+Zj22v2nKyo0SZU45RwNUO5XR2UElbI+V3tlNmsIv8rIni+XGXP4MFcjbV5xSwQM8RrVuFov1yrXB2zQo6VEhMOnznHw6zmrupeH8L5R9tlf1ARxAJoI6cALUVZ8oSn9CwYRdLqfIr8EGyd9stlpMVKd9cYdLxHvPXL/qlvMMMI+8uO0Y0aSuYLRaLxWJJn2BeVnMF3Xbxr0Uo69W/tFCWfcetxWKxWCyWdOB6dIUhbSDaMoSzHFksFovFYkkLLHsFLZDdWMFssVgsFkuaMSd+6a1MwGRjBbPFYrFYLGkGwlhrzG7N2Qpmi8VisVjSiEsO99CcrWC2WCwWi2UEcWvOVjBbLBaLxZImRClWirEAYayHta3GbLFYLBbLiOAay3bQwtkKZovFYrFY0oQarTZUZsbUloEVzBaLxWKxpJF4sdwTK5gtFovFYkkjepIXMDVl+4zZYrFYLJaRwBHAWhDrLQQ2jBXMFovFYrGkkZiOrNAatNWYLRaLxWIZASCHtXYM3MPZVjBbLBaLxZJGIIdNYazRgtoKZovFYrFYRhgIZQhrbK1gtlgsFovlBMIKZovFYrFY0kjsZSmF1paBfcZssVgsFku6cUtmAzuUbbFYLBZLmjHnfekJXyZWMFssFovFkkYSyOI4vD6/39m1WCwWi8WSDrSmjGfK7lenrMZssVgsFssI4h7O9oaCQWfXYrFYLBZLOtCasn3GbLFYLBbLSOOMXCcSysAKZovFYrFY0olLHpvPmLFvBbPFYrFYLCcI0KKtYLZYLBaLJZ0Yk7BNbRlC2WrMFovFYrGkmfiXo2LPmrWQtoLZYrFYLJY0Yj5itrOyLRaLxWIZaZLMxtZC2gpmi8VisVjSiSf2/rJ7RjawgtlisVgslnTiUphN4QysYLZYLBaL5QQBmrQVzBaLxWKxpBGXgtwDK5gtFovFYkkjeLxsDl9DSzafOVvBbLFYLBZLOjE0Zi2QNXYo22KxWCyWNKPlMrRj02g7K5gtFovFYhkB9BC21pr11gpmi8VisVjSiBbAGlNbBlYwWywWi8WSRiCA3cIZaO3ZCmaLxWKxWEYIU0hbjdlisVgslhGA9eKoEDY1Z71/wglmrcqHja3su9cwG2Z0OnTMYf4/HGnR4emfxCF7gyMu7/S+E35/cfuP5g0by9CAO67uu8pXnd/aXue75fRClwVd33R5CIZDVN/dSvs762hnRy3t6DhCuzuP0ZHuRmoPd6nyA6PLD4z274RlGUmUUAZaQAPsw5ywGjOSyn0KTiQSq+zSTTjIhbgZJkQR3kZa2bAdJ2xIiYR0PBx+CxtsO4c2EsnCwQbJ/tV9YcM7MJYhhDMW7WX0NjnH2iJqbzltkHvO9SzMmxD/P9TVSK81b6fHGt+mp1s30qttO2h5+x5a2bGX3mzbSS+0bKHHG9fQ000baHPHYeoIdVM4zL61IOaNVFtbd0eUZNmvO2AnoMbMhgVVJMQHzjaCUjkCrVLkSIS6Xg6yCcm2+/UghWuHPiHhZqKuVzgeGIkvSME9yIBBgDuPzEQehp385HwcUCdHwmKjWgcJk4LOsWVowf3iThk6gWZnjTr4FqBTaDmtQCPdGuqknZ219GzzRnqldSsdDDVQ0BOWaunzsnYFwxXb5/XyPjfpfKIx0k7rO/fT080baE3HPjoebHU0ZlWVLScm0WfMPr9fdkYK3UPQv/DxCAU3htmElNkQotDeMDdKhls2aYfzC7FKvqm8Gzo4PI8ZqPt4gEQanbzcAMN5uYn73J24jtgvVcK16p50y31R++E6K5n7i853PdSIshxmYRyuD1NoF/KVzTo2a2E4r2HWcb6zCfF97N4apBDfi3C3Dkn/LKcC0fvplI1DwQZayRrx2o791MSVF4LX6/GKEPb5fOTx+njfx/bKiL1j4K7LE6IdXUfprbZdtKnzgAxzq3icuJx4LCNHovw/cTRmThvSF9zJDdB+bngOsMGWTYjtIm0q8eksQhCNesxf/5T94IVmIiQGJ66hINLGAvVAhPOTDW/D+7ixfztIkW6V16nWR6QHQh5hmQZanaV/uPM9XB+h7tUseNmEtnFZR74eY8P5Tc3sgE2kkQ13WMOH+D7uZOEMQb0ySMFDGE5S4VhOEZzygWfC6zsOsFDeS0eDzfLYSAtfCGcIY5/HR35jX2nMft76WSjH3MK0URdt7TxCq1jIN4cw/KLisowMybJeC2lvKIgxyZFFl5FwAxdHboCglYoddrDP5QgaGzdXjshS/y2pgWyUfOTaHa5jLXobN+hW2R05uHBHWHHBCEb3m9xRwuORTr5BrDl7uGL2psHgsQ6GuiHQg2+zkF4TojDXjzhpbzmpwbPkDSyUt3Qdpm4+UoIYRg1XiyCG0GWNWe9DexaNWbRpxw77/BMh7fFzG+ClIyzkV7Nw7gh3q3kiTpyW9KIlWFTxk0ZaHYOR15idFOI5aGgrtzooLFxaPDBOsYETaH3Q9AScHAR6+EaM/FBA1XaoiItDTKJ4hzLGFEBGcpThg9CiOa/x7NlME5vhAKEiaFyv/Fxxyg8OkhDv1giHf6lguo8Li00y3O7iDM47v1QQ945fOW5hobouSKE93NkUKyc03B+nYgrYdWqo9o/TMqLitKoh1qKDEM54Fg03+Dlu+zRGuPIzziXC7Ub9HHv8DPu+UK6US9ma4bpMIsSfdiPH8T9NnDu30b9kx6a9sz8cmPFAKO/orKWdXcf4DJ4fK41XCWdH+Lq25nkloJ1jCG4f7GE4LN738PZouIVWdEA4c+8QZQzGMiK4y5XeP2GGsiOsAWDIjstmQiLtrCXsYzfDUoiQOdgMfcWTYMXgZx6zwb80oeufDEt3cQOwKyzas07CcCZFXTv/OBIxYmcY/OuFeLdGOLBIAdM9vGiTKiIDtcExTD8CUY2u46+VNeUN3Pwe5SPHv1mmPflEvvHckE73kn82mzm8P4vNJG5sK7i68l8sNLWJNHHdgGDGIY6VtXYRl/44zHTxP9NPMqLu5Qhb/vFBqv6jOH60x6RpTIqZC0YaYpYK2KmNMjoe7DuW0XPYN47xX2Jx7IYdjgTD1tu7jlKYlQ8RqI4GDAHscYSvFryY8KX2DQHu2MUENAS48oewlBsv1QabWCs/KK9dpefiLInQ2rIWyPp45AUz0gPljbU4zPiN1sss3svirdRUNpxYCJNIJ+zgYODAezSIuIMhBJnt7LqRa+ST0WtNO5y2dhYQGznj8bhpmBNiDnCYUQ022lT9ozMymHjhXoXBe/jjStTvMOChm/N8bZDCDcpOAoFBWcj2UGC2jwJn+UUo+6q5AR3DZjTvj2MBPZnPzfVSYAmfr+Jqi3SgEvOubyy7qUiSIrgzfoMq6q77qAUbQNiDIZbCFMPRaWHn5jX15hvn3LFEg2ELt191lweZZ6nA0SCOEP/HJK9OCrIAVRqu1ohFIPPNlkZbBC60X3XscexVeVDnREBH3aow4E4Lerg9GGyk/cF6lQbLiKAUjZ4lbEQEs+qHqp8c47WQBj5CIsWGG5tRHvJP8bHQcNzhXDe7O8DChNEXlOiiNKabqMGrPqwx4nl2cG+IgttD1L0Dk27YsOYBbRLD6uLfCaM32HXsZ8SDYWLq4vMcZuhAiEKIA2YvG0zswaxaXIoOHn70/hCDYMUgDjRATguEyWHdq7vj3pmOXYNjMUBUnPrH+3jNiuMJ8X0O7eP84HwP7mDNcT83R5wfku94VQhx4xdNh2oe5TxGVVBOsIWRzr7+xRMXTigsz2S1f+zL/UkBece8DgYjDAhHDT+n5jsGylRwF19rk7ZQBtfmLWWBu5AFLgtYdEY9fnWT0HjqiCCAKcB2eVwv5vrIP91HlMl+IZSncaPLfhAW/qutMpF2zCtw0s4m0sjGUZKknOPVLCmjqnzKhD54dDDvg8B+8HwcGrr42clmO9elPRgFYP/tbGRyoePP/OkwDPCWAOq+mUbMOI+iC6sbWCMd+r5qw3bmBbCN2uE0wW00DqcOCrgmKZt8HVweo3V1P18L5w1LSnEDoteV4FoGjkrvRtZgWzjzlABmYYqfTwlYlAUIV2i/UcHr7IuwZRO1h3veFyFtuFNGCXgI5yB3BfZ111FruMu4LkmKJY3oTpVZpnyF+cW3ZyzUXfihJyOQRcsWXi1FTzUZDMcfTQLvyAzsw7FEebjBgVD2lnvF3qOfLQMWZt4yDokbIu1DGrBe0O7QwOK5XnCralAwnCiNdB27qeX9/ariisDMYbs2Pj6C53pO+Nw4elkz8ebH+jMqbD7PO+KKt6FmVGpuiLdyJed48D50BHFg6JjjlFnnmHnLDYMni68FfvapDoeOy1viIR832INBOjwcdzwI37FDstHocP56ivmAGwEN9sx8DR/n63AVE285p7EoSRqdQgYhIA0h8n0L58tuDuco20t+8HVz+iQ/OP+lg8Bp8GRwvNGonbS2cjLfYG2T80lmmbMfLwspT75yC+fR8sVwaPxfHYcOhql7lWpo9Ux/L18vhJzpx8SJlf3yfVzNQkdmoqs8gAYLb8ieZP5NEJYIsp28h8d6vEHeiv9S1pQX+LkccH7CLvpD2NpdzEi6+IS3kI8LOP/HO2mJulVbTYgFJl69is6mPx6R+iNCjTuJQRaqUhe4nuF+oJMg+SohKiROLp7o1KCcyuxxCPFatuPwpFxzecascYkDwh+eAjAcjgSgiKbN2YR3u9LHxlvJacCIGcA1qb0ehA9x+lfjfsb8ejhfJP0uT+Fj7HaFEQ+nF27hLLSPrwvXxPcnrq6iTdjL59DhwH1D/eC2SQdu5vNgaeUeytqOAxT2hLkKKA1XC1ER1NCgEZ+RH3K/ZUcZ2Wg30XPyX9DpxVaVowh1RIJU4M1mgx4h/MCvODutqW+qpfXbXqfObsysHHomFE+lZROvlEcOuB+433Fbx92IgQKPxlm3OCgU3hJOHFculCw0gtF6zcfhFq4sEKaOZZ9lCA5YOIiGpifcsKaoT5nDrGhNpPHZArfsrgWW7Mp0kwhDCKHxx3unoW3QjmLpjIcrRjO73cGN/npu9LkhG1aQPhhkrnnB2GUT4kYZjVucFtlnxvYNtM3g9qDkBwQq5gm48wOFED8IXggIyTvcI2SJpAH/2AULIRh1DbBHutkR3LnCVGhHaMDhwHEk1h4KoiOU0J9CnMEvOgxOWNh6R3GVkVrTi2c37DRynLd8jaY30X5n+kWAOalNHfbgZaEuaYHnfgQADRUzwkW4ooz2VvwQbpCzYhd3btY6HU3uZCS9fHaLPEO5xvvz5rP0/l/kMIJksfDtxvv9XFdFg0Y6Ub4MMGKH+xZmoY13ytGxTHrtA4Xr5qFgoywaojTcWAMNgYw06WFspE62vRjVwVNo9xIuTFQA4Bhta4QOc9x4pq38DPXFWRLiZLOpJeO+aEZIMKuCAxNhTYxkeA+FijesCXvLOFnobTOiHec6CcY1QJCjseQGQNk65xIA53CHiie9YQhktoQPpABFURdHhWPHScLrWRAQAIU3Gdo38jeEHjxmluP9U4dEqVN27IE9RerZ32YVz3CDqxONiDUFjeyx5h7kRjr67BMkv+TU4EsKvs0N3m6+Rul0qjjd+aGH0HSEGEpFpwaCIA72iGFbZ5cN/+eOU/RdaqOAAx1PmAWPrJzlWGhnMnwK+16QpVGjbrhkZKjyKBiVqE9kOBydDQ4P18lesfWytuvJddykGF4PV0ieNqnQycnBvYZW6Fgh6qTR47n4Vu5c7YitJZDQfTR+p0bx7YtAS10flNEWnE8WxYiACZAsZMPcYUJZEqHG1qgjCWFrTNwLbVPlM5mzgRDkHv3xUCsHyWVCC2TJY2yhObMdHMqxykWzEU+E8hsz/C/qX68UhteoEP7RUAsXUb4mZggvy9Irvd/HERLMCnlFag9XeKdhlm0WV+xSdR5gqBfDuiayAIPTSPRalDj88EGufPvYDTeOUkiRIfCC1/pyI+QbxZkwnm3HsH0e2/lj4XnCKMjJM09wnEeaWJBDwMqwu6oA4g1Ds9lsKjieCbwdy6aAXeB5oXNz0HkYTlRaEBdvfZykGVzRc9Q5JFLOowOzhu+FFnS9XHIy0LDIilac112bWbg62pLOPwwFeoo85JvsJf98Ngu8MtvYU8gnoRlIpNw0hjwUwmOAfaoBhHcoLtAQIxmqnEhcHWwwegJ/Thwa2OIftCLq4njxk2tlOwQW9MiwbhhlBGmWMhgDRzKSwXGINI+wX75vXr6X0qipEJXjvuDrEY2Mkbzg8Dw5nA8YdkVYSJec7Rv4135Mo/O4T/jeUDtyDPWBj9ECcIdDJlpm8zkf8hdJRN6wloxnrqg/6CfBvY4GQ9QFHAbXG9Qf7yg+xuMfvsdYf0DCxiW3e0RzjiAfTyDkfXAuXigKKEuiCOD+YsId6mklXwB3mqCx6vImP84/mSeC5+tO2VHt18Bpi3TzLenmPINQVkYNYav7qo15nAqmv/iwHGHP9x5COuhBx6ANucDnlF9LetBlx12GRkgwq0RgmEtekTLwVXCh4cYvCgtQ0Zrl2Y6yktd9uGL0BZ6fohJJY6ThMPBsCcIpsCQgz/cCM32UMZfNYh/5Z3MvEs9bU0RC5goe2sx7bgGLxncKx7OY4zjTT36OJzCHDR9DMHlR+c07kKZa4SmCQOTrRINswvmFBSuUcB5AWpzp3XJfD6u1fKNwoy15vpCvnQUzhoR9lXw8lfN9YYB8vMVzVpWj3ODzT4ZNOS0os5LPnF7zubsHjWsD/zMnCxmohTjgyDyPVLHhMgEtltWVqJWJTDRkrRL3FqciXtZm0EF051kKyLNzPMs3kI6Rfo6aRpATnKMqhwv5Hkzh8ngGl89z2HC59Bar/MWtDENDxMiFzj5soW3xffPPR33h+oOJaLPYnIFjvreYiCajAEpAS+ZxRyC0nsvVMHdABwSnT+ZKoP4v4vRz/fTP4DxZwIaPpROLeQwGuA48smKJqo7jT/ebTg6wiw2EpPwk39QWQQ8yeKFnWDjGvVbb47jZfHKQfQxLqrhuqtxzgxESzAyEmQxXGglibU6GK6VQ8rFzCg0iNAwTaMIQvL2Vo/ARNljS0DkWuFfs58qGGbBeFvo4pw00OjQ6gdncQHGjlQpIVfgIa+UyW9eIiXvgvmk+NTmHG3N9OXIV/A9DylLpuVFIN8hbHwtGDKW6kRm6ePY4UA0HAo3zQ82OZRCM5AU35pg05eS5edUePu+v5vyYyue5DChYeGBGMZ4jO0mRmccQjhyGBsPv5qzyKGwFoa411UTgOT+GJ4H7LmD4HbN81RmON5MNhFbPLOsTd17KUQaH5zyuGQmg4eIdaf9ELoNFnBZMQsSkO53/nEgZsuV8UDnAhguOt5ydcLnF6IXUUVyMNrjP4zhcPq/ukVypgCFjed58gqAbQk8Fp5c7Fj7Uw2jZU6DjijKLDrWXhbPjRZA3CTBBzDkeDFjdK0iqIysCFEadih2bkQ8QCUPCioWrNekWmQXK9vLfkg4gL/R9cDOAZmYI4HSEMMsXz2KNku2t4gpvCGDsIc0Y9sX7nGby0WvF6ycIgEOSi4RchMExhphCB/i8WPIfAsIwLgQyZuSqYFT4MOZxHrcx83QjjMpnJDIBKh61r9OBePysEWO4CGGa4BB2mHnqZ+Gd7ruAq4eQC0xmLbXSsdRw2uVZOWsEyYZ5k+Jht9yQq+FllSUwGBnwYRhabF1E8ybCGrTqGMFO3CJ+CFbMiOVDyTPMpI1qmrxtY7d4Nt4jcL4PeEWzW3zKedxXysc5hcy6dyboqfvG18wHcs3HVLw6fdBwvRhy7xFPCoR0euHdCQBCYAD3Hf5DTWHqWsta1tsxg/qUKph05qvheiCzr9UlRg1nMrYyUsEdW2Xr4I+QfypmkMfsov5g+B+Gfn1l3MmaEHMjl8wG9UQN/SqrkUa9/cHtCh414VgM/3AdMOKKbxN3Br0T+Gbhfok9/1hNDqGMcBkd7MWEuNyFMPkKeS+G44D2jJ0hBiHqcKP/+bgzzA3qCXJfTidUu6OMSZpFgkKGgvB6RogN/6SccEMlvXc+kMJj/tgO7zVLLxznUZb4OjCTGAtlqOdEAP85PBx3s+FGF/7VKbbMVI0/rFQFkNCjP3Hm/IvkcuZwbxrH+lwiwni/tlWdj4bHuerjipwoDvlpO956McTLQlzZpQeOShmu/P453NCWqOyBkXRxoxPGKzS1khv9woNRDD37GobvKwSihI/n70G+JxjS1EbsHBPm/ID2JnnDx4xM2OMwdV6KMJEZ+86zPzYhaOjKeQyWUzJrW18Y+j9j2b88plCNIDxhgpKkiX/4LwHB/qDhl5FnqHhdBt77iZRxZ1+DMipx9RNJEmvgeAUMHSh5RYmN1vz7hBOCPPA6Eyp1vkaN2HIcDSpvJfWIk42nnIW5nqzG9PSrfsA3kTt9TuuCoV55ro9yIaMHCFCdG0mwkponW+3HrgNZ5Pz4QCdTOvOcZ/hpMKJiHg8GFQriRIw4cmyQoCEkep/kWpWB1hxxPiPJu5Y0oPI6+T0eGcGM2a7Osz+VKBa8XOnRc01KBhegGm5d2Y80FGwFAS/vlvIBfKoGQFzHzcTVyHB4pssyCXCFYVMR8oggGRjy5EuJAo9ovOR5aWpIo6+uSI7TiUwGw/PdAhwoO4CJMcFNmFHbU6gkA6kPRyflofqrIPEudWgjC5KNQQquD8srKomMfJaShY3gBCMLi5jfIYaARedKUFt5Viwzv2OI1t5iXFIA/nxqVjWG0517GsJwJO4h72u3stiNzKyHjXIPvwO9PdDMtNdoenSHZEAgb9Wv33CNl2fAxuMAN6hDeO/a3UrLcC/+HNMbKFcYIjezDGUKnYoBZuOQIx08Py6kj4thRIC72g48QoFy0bfv3pHhZL4xSlAaTXJfmdxPTAHgFgoZI/lc5TRE1wL3fdCkTTCLMOV/YazChBf2pSFVFRcNASZciSbADXsiA83JW8rudPnhC4HQlIU60BMH5oYbdGm48Ae3MClMtoELZfgnE3368MMyAemAe3WNnE7pWacIHGIikJP2tMPxY3hYZkcjb6XHrsA9Cm1mYYmOFI5xfepUckT75GAkA/gfa8EYUhbN7qDS7nozsWFpCUDyV4yGCwsm6yCtjgsRcKH9aphUhkr5F9otKVbnGSxWg8YV78h7HS1JYAEZt7gNG3mPWvwqe08Vx5cZc9NfpMPJggogFJRFlPUwGnZJr5nSVBhEWryclj46p9IZlTkC8fHEPULoDT4Nn/FD3rDk6+bykAqxmPu4Vpzuw0lC0HGIlqFeAnCSK28UGLJL+eCTxuOOgeLnXkwAPRmB41GVhyMZyIX1Ayce/M/mi5OsHOYoLQqpD4xWENzKX1o1Zom620MYxsZwqRRAWHLDi1Whul9mzenlYELT9QprW29xl5v9qx8D75jA4zzTjENddxxwJdYJnIOoAI9WDP5TUjc5TlixILmhNTW8vkA+iHNE0ltEwwhHiyF+30RVHLSoQGowuiGfiUzQULuR1KOXZVyHCskB+Ro7lRwjCOdOxyFzDsZwIy8SG6FzmdoTS5ssQoMOG+9rg1d6AL5+hxnh0XvMyKprkm72y508rM5m4sdIjSb+VGpACDgrlGmk3OL5OPYdkypGMP0Hnk2TAEmLPsfbaHXgxgP3Q3lN4hnoi+FsVW5j6GNtert255b0SX/yLgp76i1ujb5eYUAR9U0G+bmv5JN8djfQw4JR9gFqClb/AilmuWWY0Pc/fYIZd5wNtGUMMcZAQtAwcvHARAq0tQmMh8/JUJi4Nwov28kzRtaQBd5I4eqhFbDPVjXsnWrpQyMtFbOXFkJpmfiDW5UGaXCNJPYKS2WZ4clhpOplKIleGVdWzIz2yPNuJAsJ4iviRMnSpUd0XjjuE4FzUc0Sd4r9sAcfa5zyYYZ+Gry2gq0MOUZBOljWjWN7aDEy9McxdbNxBKos44qEO0kRLRmrhjn4xkBS4g/+eYc111At3qdnv1i8Rib08LXjXDF7wPu94npgYKKdeg0J+YdSwj+8D4vHMNKJi5WdEwLkTSZvVdIEXHt/nmOD6EiWBlmAxwjqSFAywuUOdR4Y8feA3chjDr5p6rlsP0EcmIjMXnsv07hb7BxvGzjxSePpxIvZ+knTmCJZ3FvMZKNiSj9cO6jMmTyAam8ZfnCnVdlVGe7epk0wS3QsRNVMainXYmCPxKjk9E6cO/HvVBQMlTorNMl5dofhZLx7qiuR5EQbn3UW0EAlEL9yQqGOnB8qvtacekschuuM53XiFFoXVpxCtGJicQAcKaPchA7En08vEE6SZVIa5D1U51miSiWDRgzPRPsArmWVNp/siZ1YZrEVa6z4YhIMNNCEBufkPLuDgXusjmUOPTM6Hnnf3EkitpjsJe8u1+qWnWEnmPSl98VgWeDKmCjEVobR0fgeC6tOieNFXivD8O9gYO/yGMZ5BxqhwUQ4nViqFAlAGqLlWSeMMe10OTJODxt4118VCsQLC496DQ4dZPyctGhwFLXHHzqnmPEuZxy4npjD23JGCp8cxnDqqBsnZvVDJx3PwQeI5Ck6xNIx4rKA4wQmCjolHSq5UVAuuc4MPBUKCOV8T1ZcuRsWnITGXRdb5nszKdcpnAPp41gGjr4X7m3aBDOQd4+5gMvwsIYLt7xHyUZmPhbhOJFxzqExhgZlpBwNKlYnkjrO/1C2vRjuZD9yXv4zXdx4H+I0iObtGCMpsMAxjLybLM87HYtkYGjUacRQr1SP00OyhKEz69yNZL4TJgQBJljheCQqhWoX1Q/RYwQAnxiU1bhU9sWTyM5A3veFcMa+tGLcoLMWGsbsajlKbgDSIFkTlxf6bAwEjdfrzEzDq094jo2Z+pybbMNpyVHlwIwD6A9RqHvBfw18H/ABA+O9Zix4gjIHzJWT+g17kfIL7VvilCjln3zFCOsvK/ms7F0oe1WSBhB7v0GW+vC+uKt1kHXkuTMRTb+JYyeG/2Ft+nhHEVVPnM5J9BSOXR0fjIBFcV+wE0mkhe8XXlcSBpYr6sMsiEuF4wTdAxndwHr+XK4Ql5QB/sNIzFDcEO56Urk3j3yS4RyPVIBhhuPQQqDCm88xq5udhpgtIElGo2zhvriq3jCCCTpogBx0+xaY66w61B9zJkvDHFUndL2I4NURp/HXSOOrwQVz9MG9SivSw2WqyY4Hs3K713HDgiHNFMASfuIS/9ggY8PH+Hr3qMYpWSgQAphcpdNyIoD8wMf6vZM574yRgJTgrIRGpFZOM64a17k+hetEXtWxoOJOTXS1NtkYYTm3C20KhJ1MnNOFie+/fL2qiyOCFRtZnIY7CwgBfpy2iLgdVDPRHeRjKljwBpoefqgc3Dkx36sfMBwEnotjBEBPAlPwiaCHQlvCMiM9NiphXK++YAdJPydTCWrT3RAj6eUt563ujMjaAds5f+MeRSkkLU5yQrsxu945kN6q2sXiIyY4wvvh5qQqEOG6gy+Q9UBfLl9/9yZOh84vfVP7A9oDXM86TjkELidG0iMnYyBkfG0qLHXZiIc7E/rtAF38Bgz7L/flUZ6XeykcxQCuJiUSlZgs1pTLfRDMDoO9Fktq9JHP6RHMXBrQ0w6jAvC+en6JJQ5531lBqF+GKzNm5uLitIYKDQnrK6NB1cZbxv1AZwlHHEvkXfhKDDf+zldywh28xexYvMbBx2jYg6u5xkKIIHzlKymI3oslLjFz10wketmsDQW3cJrwGTwMb+t4WjkNB/ApwqBMAhIvEtLIIson0uL1kh/vrE5hKeIIkmj+9QZOQ/ZgMZg8p7Pi5CBmW2MSn3x6UfKd7fDMjg2e5WMhkW4WyFgSVH1WEMJZAoiP1tj3Zqq8hyXyT0ZC8M4zEoH0YugUX2Dihh+5axoIHnl1Sv74h7ja2A//IR/k+TWHLathDRIJn4PxFXM5mcphctw4ljSK4eLGHcauNzl/drJQcz6wgVfPpNxgsQ+MBhxWXziCkTTyjzdDjg7TV+2TV6vi7n0TCzN8nAQz7JFG3EeUa+ceorzLynEY8ubKKT75Wr0TWB8sgG6IdOt/bA+7bBU6+4j+utdwXuzluoOygrCRD9whCLHA73yN6w3nkc4DlZkDgP0j7Z2c78E9XC75euRauJMms+a53qIsBrme4u2CaKIZH5cdpB1Wkj2DwbmOqb4K8jphSRumt4OOwMAJCxtcTbk3lwrwLUvOw/grtAwrxi1131/IkfR8j3neVUqT0Qt+4O5zmfbP8Ee//dqfH/Bke53ZtOpCYIvXTyCMtYYks2Gx3xBWi1pouKWQj9+z5owZ3Vg1Sb4LjE8T4lmj6dZBhC6n2f09Zg2uQ95/VSvbKZC8Rt5gKLee40A8vA/hFMHiKJxeQV2SujZnH5recHyPGcPMEJyJUPmo8hITn2SVLb4GXJfKZ9k4LjiN3Dkyv8esY5LhbBaKMjLhWIofzld82AJDiHjPOHScDfIGi2XIh/a5fEjeq7xUk6ZUbJL/zlYbkb9oRLGmNUcFK+VKgc9E+idwB0MEoeMnirom+Ryj7gDoALDN4vKJBW/4WtQp02//kCDxQxrQmCPdLODQkZCTnA6cQ3nAYw08K8cwLb4DLF854zKJD7HIML2slqdCjOY3G/mGMYaKXSCfJX80XCdw32SJST5U/xODzgnabAhBySPJAw4PnSmkjcPGO+RIK94/RxpF2+V7oQLnf/yH+AKYxCeT9ZSRE/hDXrCRcmpeEMcnHxlB2Nge4XzgeiNr5Hc6/jUSlDrGjPtE32OW5VmN1+JikTEhzksdD+ar4PESuw1xZ0nNM3EFhrLBnVb5DKnDYMqHJscT4CoSoUZW4RGahIn80vuDRF+xEvZhyqEM7gyUS7zRRzXuaz1NGe7vMdcUT5PvMeNjIvgms/6qGMA+V4nhRzQkfOXHqAvyQXMWPgPqDHL6ZcUsPGMECIONB69i4Tk27JzyhThQibCQgFPEHfdcONtQCVWFlQqIHrNOEDuT2cAcRa+F1QkSi4qINsTbWJOpTuHZtqwVzPGggZHPQqLxcsCMYWmgDH8jjVwDJ97Hmo4Ici40faUumku8g+e//rmcHxgONz3ydUPzkYlPEDjIE3yCEOVf3DmhoJGIaqvRkF1wGcJwNjeUPUAa8Fw3yaI10ghBOOnXmJxKocFwvizhOcQgGpkIN5PzFM/io3ljZBILJckjLVTxWVRnBrEbSfpozgf9OcohQI1CKfBRGd9kH0Uw+mAmAOXX6XRKRwL1W57Bwl0sAKypjQmFWCAoPo9VaYfBx0x87iU8AeLAowV0olloyqJBnDcqHWwwBI4RHe2+HyA2GbnwqtSKho/6j44jyiS3C9CaewTO+eBHJwMjMQ7mVQ0Kzp8J3mIq9eSoKxQBygb7jhkUOizeIs1T/GVUINPvLScKUeHs86PlHEa4cqlC7hw7pVg+OA+NdoClGhPIMHNX/GvDSGOGWZ1OKYbAg2AJnMmRYaIZu1OGK6RhRCBj3/lhNi4WrxeByXFFBTaC1vtMdA/PnFhbx9eq5PORbMXB8XnHL4chmY644F6O2Rv78S+SVk+OhwPEhzSY6e4TlWSZSYz3m6NLZcqVJSd6Fvk+ykf+s/xK+DHIC/xX18n/kB5txMbxzfcp40yO05mgJQlJCIfFYeN5cSxiBe4bllxU/pWdG3keDsHu3F9JnUQVUeWT76kcJvE/IHAtrDmiU5m50C/lDMLByQLJG5XLKp9UqhikTztywBAwPp2JL6OZM9e1q3jXLnAyqQM+gfLJe1J/+D5gXkfEacOj5VgKiDpWKWaQRjZw4q1i2Tmv5wcgBBWFxIF2wD+dO4AYOue8UJYG4s75OecwjyEwjcuWCHxlF0NS0jsckLQf6HQifCdgncdyTbwrl6PD4063/xwulzLpUFn1iHog6EA4mixvgCb7yjiqDCctOhHKpF6HlTsp12zwCU/YYB/RzfJVUaUXvU8+GpKLsPQH8zbqe2Tu+4oKS28PnGmOdQ0duN+Z3mxaWn6lFAAvVyJM9IAmgsqOjzigd44K1y/kGhAW+4fARy8a4aIHjTP5XOFY2zVn0kJz8rJmAT8yqYvrlopW7UvvWWbhKg0bn2vE5BIM18lXjRB2JoeBYUC8qoMCzfBe9CdAkI3llgavheC5FBo49MpxGumADOYGDkOaWE9bXk/i+NFLl+UBEQ8bGcp2PsE3UOQjDc0cv5M3co2snUML6otovsFg5iznTbiZe1lGGn1leG6IC1PE+XGMfL+4it3IazJsELUTPZ9WeavzhO+bfPwDXy8qZIMwzLxNBvIPj0mi18mG779/Enp+8idpAWba5Bw7kaFaDLNqvxB43OhLuRBfvHX8Dxa5Gh0/ouC8wb1GJ8CDB4xRwYR/jjvkF/II5ZPLnpSNSZxPrLnJc06HaBpRudWe0jJb+ZxzbRiaxkcm5HUzPkx0XTgjP+Mc6k9gHGcWhvYROPKGz4sbOOP0oexL3UBnc6qPApNYcDojVeoXQ/vVBkFiCVwMQ4umDMcI2gwf14/yW80dhRmwYKeNqn5F6w0eNRn1U9NjKJtPY/JWgOs5PmyCOQbwIt+S1vdA5zmnCXU1gPfqczjv8IM7wwwGMzwcZfGNyuNK18yNG748ZSJunPj6itVp61Vjr3YoEPHSZG8pjfUWcpF3rqXPkE4/hnsou7p4Gp1f8241bO0Y3Nvo/riqmkjep3c5zocYLg152cX0Lzf8zrn1TgFAgUfl4TqBAoMGuD+YXzuC8DG/dSsTTbgyQRCY4cb56eJ/mFiDiR6okDgllZDThKFoCB+443OYECLnYdhazqODkaAw6wqAaCU6FuxInzxLDio7WUMYjRtXdhF4Trr0UpSqo8KGr8GbHWt0+4ukBc9fkT86XTAZfOPR+PUD+EYyRfg5k3okhBxusETg9k60YeAGV4YLkR+YUSuWDPKeBQbC08PXyMNEeWwSDZfvk3pn1oDzVgsfkKjxhG88D5UvWBnepaPgaPkAe4n8DxbnoUtMM0N5xJsF2HL+SLlj8AxWdV74ejAL3clzd4p0GqP5ArhdiVvoA06QLxDUOOzjuuLCYuBaOqwIExOynPkYqMvyKUuMSuHxgQpcriGVrIvWT7gNcrh4rRITyxA+wpDn3RERujIsDvhcGKNjXCb1dcgsb6TDlRd4hBRcDYnvwKfl86/Op08Rj9RVDF9jH05QV1FHkV9S5/k4lYsZBDq9iKWRb96eUD0d5Z4Vykr0Gl1bE/iPwrsIDTawz40EqMZbQhXePO5fK6FsiUdyj/Nq5/71dO+TP6amVnyibmjBLVpWfQV94+Jfkd/vF4N7qZ81D7tgRgLycgrpG7feKcdmMZAMcGzQQe0PUthUAIL2LlbGQQ/BHOcwOfAmzp2tiQ4yUaE2K5W5jeJY9GXfWxypoitoLB5njwNHlewP+rp6wMGkEpYIIFcA8JUoTLHnf9j2df2SKgkEGhc3XGKrQBjqnBOWzlSD3q7LPJHM/2CJpT+GOz2JYlVucL3xZ3Uacev1lSVPNZ9Rf73Ssxxp4NOwdR0qVApTyTpdPyUYtRsfnGHR45yDtsc2lhcqJxIJZnxXWgtmoHwYYbOFdJpih8NSDkzcZbKLe521kWbaHa5nMR1y8lKlIVlSnFvmhMOdGd4Z7Smgcawl50QyVLsof0kCOI2RPOMMHHbBXHMl3caCGcLYFMx6O3CVrD+gEIjhouAYFA4I5P4KZYACpfwrExcmzjnnTdznejM6fL11n8MvEToN7m3UOOH1Za9/gwFhxcfDPTGYAYTbI73apBhWojxPFqbYy9X3Hba4Ej/q/qp9Zcw4cZwIcZfIGH5hkvkfLBxyNL3amPHquBO74VS67DXY7c2/Moi/b7R7HV7MxOIQ48ozZVRaUkGHgR/2e8RphJ84PTF7bPuD6T8ubKTGOO5vuAMhLn42GeSjsZ4iOsc3niZ6i+VYpSIinZkeBiNaIl4isgBfOeXSWb6xNN1bLquL+ZwhU/wsI4c793XZ0tv0CGaLxWKx9Bs00zB+FsgTPaW02Due5nhG0QQqpgoWuiWUTYWUJaaI98s8OTSG8mmap5wW+ybQfG8VFchrC25RYBlJRDM3iI5MOVsrmC0Wi+UkAQK63JMrE7jmekfRHDGVYvTxDF+lDFtnY/KG5cTEEcBAC2NgNWaLxXJ6oLUR+d8TPQnvREY0Z/4XNWKnhrrxLWUYfDpSTepyUI6ifiwnEvE3RAtkjRXMFovllEVEriOZ5POQaP+0id89IZHnwdqYv2T2vfwsJxKxziDuoUz6M4wVzBaL5ZRFiyO8RiWfEq3xKFPNoqpAvT9tsaQdFsZqo4QytvoYJj1rZZ91te2vWSyWEQPvIWPteXzURhv9bWjbNlk0+lXN+qajw77AyLKJV4gQ1u8uy/vLjmAe9veYIZjftfQDtvRbLBaL5cRGPfugY42HaNXG56mzy1kAfgiBXMQCI7e949c93mNO2wIjJhy3xWKxWCwnJOmQWYjjgpor6esX/TK68pepNYtx3FosFovFYkkDWAQGWrIGz5lNhlUwI17TWCwWi8VyopI2meXSzN1YjdlisVgslnTCUl9ryaa2jH0YK5gtlhEiO5BLRdllYgqzSsjn9XOlROUkyvLnULFzDlttMv1ZUTcw6Hmbx4MxFoslPUAZx7Nk2TdU87TMyrZYLMm5ZMb7aXH1xeT3BSgcCdMdr/8H7T6+lfCBiivn3ERLJ11K7V2tcS80PL7+j7R8z4vO0dAyrEN3FotFQCcYk7/0Zx/1bGz9dSk7+ctiGUE2Hlopgvbl7X+nMYXVlJ9VJPYBXwbNGLWA9tfvpMfX/R89Zpg9LLgtFsuphzmkbQWzxTJC7K/fRSv3vkzrDr5FrV3NXDOVfYY/iwqzS2jVvldpBZ83TW3LIXEDrboir4p8Hu5t8/7ognE0qXQGZfmz5byExaYkt5xyMvKiYQP4Kc2tYLeZjo3FYhkpTIGsEcGsnzFpY7FYhh9d1fQQMrYwWSyYM3yZSlgnoTxvFN31oRfovCmX0Y/eew/9/PpH6Ifvu4fu/ehr9Klz/4WKc8s4MKILplxB37nyt1RVOE784Tn2VfNuoa9f9nOOyyd2Foslvai6ryZ6YfjaLZxFMKPHbbFYTgwyWJPNyyqkd0y7mm4667N0/RmfogunXinCOIaS5h9b/BV6evND9OE/XETX/XYhffMvn6LplfPo2jM+IUPiT218gA417pNjvzdAc8ecTUsnXkJ3vfETag+2SRgWiyW9+LmDrOsw0BPAtIAWiZyXUSgHFotl5GnubKQn199LR1sOU2Ygi0YXV9P75n+UfnD1H2hqxRzHFaq1h57b8gj9fdMD4icUCdG6Q8vp/tW/o8U1F3O9LqAW1rrvW/FLmlw+i64/61b62JKv0Ms7/kbrD62MqewWiyWtoG7qGdgaPfELyP/RBePlAMScWSyWdKIfJTW1N9Bja/9PtNr/fePH9NPnvk5fevhGqm0+RN++4reOa8XzWx+LGwbDPiaI+TwBymetGxxo2CUzvv/xgu9SY3sdh303BUPdcs5isaSfynz1aMlNnMY8u3KRHADbibZYRgaj84ynT+oXCVOYNeGO7g56bN3dNKViFhU4s7dBQVaJsxcDQ9gIKxjukvoc8GXSWePPo21H19Powgk0rniicsjAnTYWi2X4wTyPicUzuM5BY0bdi1U+rUWLYD5rzAXcw8aYt8ViGTGcXnFxTpnMpnYzvngSNXc2UFeoU47h/Op5H5Jn0hrMF5lRtYCaOhqopbOZ67VX3oeeM+Zs+udHPkRv7HqWPrjoHzmOnuFbLJbhZ0zBBKrIG+McKUzhDLwlZUVUUzKNqounOlYWiyWd6JFoPVr17tk30rfe/Wu6bNb1VF06hSaVzaD3LfgofWDh5+g3L3+ftWd8ig6zOYnGsvb7uQu+zZr0bBpVMI7eM/cWuvGsz9BTmx6gVhbMVYXj6f0LPkaPrLmL9jXsoPtX/Y4C3gBdPvsGFuKYDari13FbLJahJ1rP2MypWERlOXoip3qmrIkOZdcda6DCjBJaVnOlTCaxWCzpBpVRVUjw4Oo76JXtf6fPX/gdeuLTm+nRW9fRJ5d+jX7zyr/TH1f8QtyIa/73s+e/LkPX93z4FXr287vp40u+THe/+V/0+Lp7ZDLYv176U9p4aBW9uO0JqfR1bbV074pf0jXzPkzTKudJWMATi95isQwTWHr3jDHnydoCMmTtyGUtkLXmLEtyvvbWS7Tj2Eb68atfpm11a+WExWIZXpy62Cv6eXJLZ5Ms26mpyB9Nd93yPP2/P7+Xth3dKMI54AtQW1er46L/uEbTLBbLEKHr+rLqK+jzS79PhdnF0e8w6yU5tYk+Y8bOhOKpdOX0WyjLlyOBSEApNBwWi2XwJJOJeFYMg0lgiRxFHMvuUJcIZStbLZYTAy1HtVAelTeOrp/7D5SfWSgy1zQmOBbBLFLb66PzWZq/f9an5CSEspXLFsvwgfqoDSSqeew2cl58KfC60w7WlLuCHY6N4W6AxmKxDA/5GUX0T0t+SBOLZ8qxFsbmVhs5xlD2W6tep2Cwm8IhvJoRpt+t/Hd6eOMd8pqG485isZwA6N53ImxdtVhOHHRdzc9kobz4B7R4wqWsAKvhagxj66FsCGNRjp0hbRz7CvOLb//krR+XAPQzrJllZ1EBB3awaRe1dDdFVefeNGg0CkhIKo2Du3Ex/SQ715sfTV9u9Pne0miG0Zs7TaIw3ekAfZ1PhPbjdt9bWInS3Ft8qYQ11PEn85/IryZVdxrtXrt1p0HT1/lEJPPTl70bM42phgVwLlGYyfwkcgt6c2emLRmpxqMx3SdLq6av824SpV2TLKxk6dXucL6/YfUWRyrx9+VGn0/kV2OG0Zs7TaIw3ekAfZ1PhPbjdt9bWInS3Ft8qYTVX3s3vcWfDAxIzyhfQB9d8FU6exw+7xr/TNkUxHobNdCYV7z9BoXDYQqFQmKw3xXspA21K+jZHQ/RioPPU2NnvRNdYnBByRKPcyb9uUjtdyAZcyJh5sFgryXVsFLJu4GkayivZaRJJY9SJdWw+nNf+pOuobyWkSbd90W7AUN5X1IN92RgKK9lKPN7IOlKFu7QXKOHRudPoKXjLqOLJl5N44omyaNiCGJTKOt9t4kK5lVr34oKZRhM3YZwhsEavAdYc355zxP0xv5n6HDLXifyeHBBA7+Q1EiWmUNJOq4jnQz39eh7Aux9SY10XIu+L/aepI69L6cn+p6AweQbFveZXDKHzp9wBS0YtZSqWDhjrXstcN3C2NyHMMYxtnIMwbx63fKoIE4knGFwjJmhR1r20876zVTXfoTau1sJywbGj3E7B/Gb3jEdGZnUJ4kC1/5xDvuJwk6SKGWtPsPl7Crc4Zgki6MfRON1e8YJHX4v4co9YKL+TffJ9lNBBZu6Hx2+udWYaTBh+6jTBOdgF72+gd4Xx1vKwB/7Seo9xXBRZ5Km2fTrPu4NHQ4YqB8zLSaJwjbtXOC+qMvjf253Zjwmpr2OI1XgT6JKUFdACuHq9uqEuC/A9KfR/nX8icJ2+3PcDbquAB1HP1Deh6ENU9Yxv32E0wO3/0ESzVfeYA/D1XmZhTLjekrpHMqRj1MoIQ23bsGrjT7W57DV9mIgmNdsWNlDMJsCWe8DJaCV0XYAxybmsftcusAFuuNOZNcX/fFjunX7SxZOIvuBxIkt6M1ff8IdanqLeyDp6o8f063bX6JwYAcS2acap6Y3PwMJrzf6E57pNpG/oU6bm97iTxY37IHbLUglrTrc/vgZSRLlQyK7vuiPH9Ot21+ycBLZDyTOVPz0J9zBgHjcwE7bm+e1gNV2bkGrhbDeug3c6K0YCOa1G1dFhS+MWzDDmMcg0dZtp3EfJwMJAqm6HyiIZ7jjSATi1Nd4smCm91S5L2Y8Q3FP0pVuE53mU+WeuOntvgx3mgYT/ql8X3R8ye7LiYqZ3v7kmc5j7R9bc9+91fumoNX7EMiJhLJ2p/1jH4hgXrdpdVToagGsDYQ0MM8DfYHmhSay0yRyh4Qk2k8FuDdx+9XnzfBNYG/a6eNEaTDDcrtJdGyiz7ntQbJw3PvAdNsX2r87Tm2XKCx3nKZ/t31voGCZbtzuzbD11sR9zu3fRPtN5NY81u40idwlC6uvfdMuVeDHRIej900SxeN2a55LhHZv0ls8bkz7VOI0z7nduc+ZuO1x7N5PZqcx3Zj2yTDd6XBNkoWVKJ5k+8mAG5NEcQAzTBPY63jcWzdmWG43iY5N9Dntrq/zifaBPk6F3uIywzZxx2n6d9u70e6AOxxzq8GxaaeFK9DnYOc2Wos27bR7bSQMCOb1m9+WhGjjfsZs7gNTOMMgMGy1nYn7OBHajRmOTqAJzrnte3M/1LjTmY606DDBYOJzp91NojDgTtsni6s3+0RhDgc6rnSlRcejGUx8plt3uCBR2MD0kygutztNMvfDgY4rUVqSpW8w6DBBousGqcTndmuGCxKFYfrpLS6cc9v35n6ocaczHWnRYYLBxOdOu5tEYcCdtu9PXCCRO9NO72NrGm2ntWTsa6EMTKEMtD8tpMUOgnnj1rWSaC2EzX1za54H7n2Tvo7TAeLUF2o5MdDlwN6XEwtbV05M7H0ZWdx5r49Ne+xro4WtKXy1wE20BdqvNkRE/x/iAeEObT7t2AAAAABJRU5ErkJggg==;" parent="1" vertex="1">
                    <mxGeometry x="-300" y="-390" width="287.47" height="320" as="geometry"/>
                </mxCell>
                <mxCell id="133" value="" style="group" parent="1" vertex="1" connectable="0">
                    <mxGeometry x="-980" y="50" width="1290" height="440" as="geometry"/>
                </mxCell>
                <mxCell id="88" value="" style="rounded=1;whiteSpace=wrap;html=1;strokeColor=#B3B3B3;fontSize=12;fontColor=#ff9999;fillColor=none;dashed=1;strokeWidth=2;absoluteArcSize=1;" parent="133" vertex="1">
                    <mxGeometry width="1290" height="440" as="geometry"/>
                </mxCell>
                <mxCell id="6" value="&lt;h1&gt;GroupNode&lt;/h1&gt;&lt;div&gt;&lt;ul&gt;&lt;li&gt;Responsible for inner parts of itself.&lt;/li&gt;&lt;li&gt;GroupNode should manage all it's TaskNodes.&lt;/li&gt;&lt;li&gt;and should have a public method so BaseWindow can call that to add a new TaskNode according to the parameters BaseWindow given. (will be used when changing the group of TaskNode by dragging)&lt;/li&gt;&lt;/ul&gt;&lt;/div&gt;" style="text;html=1;strokeColor=default;fillColor=none;spacing=5;spacingTop=-20;whiteSpace=wrap;overflow=hidden;rounded=0;dashed=1;strokeWidth=1;" parent="133" vertex="1">
                    <mxGeometry x="20" y="30" width="300" height="170" as="geometry"/>
                </mxCell>
                <mxCell id="36" style="edgeStyle=orthogonalEdgeStyle;html=1;entryX=0.5;entryY=1;entryDx=0;entryDy=0;" parent="133" source="120" target="6" edge="1">
                    <mxGeometry relative="1" as="geometry">
                        <mxPoint x="170" y="269.9999999999998" as="sourcePoint"/>
                    </mxGeometry>
                </mxCell>
                <mxCell id="8" value="&lt;h1&gt;&lt;font color=&quot;#ff9999&quot;&gt;TaskNode&lt;/font&gt;&lt;/h1&gt;&lt;div&gt;&lt;ul&gt;&lt;li&gt;Responsible for inner parts of itself.&lt;/li&gt;&lt;/ul&gt;&lt;/div&gt;" style="text;html=1;strokeColor=default;fillColor=none;spacing=5;spacingTop=-20;whiteSpace=wrap;overflow=hidden;rounded=0;dashed=1;strokeWidth=1;" parent="133" vertex="1">
                    <mxGeometry x="50" y="340" width="240" height="80" as="geometry"/>
                </mxCell>
                <mxCell id="9" style="edgeStyle=orthogonalEdgeStyle;html=1;strokeColor=#ff9999;" parent="133" source="125" target="8" edge="1">
                    <mxGeometry relative="1" as="geometry">
                        <mxPoint x="170" y="349.9999999999998" as="sourcePoint"/>
                    </mxGeometry>
                </mxCell>
                <mxCell id="37" value="&lt;h1&gt;&lt;font color=&quot;#9999ff&quot;&gt;Gaps&lt;/font&gt;&lt;/h1&gt;&lt;div&gt;&lt;ul&gt;&lt;li&gt;This gap should spawn if the GroupNode is not the first node in MainWindow.&lt;/li&gt;&lt;li&gt;The gap for TaskNode will spawn all the time. coz, for now task nodes wont spawn without group node.&lt;/li&gt;&lt;/ul&gt;&lt;/div&gt;" style="text;html=1;strokeColor=default;fillColor=none;spacing=5;spacingTop=-20;whiteSpace=wrap;overflow=hidden;rounded=0;dashed=1;strokeWidth=1;" parent="133" vertex="1">
                    <mxGeometry x="340" y="190" width="240" height="160" as="geometry"/>
                </mxCell>
                <mxCell id="38" style="edgeStyle=orthogonalEdgeStyle;html=1;exitX=1;exitY=0.5;exitDx=0;exitDy=0;entryX=0;entryY=0.5;entryDx=0;entryDy=0;strokeColor=#9999ff;fontColor=#ff9999;" parent="133" target="37" edge="1">
                    <mxGeometry relative="1" as="geometry">
                        <mxPoint x="310" y="304.9999999999998" as="sourcePoint"/>
                    </mxGeometry>
                </mxCell>
                <mxCell id="117" value="" style="group" parent="133" vertex="1" connectable="0">
                    <mxGeometry x="610" y="20" width="660" height="400" as="geometry"/>
                </mxCell>
                <mxCell id="52" value="" style="rounded=1;whiteSpace=wrap;html=1;strokeColor=#B3B3B3;fontSize=12;fontColor=#ff9999;fillColor=none;dashed=1;strokeWidth=2;absoluteArcSize=1;" parent="117" vertex="1">
                    <mxGeometry width="660" height="400" as="geometry"/>
                </mxCell>
                <mxCell id="39" value="&lt;h1 style=&quot;font-size: 12px;&quot;&gt;&lt;font color=&quot;#9999ff&quot; style=&quot;font-size: 12px;&quot;&gt;Gap of GroupNode&lt;/font&gt;&lt;/h1&gt;&lt;div&gt;&lt;ul&gt;&lt;li&gt;&lt;br&gt;&lt;/li&gt;&lt;/ul&gt;&lt;/div&gt;" style="text;html=1;strokeColor=default;fillColor=none;spacing=0;spacingTop=0;whiteSpace=wrap;overflow=hidden;rounded=0;dashed=1;strokeWidth=0.5;fontSize=12;verticalAlign=middle;align=center;" parent="117" vertex="1">
                    <mxGeometry x="20" y="215" width="150" height="30" as="geometry"/>
                </mxCell>
                <mxCell id="41" value="&lt;h1 style=&quot;font-size: 12px;&quot;&gt;&lt;font color=&quot;#9999ff&quot; style=&quot;font-size: 12px;&quot;&gt;Gap of TaskNode&lt;/font&gt;&lt;/h1&gt;" style="text;html=1;strokeColor=default;fillColor=none;spacing=0;spacingTop=0;whiteSpace=wrap;overflow=hidden;rounded=0;dashed=1;strokeWidth=0.5;fontSize=12;verticalAlign=middle;align=center;" parent="117" vertex="1">
                    <mxGeometry x="500" y="210" width="130" height="35" as="geometry"/>
                </mxCell>
                <mxCell id="116" value="" style="group" parent="117" vertex="1" connectable="0">
                    <mxGeometry x="190" y="90" width="280" height="130" as="geometry"/>
                </mxCell>
                <mxCell id="10" value="&lt;font color=&quot;#000000&quot;&gt;GroupNode&lt;/font&gt;" style="rounded=1;whiteSpace=wrap;html=1;absoluteArcSize=1;arcSize=9;strokeColor=none;fillColor=#ffffff;shadow=0;glass=0;verticalAlign=top;align=left;" parent="116" vertex="1">
                    <mxGeometry width="280" height="130" as="geometry"/>
                </mxCell>
                <mxCell id="111" value="" style="group" parent="116" vertex="1" connectable="0">
                    <mxGeometry y="30" width="280" height="50" as="geometry"/>
                </mxCell>
                <mxCell id="112" value="&lt;font color=&quot;#000000&quot;&gt;TaskNode&lt;/font&gt;" style="rounded=1;whiteSpace=wrap;html=1;absoluteArcSize=1;arcSize=9;strokeColor=#000000;fillColor=#ff9999;shadow=0;glass=0;align=left;" parent="111" vertex="1">
                    <mxGeometry width="280" height="50" as="geometry"/>
                </mxCell>
                <mxCell id="114" value="&lt;font color=&quot;#000000&quot;&gt;TaskNode&lt;/font&gt;" style="rounded=1;whiteSpace=wrap;html=1;absoluteArcSize=1;arcSize=9;strokeColor=#000000;fillColor=#FF9999;shadow=0;glass=0;align=left;" parent="111" vertex="1">
                    <mxGeometry y="10" width="280" height="40" as="geometry"/>
                </mxCell>
                <mxCell id="115" value="15px" style="rounded=1;whiteSpace=wrap;html=1;absoluteArcSize=1;arcSize=9;strokeColor=none;fillColor=#9999FF;shadow=0;glass=0;verticalAlign=middle;align=center;spacing=0;fontSize=10;" parent="111" vertex="1">
                    <mxGeometry width="280" height="10" as="geometry"/>
                </mxCell>
                <mxCell id="107" value="" style="group" parent="116" vertex="1" connectable="0">
                    <mxGeometry y="80" width="280" height="50" as="geometry"/>
                </mxCell>
                <mxCell id="108" value="&lt;font color=&quot;#000000&quot;&gt;TaskNode&lt;/font&gt;" style="rounded=1;whiteSpace=wrap;html=1;absoluteArcSize=1;arcSize=9;strokeColor=#000000;fillColor=#ff9999;shadow=0;glass=0;align=left;" parent="107" vertex="1">
                    <mxGeometry width="280" height="50" as="geometry"/>
                </mxCell>
                <mxCell id="109" value="" style="rounded=1;whiteSpace=wrap;html=1;absoluteArcSize=1;arcSize=9;strokeColor=none;fillColor=#9999FF;shadow=0;glass=0;verticalAlign=top;align=left;" parent="107" vertex="1">
                    <mxGeometry width="280" height="10" as="geometry"/>
                </mxCell>
                <mxCell id="110" value="&lt;font color=&quot;#000000&quot;&gt;TaskNode&lt;/font&gt;" style="rounded=1;whiteSpace=wrap;html=1;absoluteArcSize=1;arcSize=9;strokeColor=#000000;fillColor=#FF9999;shadow=0;glass=0;align=left;" parent="107" vertex="1">
                    <mxGeometry y="10" width="280" height="40" as="geometry"/>
                </mxCell>
                <mxCell id="106" value="" style="group" parent="117" vertex="1" connectable="0">
                    <mxGeometry x="190" y="220" width="280" height="150" as="geometry"/>
                </mxCell>
                <mxCell id="23" value="&lt;font color=&quot;#000000&quot;&gt;GroupNode&lt;/font&gt;" style="rounded=1;whiteSpace=wrap;html=1;absoluteArcSize=1;arcSize=9;strokeColor=none;fillColor=#ffffff;shadow=0;glass=0;verticalAlign=top;align=left;spacingTop=16;" parent="106" vertex="1">
                    <mxGeometry width="280" height="150" as="geometry"/>
                </mxCell>
                <mxCell id="92" value="25px" style="rounded=1;whiteSpace=wrap;html=1;absoluteArcSize=1;arcSize=9;strokeColor=none;fillColor=#47f7f7;shadow=0;glass=0;verticalAlign=middle;align=center;fontColor=#4D4D4D;spacing=0;fontSize=10;" parent="106" vertex="1">
                    <mxGeometry width="280" height="20" as="geometry"/>
                </mxCell>
                <mxCell id="101" value="" style="group" parent="106" vertex="1" connectable="0">
                    <mxGeometry y="50" width="280" height="50" as="geometry"/>
                </mxCell>
                <mxCell id="25" value="&lt;font color=&quot;#000000&quot;&gt;TaskNode&lt;/font&gt;" style="rounded=1;whiteSpace=wrap;html=1;absoluteArcSize=1;arcSize=9;strokeColor=#000000;fillColor=#ff9999;shadow=0;glass=0;align=left;" parent="101" vertex="1">
                    <mxGeometry width="280" height="50" as="geometry"/>
                </mxCell>
                <mxCell id="34" value="" style="rounded=1;whiteSpace=wrap;html=1;absoluteArcSize=1;arcSize=9;strokeColor=none;fillColor=#9999FF;shadow=0;glass=0;verticalAlign=top;align=left;" parent="101" vertex="1">
                    <mxGeometry width="280" height="10" as="geometry"/>
                </mxCell>
                <mxCell id="26" value="&lt;font color=&quot;#000000&quot;&gt;TaskNode&lt;/font&gt;" style="rounded=1;whiteSpace=wrap;html=1;absoluteArcSize=1;arcSize=9;strokeColor=#000000;fillColor=#FF9999;shadow=0;glass=0;align=left;" parent="101" vertex="1">
                    <mxGeometry y="10" width="280" height="40" as="geometry"/>
                </mxCell>
                <mxCell id="102" value="" style="group" parent="106" vertex="1" connectable="0">
                    <mxGeometry y="100" width="280" height="50" as="geometry"/>
                </mxCell>
                <mxCell id="103" value="&lt;font color=&quot;#000000&quot;&gt;TaskNode&lt;/font&gt;" style="rounded=1;whiteSpace=wrap;html=1;absoluteArcSize=1;arcSize=9;strokeColor=#000000;fillColor=#ff9999;shadow=0;glass=0;align=left;" parent="102" vertex="1">
                    <mxGeometry width="280" height="50" as="geometry"/>
                </mxCell>
                <mxCell id="104" value="" style="rounded=1;whiteSpace=wrap;html=1;absoluteArcSize=1;arcSize=9;strokeColor=none;fillColor=#9999FF;shadow=0;glass=0;verticalAlign=top;align=left;" parent="102" vertex="1">
                    <mxGeometry width="280" height="10" as="geometry"/>
                </mxCell>
                <mxCell id="105" value="&lt;font color=&quot;#000000&quot;&gt;TaskNode&lt;/font&gt;" style="rounded=1;whiteSpace=wrap;html=1;absoluteArcSize=1;arcSize=9;strokeColor=#000000;fillColor=#FF9999;shadow=0;glass=0;align=left;" parent="102" vertex="1">
                    <mxGeometry y="10" width="280" height="40" as="geometry"/>
                </mxCell>
                <mxCell id="46" value="&lt;h1 style=&quot;font-size: 12px;&quot;&gt;&lt;font color=&quot;#9999ff&quot;&gt;There is no gap for this node. because, this is the first node.&lt;/font&gt;&lt;/h1&gt;" style="text;html=1;strokeColor=default;fillColor=none;spacing=0;spacingTop=0;whiteSpace=wrap;overflow=hidden;rounded=0;dashed=1;strokeWidth=0.5;fontSize=12;verticalAlign=middle;align=center;" parent="117" vertex="1">
                    <mxGeometry x="232.5" y="20" width="195" height="40" as="geometry"/>
                </mxCell>
                <mxCell id="94" style="edgeStyle=orthogonalEdgeStyle;html=1;strokeColor=#9999ff;fontSize=10;fontColor=#4D4D4D;" parent="117" source="115" target="41" edge="1">
                    <mxGeometry relative="1" as="geometry">
                        <mxPoint x="1100" y="155" as="sourcePoint"/>
                    </mxGeometry>
                </mxCell>
                <mxCell id="42" style="edgeStyle=orthogonalEdgeStyle;html=1;strokeColor=#9999ff;fontColor=#9999ff;" parent="117" source="109" target="41" edge="1">
                    <mxGeometry relative="1" as="geometry">
                        <mxPoint x="1100" y="205" as="sourcePoint"/>
                    </mxGeometry>
                </mxCell>
                <mxCell id="96" style="edgeStyle=orthogonalEdgeStyle;html=1;strokeColor=#47f7f7;fontSize=10;fontColor=#4D4D4D;" parent="117" source="92" target="39" edge="1">
                    <mxGeometry relative="1" as="geometry"/>
                </mxCell>
                <mxCell id="95" style="edgeStyle=orthogonalEdgeStyle;html=1;strokeColor=#9999ff;fontSize=10;fontColor=#4D4D4D;" parent="117" source="34" target="41" edge="1">
                    <mxGeometry relative="1" as="geometry"/>
                </mxCell>
                <mxCell id="45" style="edgeStyle=orthogonalEdgeStyle;html=1;strokeColor=#9999ff;fontColor=#9999ff;" parent="117" source="104" target="41" edge="1">
                    <mxGeometry relative="1" as="geometry">
                        <mxPoint x="1100" y="364.9999999999998" as="sourcePoint"/>
                        <mxPoint x="720" y="350" as="targetPoint"/>
                    </mxGeometry>
                </mxCell>
                <mxCell id="97" style="edgeStyle=orthogonalEdgeStyle;html=1;strokeColor=#47f7f7;fontSize=10;fontColor=#47f7f7;" parent="117" source="46" target="10" edge="1">
                    <mxGeometry relative="1" as="geometry"/>
                </mxCell>
                <mxCell id="132" style="edgeStyle=orthogonalEdgeStyle;html=1;strokeColor=#47f7f7;fontSize=10;fontColor=#47f7f7;" parent="133" source="121" target="37" edge="1">
                    <mxGeometry relative="1" as="geometry"/>
                </mxCell>
                <mxCell id="130" value="" style="group" parent="133" vertex="1" connectable="0">
                    <mxGeometry x="30" y="220" width="280" height="100" as="geometry"/>
                </mxCell>
                <mxCell id="120" value="&lt;font color=&quot;#000000&quot;&gt;GroupNode&lt;/font&gt;" style="rounded=1;whiteSpace=wrap;html=1;absoluteArcSize=1;arcSize=9;strokeColor=none;fillColor=#ffffff;shadow=0;glass=0;verticalAlign=top;align=left;spacingTop=16;" parent="130" vertex="1">
                    <mxGeometry width="280" height="100" as="geometry"/>
                </mxCell>
                <mxCell id="121" value="25px" style="rounded=1;whiteSpace=wrap;html=1;absoluteArcSize=1;arcSize=9;strokeColor=none;fillColor=#47f7f7;shadow=0;glass=0;verticalAlign=middle;align=center;fontColor=#4D4D4D;spacing=0;fontSize=10;" parent="130" vertex="1">
                    <mxGeometry width="280" height="20" as="geometry"/>
                </mxCell>
                <mxCell id="122" value="" style="group" parent="130" vertex="1" connectable="0">
                    <mxGeometry y="50" width="280" height="50" as="geometry"/>
                </mxCell>
                <mxCell id="123" value="&lt;font color=&quot;#000000&quot;&gt;TaskNode&lt;/font&gt;" style="rounded=1;whiteSpace=wrap;html=1;absoluteArcSize=1;arcSize=9;strokeColor=#000000;fillColor=#ff9999;shadow=0;glass=0;align=left;" parent="122" vertex="1">
                    <mxGeometry width="280" height="50" as="geometry"/>
                </mxCell>
                <mxCell id="124" value="" style="rounded=1;whiteSpace=wrap;html=1;absoluteArcSize=1;arcSize=9;strokeColor=none;fillColor=#9999FF;shadow=0;glass=0;verticalAlign=top;align=left;" parent="122" vertex="1">
                    <mxGeometry width="280" height="10" as="geometry"/>
                </mxCell>
                <mxCell id="125" value="&lt;font color=&quot;#000000&quot;&gt;TaskNode&lt;/font&gt;" style="rounded=1;whiteSpace=wrap;html=1;absoluteArcSize=1;arcSize=9;strokeColor=#000000;fillColor=#FF9999;shadow=0;glass=0;align=left;" parent="122" vertex="1">
                    <mxGeometry y="10" width="280" height="40" as="geometry"/>
                </mxCell>
                <mxCell id="neha6Ym7vmt4rvXV4TqX-176" value="" style="group" vertex="1" connectable="0" parent="1">
                    <mxGeometry x="400" y="360" width="280" height="234" as="geometry"/>
                </mxCell>
                <mxCell id="neha6Ym7vmt4rvXV4TqX-154" value="" style="group" vertex="1" connectable="0" parent="neha6Ym7vmt4rvXV4TqX-176">
                    <mxGeometry width="280" height="234" as="geometry"/>
                </mxCell>
                <mxCell id="neha6Ym7vmt4rvXV4TqX-145" value="" style="rounded=1;whiteSpace=wrap;html=1;absoluteArcSize=1;arcSize=9;strokeColor=none;fillColor=#CFCFCF;container=0;" vertex="1" parent="neha6Ym7vmt4rvXV4TqX-154">
                    <mxGeometry width="280" height="230" as="geometry"/>
                </mxCell>
                <mxCell id="neha6Ym7vmt4rvXV4TqX-146" value="" style="rounded=1;whiteSpace=wrap;html=1;absoluteArcSize=1;arcSize=9;strokeColor=none;fillColor=#FFFFFF;shadow=0;glass=0;container=0;" vertex="1" parent="neha6Ym7vmt4rvXV4TqX-154">
                    <mxGeometry y="34" width="280" height="200" as="geometry"/>
                </mxCell>
                <mxCell id="neha6Ym7vmt4rvXV4TqX-175" value="" style="group" vertex="1" connectable="0" parent="neha6Ym7vmt4rvXV4TqX-176">
                    <mxGeometry y="67" width="280" height="163" as="geometry"/>
                </mxCell>
                <mxCell id="neha6Ym7vmt4rvXV4TqX-172" value="" style="group" vertex="1" connectable="0" parent="neha6Ym7vmt4rvXV4TqX-175">
                    <mxGeometry y="133" width="280" height="30" as="geometry"/>
                </mxCell>
                <mxCell id="neha6Ym7vmt4rvXV4TqX-162" value="&lt;font color=&quot;#000000&quot;&gt;Add New Group&lt;/font&gt;" style="rounded=1;whiteSpace=wrap;html=1;absoluteArcSize=1;arcSize=9;strokeColor=none;fillColor=#ffffff;shadow=0;glass=0;verticalAlign=top;align=left;" vertex="1" parent="neha6Ym7vmt4rvXV4TqX-172">
                    <mxGeometry width="280" height="30" as="geometry"/>
                </mxCell>
                <mxCell id="neha6Ym7vmt4rvXV4TqX-171" value="" style="rounded=0;whiteSpace=wrap;html=1;absoluteArcSize=1;arcSize=9;strokeColor=#4D4D4D;fillColor=#FFCC99;shadow=0;glass=0;container=0;fillOpacity=50;strokeWidth=2;" vertex="1" parent="neha6Ym7vmt4rvXV4TqX-172">
                    <mxGeometry width="280" height="30" as="geometry"/>
                </mxCell>
                <mxCell id="neha6Ym7vmt4rvXV4TqX-173" value="" style="group" vertex="1" connectable="0" parent="neha6Ym7vmt4rvXV4TqX-175">
                    <mxGeometry width="280" height="130" as="geometry"/>
                </mxCell>
                <mxCell id="neha6Ym7vmt4rvXV4TqX-134" value="" style="group" vertex="1" connectable="0" parent="neha6Ym7vmt4rvXV4TqX-173">
                    <mxGeometry width="280" height="130" as="geometry"/>
                </mxCell>
                <mxCell id="neha6Ym7vmt4rvXV4TqX-135" value="&lt;font color=&quot;#000000&quot;&gt;GroupNode&lt;/font&gt;" style="rounded=1;whiteSpace=wrap;html=1;absoluteArcSize=1;arcSize=9;strokeColor=none;fillColor=#ffffff;shadow=0;glass=0;verticalAlign=top;align=left;" vertex="1" parent="neha6Ym7vmt4rvXV4TqX-134">
                    <mxGeometry width="280" height="130" as="geometry"/>
                </mxCell>
                <mxCell id="neha6Ym7vmt4rvXV4TqX-136" value="" style="group" vertex="1" connectable="0" parent="neha6Ym7vmt4rvXV4TqX-134">
                    <mxGeometry y="30" width="280" height="50" as="geometry"/>
                </mxCell>
                <mxCell id="neha6Ym7vmt4rvXV4TqX-137" value="&lt;font color=&quot;#000000&quot;&gt;TaskNode&lt;/font&gt;" style="rounded=1;whiteSpace=wrap;html=1;absoluteArcSize=1;arcSize=9;strokeColor=#000000;fillColor=#ff9999;shadow=0;glass=0;align=left;" vertex="1" parent="neha6Ym7vmt4rvXV4TqX-136">
                    <mxGeometry width="280" height="50" as="geometry"/>
                </mxCell>
                <mxCell id="neha6Ym7vmt4rvXV4TqX-138" value="&lt;font color=&quot;#000000&quot;&gt;TaskNode&lt;/font&gt;" style="rounded=1;whiteSpace=wrap;html=1;absoluteArcSize=1;arcSize=9;strokeColor=#000000;fillColor=#FF9999;shadow=0;glass=0;align=left;" vertex="1" parent="neha6Ym7vmt4rvXV4TqX-136">
                    <mxGeometry y="10" width="280" height="40" as="geometry"/>
                </mxCell>
                <mxCell id="neha6Ym7vmt4rvXV4TqX-139" value="15px" style="rounded=1;whiteSpace=wrap;html=1;absoluteArcSize=1;arcSize=9;strokeColor=none;fillColor=#9999FF;shadow=0;glass=0;verticalAlign=middle;align=center;spacing=0;fontSize=10;" vertex="1" parent="neha6Ym7vmt4rvXV4TqX-136">
                    <mxGeometry width="280" height="10" as="geometry"/>
                </mxCell>
                <mxCell id="neha6Ym7vmt4rvXV4TqX-140" value="" style="group" vertex="1" connectable="0" parent="neha6Ym7vmt4rvXV4TqX-134">
                    <mxGeometry y="80" width="280" height="50" as="geometry"/>
                </mxCell>
                <mxCell id="neha6Ym7vmt4rvXV4TqX-141" value="&lt;font color=&quot;#000000&quot;&gt;TaskNode&lt;/font&gt;" style="rounded=1;whiteSpace=wrap;html=1;absoluteArcSize=1;arcSize=9;strokeColor=#000000;fillColor=#ff9999;shadow=0;glass=0;align=left;" vertex="1" parent="neha6Ym7vmt4rvXV4TqX-140">
                    <mxGeometry width="280" height="50" as="geometry"/>
                </mxCell>
                <mxCell id="neha6Ym7vmt4rvXV4TqX-142" value="" style="rounded=1;whiteSpace=wrap;html=1;absoluteArcSize=1;arcSize=9;strokeColor=none;fillColor=#9999FF;shadow=0;glass=0;verticalAlign=top;align=left;" vertex="1" parent="neha6Ym7vmt4rvXV4TqX-140">
                    <mxGeometry width="280" height="10" as="geometry"/>
                </mxCell>
                <mxCell id="neha6Ym7vmt4rvXV4TqX-143" value="&lt;font color=&quot;#000000&quot;&gt;TaskNode&lt;/font&gt;" style="rounded=1;whiteSpace=wrap;html=1;absoluteArcSize=1;arcSize=9;strokeColor=#000000;fillColor=#FF9999;shadow=0;glass=0;align=left;" vertex="1" parent="neha6Ym7vmt4rvXV4TqX-140">
                    <mxGeometry y="10" width="280" height="40" as="geometry"/>
                </mxCell>
                <mxCell id="neha6Ym7vmt4rvXV4TqX-152" value="" style="rounded=0;whiteSpace=wrap;html=1;absoluteArcSize=1;arcSize=9;strokeColor=#4D4D4D;fillColor=#FFCC99;shadow=0;glass=0;container=0;fillOpacity=50;strokeWidth=2;" vertex="1" parent="neha6Ym7vmt4rvXV4TqX-173">
                    <mxGeometry width="280" height="130" as="geometry"/>
                </mxCell>
            </root>
        </mxGraphModel>
    </diagram>
</mxfile>